<svg width="114" height="116" viewBox="0 0 114 116" fill="none" xmlns="http://www.w3.org/2000/svg">
<rect x="-0.612372" y="23.3847" width="92.7179" height="95.5718" rx="13.7141" transform="rotate(-15 -0.612372 23.3847)" fill="#212121"/>
<rect x="-0.612372" y="23.3847" width="92.7179" height="95.5718" rx="13.7141" transform="rotate(-15 -0.612372 23.3847)" stroke="#333333"/>
<path d="M51.4317 31.3806C41.9519 33.9207 26.9247 43.7724 28.7975 62.0355C30.671 80.3014 51.2834 88.8003 67.1396 81.9605C82.9966 75.1237 84.5222 60.6931 82.6568 48.8963C80.7914 37.0995 69.5446 26.5241 51.4309 31.3777L51.4317 31.3806Z" fill="#EA1548"/>
<path d="M69.9007 72.2929C63.9955 74.2892 56.9741 76.3808 52.7835 77.4002C48.5928 78.4195 41.8155 80.6496 39.897 80.8531C37.9784 81.0566 36.8605 81.146 37.6884 82.6902C38.5162 84.2345 42.5313 84.0934 48.2921 82.3428C54.0558 80.5914 61.122 78.2808 65.1195 77.3132C68.7283 76.4403 74.5461 74.8908 77.4524 74.1121C80.3586 73.3334 83.1753 72.9927 82.8522 71.0027C82.5291 69.0126 75.8079 70.2929 69.9036 72.2921L69.9007 72.2929Z" fill="#EA3F70"/>
<path d="M82.8223 62.4974C80.9174 62.9043 71.09 66.0551 66.8197 67.4095C62.5516 68.7602 57.1234 69.1764 52.8971 70.3088C48.6709 71.4412 44.374 72.6961 40.4866 73.2201C36.5985 73.7412 33.9262 74.6674 34.3677 76.3152C34.8093 77.9629 34.8396 79.2002 36.6927 78.6001C38.5458 78 48.2475 75.504 50.9046 74.8956C53.5616 74.2871 54.9221 74.8574 59.7551 73.3553C64.7848 71.7912 68.7466 70.8426 74.0767 69.3109C79.4067 67.7792 83.9603 67.4938 84.9866 64.932C86.0129 62.3702 84.7279 62.0934 82.826 62.4995L82.8223 62.4974Z" fill="#EA3F70"/>
<path d="M79.5714 55.6799C74.4496 57.8836 69.9922 59.0779 65.0817 60.9113C60.172 62.7476 56.4755 62.9068 50.5923 64.5867C44.7061 66.2674 42.8324 66.2519 38.0852 67.5239C33.338 68.7959 30.9189 68.3023 30.4175 70.3062C29.9162 72.3101 28.9431 73.7127 31.0549 73.4574C33.1666 73.2021 37.2308 71.699 40.8868 70.6159C44.5427 69.5328 54.1177 67.2777 57.8254 66.3877C61.5332 65.4978 69.5129 63.8803 72.2701 62.9314C78.817 60.6846 81.0366 60.3754 84.0136 59.4742C86.9906 58.573 87.4359 57.5189 87.0461 56.0643C86.6564 54.6097 84.6903 53.477 79.5685 55.6807L79.5714 55.6799Z" fill="#EA3F70"/>
<path d="M38.8782 39.9514C41.1908 40.0595 46.6688 38.7987 49.6228 37.8002C52.5739 36.8024 58.0996 35.3218 60.9541 34.3499C63.8086 33.378 68.2282 32.8149 67.1783 31.2266C66.1285 29.6383 65.0632 29.9237 59.6887 31.5709C54.3143 33.218 47.1437 35.1393 47.1437 35.1393C44.8647 35.5429 40.4444 36.1031 38.5634 37.2314C36.6854 38.3588 36.5626 39.8441 38.8782 39.9514Z" fill="#EA3F70"/>
<path d="M43.6276 44.4946C49.5327 42.4982 56.5541 40.4067 60.7448 39.3873C64.9384 38.3672 71.7127 36.1379 73.6313 35.9344C75.5499 35.7309 76.6677 35.6415 75.8399 34.0972C75.012 32.553 70.997 32.694 65.2362 34.4447C59.4725 36.1961 52.4062 38.5067 48.4088 39.4743C44.8 40.3472 38.9821 41.8966 36.0759 42.6754C33.1696 43.4541 30.353 43.7947 30.6761 45.7848C31.002 47.7741 37.7203 46.4946 43.6247 44.4953L43.6276 44.4946Z" fill="#EA3F70"/>
<path d="M30.7704 54.2731C32.7338 53.8505 42.8773 50.615 47.2822 49.2245C51.6879 47.837 57.2771 47.3777 61.6379 46.2092C65.9988 45.0407 70.4304 43.7497 74.4348 43.1943C78.44 42.6419 81.1971 41.6929 80.7556 40.0452C80.3141 38.3974 80.2925 37.1578 78.3809 37.7736C76.4692 38.3893 66.4631 40.9669 63.7242 41.5973C60.9852 42.2277 59.5895 41.6669 54.6014 43.2105C49.4137 44.8169 45.3261 45.7993 39.8263 47.3765C34.3293 48.9529 29.6382 49.2751 28.5621 51.8502C27.4853 54.4224 28.8033 54.6935 30.7696 54.2702L30.7704 54.2731Z" fill="#EA3F70"/>
<path d="M33.9539 61.1087C39.0757 58.9051 43.5332 57.7107 48.4436 55.8773C53.3533 54.0411 57.0498 53.8819 62.9331 52.2019C68.8163 50.522 70.693 50.5367 75.4402 49.2647C80.1874 47.9927 82.6065 48.4864 83.1078 46.4825C83.6092 44.4785 84.5822 43.076 82.4705 43.3313C80.3588 43.5865 76.2946 45.0896 72.6386 46.1727C68.9826 47.2559 59.4077 49.5109 55.6999 50.4009C51.9922 51.2909 44.0124 52.9083 41.2553 53.8572C34.7083 56.104 32.4887 56.4133 29.5118 57.3145C26.5348 58.2157 26.0895 59.2698 26.4792 60.7244C26.869 62.179 28.835 63.3116 33.9568 61.1079L33.9539 61.1087Z" fill="#EA3F70"/>
<path d="M82.6575 48.8992C80.8851 49.051 76.1384 51.8819 71.7775 53.0504C67.4166 54.2189 53.9261 56.5883 50.8008 57.3222C47.6755 58.0561 45.8127 58.8658 45.8127 58.8658C39.9455 60.2309 35.0638 62.16 31.6794 63.4841C28.2942 64.8052 27.6561 64.3551 28.402 66.7526C29.1479 69.1501 35.1445 68.2679 42.4418 65.2743C49.7391 62.2807 51.13 62.4256 57.8814 60.099C64.632 57.7694 67.2045 57.2903 73.5994 55.5768C79.9944 53.8632 82.9671 54.105 83.7422 52.3383C84.5143 50.5724 84.4329 48.7466 82.6605 48.8984L82.6575 48.8992Z" fill="#EA3F70"/>
<path d="M74.6472 76.837C72.3346 76.7289 66.8566 77.9897 63.9026 78.9883C60.9515 79.986 55.4258 81.4667 52.5713 82.4386C50.2685 83.2218 46.9536 83.7399 46.3031 84.7424C46.6727 85.4777 47.1167 86.0928 47.6803 86.5691C48.7156 86.7686 50.3896 86.2729 53.8329 85.2154C59.2074 83.5683 66.3779 81.647 66.3779 81.647C68.6569 81.2433 73.0773 80.6832 74.9582 79.5549C76.8363 78.4275 76.959 76.9422 74.6435 76.8349L74.6472 76.837Z" fill="#EA3F70"/>
<path d="M36.5989 46.149C36.7733 45.9454 36.7382 45.6505 36.4984 45.5046C36.1954 45.3223 35.731 45.591 35.8318 45.9436C35.9354 46.2954 36.4273 46.3518 36.5989 46.149Z" fill="#A51B42"/>
<path d="M31.267 52.5559C31.2854 52.2969 31.0783 52.0858 30.7965 52.1111C30.6314 52.1271 30.498 52.2381 30.4312 52.3752C29.6495 52.8294 28.2118 54.4411 28.1521 54.9559C28.0799 55.5995 27.5079 61.5309 27.4555 62.6585C27.4032 63.7861 28.3593 63.737 29.9316 64.0089C31.7243 64.3191 32.3711 63.7944 32.5376 63.2918C32.7033 62.7863 33.5525 56.0748 33.2825 55.3598C33.0655 54.7843 31.9031 53.3611 31.2429 52.6534C31.2593 52.6208 31.269 52.5868 31.2699 52.5552L31.267 52.5559Z" fill="#A51B42"/>
<path d="M31.8215 51.1714C31.7477 50.7207 31.6141 50.7722 31.3607 50.7397C31.0749 50.7033 30.7889 51.5673 31.2529 51.8006C31.7103 52.0325 31.8944 51.6193 31.8215 51.1714Z" fill="#A51B42"/>
<path d="M31.7864 49.9637C31.5807 50.1443 31.4994 50.6836 31.8901 50.6668C32.2779 50.6507 32.5059 50.3543 32.4285 50.0771C32.3548 49.802 32.0682 49.7156 31.7864 49.9637Z" fill="#A51B42"/>
<path d="M32.5073 48.8609C32.3135 49.0038 32.1718 49.4935 32.5282 49.536C32.8825 49.5822 32.9851 49.6489 33.1341 49.2921C33.2869 48.9375 32.8798 48.5886 32.5073 48.8609Z" fill="#A51B42"/>
<path d="M33.4333 47.9383C33.0674 48.0364 32.8862 48.4488 33.2008 48.5809C33.5133 48.7168 33.6576 48.6468 33.7521 48.3673C33.8466 48.0879 33.6938 47.8685 33.4333 47.9383Z" fill="#A51B42"/>
<path d="M34.2015 46.8135C33.9075 46.8986 33.6766 47.3714 33.9712 47.6281C34.2629 47.8856 34.6804 47.6639 34.7249 47.3854C34.7687 47.1039 34.5102 46.7245 34.2015 46.8135Z" fill="#A51B42"/>
<path d="M34.978 46.2227C34.7936 46.2721 34.535 46.5829 34.7566 46.7777C34.9781 46.9724 35.44 46.9867 35.5692 46.7199C35.6985 46.4531 35.57 46.0672 34.981 46.2219L34.978 46.2227Z" fill="#A51B42"/>
<path d="M71.4926 54.8553C70.8983 52.6023 70.3995 50.6938 70.0947 49.4392C68.6493 43.4712 66.0765 35.0165 61.8432 35.994C60.7889 36.2388 59.5802 36.5627 58.3623 36.911C58.2212 36.3026 58.0692 35.6532 57.9123 35.0208C57.906 34.9974 57.8997 34.974 57.8935 34.9506C57.8629 34.8364 57.8352 34.7215 57.8083 34.6095C57.8068 34.6037 57.8052 34.5978 57.8036 34.5919C57.7723 34.4749 57.7417 34.3607 57.7132 34.2429C57.7085 34.2253 57.7046 34.2107 57.6999 34.1931C57.9496 34.0948 58.1792 33.98 58.368 33.8416C59.0844 33.3077 59.056 32.8856 58.7484 31.4215C58.4408 29.9574 56.9411 26.9244 53.8183 27.7611C50.6954 28.5979 47.4299 29.5576 47.4299 29.5576C43.0653 30.8996 39.7491 32.3026 39.9065 34.4939C40.0639 36.6852 40.536 38.4471 41.3919 39.0773C41.7283 39.3259 42.2625 39.3177 42.8198 39.1966L42.9534 39.6721L43.4472 41.4094C40.8818 42.3132 38.9605 43.3142 37.8028 44.7067C37.8012 44.7008 37.7946 44.6995 37.7909 44.6973C37.5898 44.4971 36.8215 45.048 37.0498 45.5139C37.084 45.5831 37.1224 45.6324 37.165 45.6744C36.4458 47.0528 36.3241 48.7762 36.8872 51.0533C38.7592 58.6134 44.5801 80.9223 46.1288 84.3845C47.2011 86.7824 48.9362 88.0365 52.6069 87.6991C52.8021 88.8138 53.3009 90.5936 54.474 90.4643C55.6808 90.3323 55.9831 89.1189 55.7604 87.8548C55.7518 87.8226 55.749 87.7889 55.7426 87.7529C55.7121 87.6043 55.678 87.4534 55.6351 87.3049C55.6233 87.261 55.6057 87.2187 55.5939 87.1748C56.5426 86.9457 57.5835 86.6511 58.729 86.2783C62.5579 85.0328 66.8123 84.0873 70.2656 83.1024C70.2687 83.1141 70.2718 83.1258 70.2742 83.1346C70.296 83.2511 70.3237 83.366 70.3542 83.4802C70.3542 83.4802 70.355 83.4831 70.3558 83.486C70.7315 84.8879 71.6715 86.0665 72.9059 85.5224C73.7194 85.1633 73.6589 84.0596 73.4124 83.0811C73.3328 82.7605 73.2313 82.452 73.1365 82.192C75.4808 81.3411 77.0415 80.399 77.1312 79.1767C77.3058 76.8431 74.1788 65.0206 71.9457 56.5815C72.1693 56.1515 72.1459 55.5492 71.4905 54.859L71.4926 54.8553ZM46.5661 34.0019C48.5644 33.1245 52.0231 31.9374 52.6641 31.7657C53.3051 31.5939 54.2356 31.859 54.4505 32.661C54.6654 33.4629 55.0089 34.7448 55.671 34.6521C55.7106 34.6477 55.7553 34.6389 55.7978 34.6338C55.9429 35.3509 56.1642 36.446 56.4248 37.4772C53.4793 38.3668 50.9301 39.2255 50.9301 39.2255C48.776 39.8027 46.8268 40.325 45.1071 40.8611C44.9818 40.3583 44.8408 39.8439 44.695 39.3466C44.6186 39.0848 44.5408 38.8296 44.4646 38.5802C44.651 38.4801 44.8016 38.3864 44.8923 38.315C45.3899 37.9245 45.4729 36.958 45.337 36.1349C45.2012 35.3118 44.5714 34.8814 46.569 34.0011L46.5661 34.0019Z" fill="#A51B42"/>
<path d="M74.6472 76.837C72.3346 76.7289 66.8566 77.9897 63.9026 78.9883C60.9515 79.986 55.4258 81.4666 52.5713 82.4385C49.7167 83.4104 45.2972 83.9736 46.347 85.5618C47.3968 87.1501 48.4622 86.8647 53.8366 85.2176C59.2111 83.5704 66.3816 81.6491 66.3816 81.6491C68.6606 81.2455 73.081 80.6853 74.9619 79.557C76.84 78.4296 76.9627 76.9443 74.6472 76.837Z" fill="#EA1548"/>
<path d="M69.9007 72.2931C63.9956 74.2894 56.9741 76.381 52.7835 77.4004C50.4213 77.9737 47.2432 78.9319 44.5719 79.6979C44.9754 81.0516 45.3365 82.2002 45.6348 83.0676C46.4693 82.869 47.3583 82.6277 48.2892 82.3438C54.0529 80.5924 61.1191 78.2818 65.1166 77.3142C68.3367 76.536 73.3103 75.2191 76.4105 74.3915C76.1726 73.2695 75.8848 72.0197 75.5646 70.6845C73.748 71.0928 71.7818 71.6573 69.8978 72.2939L69.9007 72.2931Z" fill="#EA1548"/>
<path d="M52.8964 70.3058C49.4282 71.2351 45.9171 72.2387 42.618 72.8623C42.9896 74.2025 43.3501 75.4893 43.6945 76.6926C46.6217 75.9334 49.6057 75.1871 50.903 74.8897C53.5601 74.2812 54.9206 74.8515 59.7536 73.3495C64.7832 71.7853 68.745 70.8367 74.0751 69.305C74.4423 69.2003 74.8015 69.1009 75.1623 69.0074C74.8499 67.736 74.5174 66.4135 74.1753 65.0779C71.4094 65.9476 68.6233 66.8353 66.8219 67.4058C62.5538 68.7565 57.1256 69.1726 52.8993 70.3051L52.8964 70.3058Z" fill="#EA1548"/>
<path d="M50.596 64.5889C46.0565 65.8868 43.9026 66.1722 40.9765 66.8182C41.2917 67.9948 41.6062 69.1684 41.9218 70.3229C46.1014 69.1685 54.4281 67.2071 57.8262 66.3907C61.534 65.5008 69.5137 63.8833 72.2708 62.9344C72.702 62.7875 73.1127 62.646 73.5074 62.5152C73.1397 61.108 72.7752 59.7125 72.4205 58.3771C69.9943 59.2029 67.5972 59.9738 65.0825 60.9143C60.1728 62.7505 56.4763 62.9097 50.5931 64.5897L50.596 64.5889Z" fill="#EA1548"/>
<path d="M42.8263 39.1979L42.9153 39.5065C43.4765 39.4001 44.0537 39.283 44.6336 39.1528C44.5753 38.9582 44.5176 38.7666 44.4608 38.578C44.6473 38.4778 44.7979 38.3841 44.8885 38.3128C45.3862 37.9222 45.4691 36.9558 45.3333 36.1327C45.2916 35.8835 45.2086 35.6673 45.1611 35.4667C43.5479 35.7327 41.6632 36.0746 40.1865 36.5456C40.4368 37.749 40.8343 38.6588 41.3977 39.0756C41.7341 39.3243 42.2683 39.316 42.8255 39.1949L42.8263 39.1979Z" fill="#EA1548"/>
<path d="M55.671 34.652C55.7106 34.6477 55.7553 34.6389 55.7978 34.6337C55.8659 34.97 55.951 35.3926 56.0483 35.8496C56.7088 35.6569 57.3538 35.4653 57.9754 35.2799C57.9519 35.1921 57.935 35.1057 57.9115 35.0179C57.9052 34.9944 57.8989 34.971 57.8926 34.9476C57.8621 34.8335 57.8344 34.7185 57.8075 34.6065C57.806 34.6007 57.8044 34.5948 57.8028 34.589C57.7715 34.4719 57.7409 34.3578 57.7124 34.2399C57.7077 34.2224 57.7038 34.2077 57.6991 34.1902C57.9488 34.0919 58.1784 33.977 58.3672 33.8386C59.0095 33.356 59.0522 32.965 58.8316 31.8258C57.4444 32.2445 55.975 32.6727 54.5589 33.0773C54.7782 33.8373 55.1078 34.7277 55.6643 34.6507L55.671 34.652Z" fill="#EA1548"/>
<path d="M43.6276 44.4948C49.5328 42.4985 56.5542 40.4069 60.7448 39.3876C62.2088 39.0329 63.9871 38.5282 65.7659 38.0139C64.6541 36.4987 63.355 35.6423 61.8432 35.994C60.7889 36.2389 59.5801 36.5627 58.3622 36.911C58.3385 36.8107 58.3124 36.7017 58.2879 36.5984C57.6364 36.8012 56.99 36.9995 56.3524 37.1955C56.3775 37.2891 56.3975 37.3873 56.4226 37.4809C53.4771 38.3706 50.9279 39.2293 50.9279 39.2293C48.7738 39.8065 46.8246 40.3288 45.1049 40.8648C45.0608 40.6885 45.0108 40.5136 44.9667 40.3373C44.412 40.4796 43.8426 40.6259 43.274 40.7751L43.4538 41.4108C40.8884 42.3146 38.9671 43.3157 37.8094 44.7081C37.8078 44.7022 37.8012 44.7009 37.7975 44.6987C37.5964 44.4985 36.8281 45.0495 37.0564 45.5153C37.0906 45.5845 37.1289 45.6339 37.1715 45.6758C37.0619 45.8871 36.97 46.1062 36.8901 46.3346C38.9853 45.9238 41.368 45.2634 43.6284 44.4977L43.6276 44.4948Z" fill="#EA1548"/>
<path d="M61.6387 46.2122C63.9918 45.5817 66.3671 44.917 68.6846 44.3525C68.276 43.0849 67.8156 41.8468 67.305 40.7257C65.7769 41.1101 64.4791 41.4296 63.7286 41.6025C60.9897 42.2329 59.594 41.672 54.6059 43.2156C49.4182 44.8221 45.3306 45.8045 39.8307 47.3817C38.6919 47.7088 37.5918 47.9816 36.5479 48.2299C36.5245 49.0675 36.6327 49.9984 36.893 51.0516C36.9924 51.4579 37.1058 51.9043 37.2264 52.3896C40.7836 51.289 44.8857 49.9859 47.2867 49.2297C51.6923 47.8421 57.2815 47.3828 61.6424 46.2143L61.6387 46.2122Z" fill="#EA1548"/>
<path d="M62.9323 52.1989C66.2744 51.2438 68.3241 50.8389 70.3414 50.4301C70.25 50.0657 70.1672 49.7334 70.0939 49.4362C69.9067 48.6676 69.702 47.8567 69.4779 47.0321C65.0403 48.1835 58.5878 49.7055 55.6962 50.3987C51.9885 51.2886 44.0087 52.9061 41.2516 53.855C39.9735 54.2947 38.8632 54.6581 37.8761 54.9665C38.2026 56.2436 38.5668 57.6611 38.955 59.1569C42.1339 58.0259 45.1889 57.0882 48.4399 55.8751C53.3496 54.0389 57.0462 53.8797 62.9294 52.1997L62.9323 52.1989Z" fill="#EA1548"/>
<path d="M71.4926 54.8553C71.3412 54.2905 71.1991 53.7482 71.0632 53.2294C66.1071 54.4476 53.7716 56.6205 50.8001 57.3194C47.6747 58.0533 45.8119 58.863 45.8119 58.863C43.4911 59.4033 41.3283 60.0299 39.3496 60.6762C39.7919 62.3739 40.2621 64.152 40.7383 65.9411C41.2971 65.7317 41.8622 65.5113 42.4389 65.2752C49.7362 62.2816 51.127 62.4265 57.8784 60.0999C64.0635 57.9658 66.743 57.3827 72.0672 55.9812C72.0439 55.6486 71.8803 55.2722 71.4904 54.859L71.4926 54.8553Z" fill="#EA1548"/>
<path d="M75.8456 78.6866C75.8456 78.6866 73.141 77.8648 73.2175 79.6605C73.2961 81.4526 74.3848 83.5135 75.9475 82.825C77.5103 82.1365 75.8456 78.6866 75.8456 78.6866Z" fill="#E3EAFF"/>
<path d="M55.5369 84.1287C55.5369 84.1287 55.8201 87.9488 57.5178 87.7637C59.2154 87.5786 59.1277 85.2494 58.2998 83.6581C57.4719 82.0668 55.5369 84.1287 55.5369 84.1287Z" fill="#E3EAFF"/>
<path d="M56.1158 84.6854C56.1158 84.6854 56.342 87.4261 57.1534 87.2934C57.9677 87.1599 57.3407 84.1878 57.3407 84.1878L56.1158 84.6854Z" fill="#C3CCE2"/>
<path d="M73.4958 79.517C73.4958 79.517 74.3818 82.5075 75.1961 82.374C76.0104 82.2405 74.5359 78.6455 74.5359 78.6455L73.4958 79.517Z" fill="#C3CCE2"/>
<path d="M55.5369 84.1285C55.5369 84.1285 55.6069 85.0571 55.8819 85.9778C56.6683 86.0212 57.7937 85.9831 58.8632 85.5962C58.8148 84.9473 58.609 84.2496 58.2991 83.655C57.4712 82.0637 55.5361 84.1256 55.5361 84.1256L55.5369 84.1285Z" fill="#95A0B5"/>
<path d="M73.2174 79.6605C73.2383 80.16 73.3418 80.6749 73.5063 81.1484C74.2783 81.0325 75.4292 80.8089 76.454 80.3837C76.2279 79.4813 75.8455 78.6866 75.8455 78.6866C75.8455 78.6866 73.1409 77.8648 73.2174 79.6605Z" fill="#95A0B5"/>
<path d="M53.9695 36.5322C43.7025 39.2832 38.0597 40.7952 39.9317 48.3554C41.8038 55.9156 47.6246 78.2245 49.1734 81.6867C50.7214 85.1459 53.6449 86.2227 61.7706 83.5812C69.8992 80.9389 79.9349 79.6426 80.1728 76.4796C80.4106 73.3167 74.5788 52.7109 73.1334 46.7429C71.688 40.7748 69.1151 32.3202 64.8819 33.2977C60.6494 34.278 53.9695 36.5322 53.9695 36.5322Z" fill="#5775F2"/>
<path d="M49.3439 38.9951C46.6225 39.4921 41.6316 42.1846 42.8004 43.5026C43.9691 44.8206 52.6987 40.8503 56.0293 39.9579C59.36 39.0654 66.2884 37.5164 67.4381 37.6161C68.5878 37.7159 67.5873 35.1294 66 34.5321C64.4135 33.9377 52.9445 38.3377 49.3468 38.9943L49.3439 38.9951Z" fill="#7594F9"/>
<path d="M42.8779 46.8475C43.1265 48.4309 47.9914 66.6922 49.1646 71.0706C50.3378 75.449 55.1701 84.3522 53.8507 83.9937C52.5304 83.6322 51.2915 86.618 46.9046 71.7796C42.5207 56.9405 40.7458 48.0337 40.6926 46.3132C40.6394 44.5928 40.7597 43.1333 41.3616 43.4833C41.9665 43.8325 42.449 44.1111 42.8758 46.8513L42.8779 46.8475Z" fill="#4564C9"/>
<path d="M64.5829 35.0968C63.8044 35.3054 62.921 36.2699 64.0983 36.7888C65.2778 37.304 67.4439 36.2563 66.9195 35.669C66.3981 35.081 65.3585 34.889 64.58 35.0976L64.5829 35.0968Z" fill="white"/>
<path d="M67.57 36.3291C67.1825 36.4518 66.8041 37.1586 67.5244 37.3295C68.2475 37.4996 68.5752 36.0065 67.57 36.3291Z" fill="white"/>
<path d="M32.974 61.3147C31.4046 61.0419 30.4448 61.089 30.4979 59.9643C30.5502 58.8367 31.1222 52.9052 31.1945 52.2616C31.2667 51.6181 33.4938 49.2646 33.9035 49.5878C34.3131 49.9109 36.0482 51.9492 36.3211 52.6634C36.5911 53.3784 35.7419 60.0899 35.5763 60.5955C35.4106 61.101 34.7638 61.6256 32.9703 61.3125L32.974 61.3147Z" fill="#5775F2"/>
<path d="M31.8946 54.3828C31.6516 55.8877 30.8715 59.3215 31.4676 59.626C32.0636 59.9306 34.1747 60.7263 34.5921 60.1534C35.0094 59.5804 35.3358 55.6942 35.4341 54.937C35.5323 54.1798 35.0053 53.8285 34.2021 53.6641C33.3982 53.4968 32.1118 53.051 31.8983 54.3849L31.8946 54.3828Z" fill="#E3EAFF"/>
<path d="M32.9935 50.804C32.3412 51.6595 31.1945 52.9172 32.1785 52.8198C33.1587 52.7203 34.5367 52.8404 35.041 53.3295C35.5453 53.8186 35.7249 55.9287 35.5489 56.9107C35.372 57.8897 35.8228 57.6403 35.9397 56.8122C36.0566 55.9841 36.3629 53.4396 36.013 52.8714C35.6632 52.3033 34.5278 50.9575 34.2042 50.4639C33.8805 49.9703 33.2373 50.4846 32.9935 50.804Z" fill="#4564C9"/>
<path d="M32.4089 56.0331C32.3249 56.6328 32.0298 59.5821 32.1469 59.5508C32.264 59.5194 32.3057 58.8557 32.3518 58.2317C32.3987 57.6106 32.6639 56.0715 32.8255 55.2816C32.9901 54.4909 33.0526 53.9283 32.8868 53.9884C32.7218 54.0515 32.4089 56.0331 32.4089 56.0331Z" fill="#95A0B5"/>
<path d="M33.9101 56.2268C33.8261 56.8265 33.531 59.7759 33.6481 59.7445C33.7651 59.7131 33.8069 59.0495 33.853 58.4254C33.8999 57.8043 34.165 56.2652 34.3267 55.4753C34.4883 54.6854 34.5538 54.122 34.388 54.1822C34.2229 54.2452 33.9101 56.2268 33.9101 56.2268Z" fill="#95A0B5"/>
<path d="M33.1369 56.1863C33.053 56.786 32.7579 59.7353 32.8749 59.704C32.992 59.6726 33.0338 59.0089 33.0799 58.3849C33.1267 57.7638 33.3919 56.2247 33.5535 55.4348C33.7152 54.6449 33.7807 54.0815 33.6148 54.1416C33.4498 54.2047 33.1369 56.1863 33.1369 56.1863Z" fill="#95A0B5"/>
<path d="M38.8734 43.2465C38.9771 43.5983 39.469 43.6547 39.6405 43.4519C39.8149 43.2483 39.7798 42.9535 39.54 42.8076C39.237 42.6252 38.7726 42.894 38.8734 43.2465Z" fill="#E3EAFF"/>
<path d="M40.0972 42.815C40.3211 43.2758 40.7258 43.0418 40.9408 42.6266C41.1587 42.2106 41.0206 42.1755 40.8383 41.9985C40.6373 41.7983 39.8689 42.3492 40.0972 42.815Z" fill="#E3EAFF"/>
<path d="M41.6586 41.6061C41.3842 41.6357 40.9822 42.032 41.3063 42.2464C41.6274 42.4614 41.9922 42.348 42.1008 42.0742C42.2102 41.8034 42.0364 41.5645 41.6586 41.6061Z" fill="#E3EAFF"/>
<path d="M42.9116 41.1197C42.6706 41.1216 42.2548 41.4432 42.5118 41.688C42.7658 41.9336 42.806 42.0483 43.1428 41.842C43.4804 41.6386 43.3717 41.1157 42.9116 41.1197Z" fill="#E3EAFF"/>
<path d="M43.6305 41.2974C43.7942 41.5923 43.9519 41.6191 44.1967 41.4437C44.4414 41.2683 44.4546 41.0013 44.206 40.9048C43.8568 40.7725 43.4609 41.0041 43.6276 41.2982L43.6305 41.2974Z" fill="#E3EAFF"/>
<path d="M44.8252 40.9678C44.8992 41.3495 45.3648 41.4129 45.5679 41.2111C45.7703 41.0063 45.8037 40.5456 45.5049 40.4375C45.2232 40.3342 44.7511 40.5861 44.823 40.9715L44.8252 40.9678Z" fill="#E3EAFF"/>
<path d="M46.4724 40.4072C46.3007 40.3403 45.9041 40.4403 45.9567 40.7305C46.0094 41.0206 46.3669 41.3013 46.6298 41.1587C46.8898 41.0168 47.0266 40.6257 46.4724 40.4072Z" fill="#E3EAFF"/>
<path d="M33.5672 50.1357C33.8626 50.3483 34.2902 50.1176 34.3086 49.8586C34.327 49.5996 34.1199 49.3884 33.8381 49.4138C33.4829 49.4462 33.2711 49.9201 33.5665 50.1327L33.5672 50.1357Z" fill="#E3EAFF"/>
<path d="M34.2944 49.1035C34.7518 49.3354 34.936 48.9221 34.863 48.4743C34.7893 48.0235 34.6556 48.075 34.4023 48.0425C34.1165 48.0062 33.8304 48.8702 34.2944 49.1035Z" fill="#E3EAFF"/>
<path d="M34.828 47.2665C34.6223 47.4471 34.541 47.9865 34.9317 47.9696C35.3195 47.9536 35.5475 47.6572 35.4701 47.3799C35.3963 47.1048 35.1097 47.0185 34.828 47.2665Z" fill="#E3EAFF"/>
<path d="M35.5489 46.1638C35.355 46.3067 35.2133 46.7964 35.5698 46.8389C35.9241 46.8851 36.0266 46.9517 36.1757 46.5949C36.3285 46.2403 35.9213 45.8914 35.5489 46.1638Z" fill="#E3EAFF"/>
<path d="M36.4748 45.2411C36.109 45.3391 35.9278 45.7515 36.2424 45.8837C36.5548 46.0195 36.6992 45.9495 36.7937 45.6701C36.8882 45.3907 36.7353 45.1713 36.4748 45.2411Z" fill="#E3EAFF"/>
<path d="M37.2431 44.1161C36.949 44.2012 36.7181 44.674 37.0128 44.9307C37.3045 45.1882 37.7219 44.9665 37.7665 44.688C37.8102 44.4065 37.5517 44.0272 37.2431 44.1161Z" fill="#E3EAFF"/>
<path d="M38.0195 43.5253C37.8351 43.5747 37.5765 43.8856 37.7981 44.0803C38.0197 44.275 38.4815 44.2893 38.6107 44.0225C38.74 43.7557 38.6115 43.3698 38.0225 43.5245L38.0195 43.5253Z" fill="#E3EAFF"/>
<path d="M45.4859 35.157L47.0675 40.7435C47.0675 40.7435 47.4394 42.4476 48.371 41.7682C49.3055 41.0881 47.1439 34.6249 46.6395 33.3862C46.135 32.1474 44.5553 32.6554 45.4822 35.1549L45.4859 35.157Z" fill="#E3EAFF"/>
<path d="M58.6988 31.2716C58.9027 32.1611 59.8289 37.4088 60.6351 37.5378C61.4414 37.6668 62.1635 37.4702 61.5775 34.9672C60.9907 32.4612 60.1643 28.7332 59.5989 28.5428C59.0326 28.3495 58.1771 29.0085 58.6996 31.2745L58.6988 31.2716Z" fill="#E3EAFF"/>
<path d="M46.046 35.9009C46.2318 36.1962 47.1546 41.244 47.7217 41.4873C48.2888 41.7306 47.8118 39.81 47.4081 38.4439C47.0073 37.0769 46.6489 35.341 46.2181 34.8103C45.7872 34.2795 45.7908 35.4988 46.0423 35.8988L46.046 35.9009Z" fill="#C3CCE2"/>
<path d="M59.1384 31.9285C59.3455 32.7012 60.09 36.4165 60.3415 36.8165C60.593 37.2165 61.0209 37.7481 60.9312 36.8749C60.8416 36.0018 59.6027 31.5187 59.3995 30.8893C59.1963 30.2598 58.9322 31.1588 59.1384 31.9285Z" fill="#C3CCE2"/>
<path d="M47.2323 36.6872C47.0929 37.01 48.0792 40.808 48.2751 40.696C48.4709 40.5839 48.266 38.9762 48.0006 38.2318C47.7353 37.4873 47.3306 36.457 47.2323 36.6872Z" fill="white"/>
<path d="M60.6208 34.3703C60.6532 35.0298 60.9663 36.8656 61.2678 36.7849C61.5692 36.7041 61.0663 34.2886 60.8602 33.66C60.6571 33.0305 60.5814 33.5559 60.6208 34.3703Z" fill="white"/>
<path d="M47.7315 36.6538C47.4899 35.834 47.2409 35.0569 47.0307 34.4482C46.4281 34.4936 45.8879 34.585 45.5977 34.7663C45.525 34.8109 45.4641 34.8648 45.4107 34.923C45.4348 35.0013 45.4573 35.0737 45.4859 35.157L46.0016 36.9762C46.4353 36.9792 47.0686 36.9193 47.7315 36.6538Z" fill="#95A0B5"/>
<path d="M58.6989 31.2716C58.7567 31.5227 58.872 32.1286 59.0285 32.8646C59.5986 32.8969 60.3569 32.882 61.0415 32.686C60.7856 31.6253 60.5144 30.5781 60.2558 29.8004L58.5489 29.7402C58.5174 30.1376 58.5515 30.6398 58.6981 31.2687L58.6989 31.2716Z" fill="#95A0B5"/>
<path d="M50.4781 26.8618C46.1136 28.2038 42.7974 29.6068 42.9548 31.7981C43.1122 33.9894 43.5843 35.7513 44.4401 36.3815C45.296 37.0117 47.4304 36.01 47.928 35.6195C48.4257 35.2289 48.5086 34.2625 48.3728 33.4394C48.2369 32.6162 47.6072 32.1859 49.6047 31.3055C51.6031 30.4282 55.0618 29.241 55.7028 29.0693C56.3438 28.8975 57.2743 29.1627 57.4892 29.9646C57.7041 30.7665 58.0475 32.0484 58.7097 31.9557C59.3718 31.863 60.6969 31.6805 61.4133 31.1466C62.1298 30.6127 62.1013 30.1905 61.7938 28.7265C61.4862 27.2624 59.9865 24.2294 56.8636 25.0661C53.7408 25.9029 50.4752 26.8626 50.4752 26.8626L50.4781 26.8618Z" fill="#5775F2"/>
<path d="M56.1664 27.709C54.3344 28.0368 51.7923 28.9218 50.7474 29.2834C49.7024 29.6449 47.1406 31.0654 48.5372 30.939C49.4552 30.853 52.969 29.1806 54.4558 28.7822C55.9425 28.3838 57.2418 28.1988 57.4744 28.9144C57.7061 29.6271 58.0998 31.4007 58.636 31.4233C59.1714 31.4429 59.514 31.188 59.2074 30.0436C58.9007 28.8993 58.005 27.3826 56.173 27.7104L56.1664 27.709Z" fill="#4564C9"/>
<path d="M44.2268 30.8675C43.7776 30.8655 43.2224 31.5444 43.4726 32.1738C43.7672 32.9104 44.2701 35.7589 45.0467 35.9178C45.8233 36.0767 45.4692 34.9074 45.2136 33.9533C44.9579 32.9992 44.6729 30.8703 44.2238 30.8683L44.2268 30.8675Z" fill="#4564C9"/>
<path d="M60.6099 27.2117C60.0212 25.7759 58.6389 25.0421 57.5355 25.3378C56.4321 25.6334 52.9583 26.4011 52.0757 26.7599C51.1931 27.1188 47.527 28.3866 47.527 28.3866C45.7766 29.0187 45.3486 29.7043 45.7938 29.9959C46.2382 30.2847 51.8422 28.1714 53.7067 27.5087C55.5713 26.8459 58.426 26.3665 58.99 26.9494C59.5539 27.5323 60.013 30.3109 60.6245 30.3102C61.236 30.3095 61.2006 28.6438 60.6091 27.2088L60.6099 27.2117Z" fill="#7594F9"/>
<path d="M46.9373 31.0792C46.3693 31.3946 46.0513 32.5024 46.3239 33.3673C46.5972 34.2351 47.0226 35.6707 47.5804 35.3174C48.1382 34.964 47.8975 33.7612 47.8363 33.5329C47.7751 33.3047 47.3587 32.0548 47.4427 31.7594C47.569 31.3178 47.5016 30.7618 46.9344 31.08L46.9373 31.0792Z" fill="#7594F9"/>
<path d="M53.0452 26.5849C52.4745 26.7378 52.1828 27.183 52.7443 27.4403C53.3028 27.6985 55.2971 27.368 55.2307 26.6518C55.1613 25.9363 53.6188 26.4312 53.0481 26.5841L53.0452 26.5849Z" fill="white"/>
<path d="M56.9375 25.7051C56.1499 25.8095 55.0859 26.5683 56.0147 26.6864C56.9435 26.8046 59.4789 26.6553 59.3845 26.1505C59.29 25.6457 58.157 25.5383 56.9368 25.7022L56.9375 25.7051Z" fill="white"/>
<path d="M56.0786 41.8863C47.8369 44.2703 46.7351 46.0587 47.5828 49.8781C48.4298 53.6947 55.3094 75.7638 56.3904 78.8149C57.4714 81.866 57.7973 84.0655 61.9796 82.9448C66.162 81.8242 78.0485 80.5747 77.9002 76.7435C77.7528 72.9152 73.8999 61.8141 72.228 54.263C70.556 46.712 68.3139 38.3444 65.0491 38.9557C61.7843 39.567 56.0757 41.8871 56.0757 41.8871L56.0786 41.8863Z" fill="#6CA1F4"/>
<path d="M59.1016 63.9505C59.1016 63.9505 60.5481 70.3323 61.2238 72.5259C61.8994 74.7195 63.1698 76.8384 68.1745 75.4974C73.1793 74.1564 74.8402 73.7992 74.1775 68.7036C73.5141 63.6052 72.4197 58.5375 71.4743 58.6151C70.529 58.6927 63.2385 61.3489 61.1898 61.8978C59.141 62.4468 58.6303 62.8471 59.1016 63.9505Z" fill="#5775F2"/>
<path d="M60.6795 40.9577C54.6825 42.5646 51.3032 44.797 50.0932 45.2216C48.881 45.6499 48.1793 46.4496 49.212 46.885C50.2483 47.3225 56.3618 44.254 60.1156 43.0443C63.8723 41.8338 67.171 41.9694 66.8225 41.0433C66.471 40.118 66.4854 39.3989 60.6787 40.9548L60.6795 40.9577Z" fill="#8BB7F7"/>
<path d="M64.2066 41.6532C63.6842 42.0567 63.5912 43.4304 65.1291 43.5391C66.6671 43.6477 67.5437 42.0608 66.5824 41.5875C65.6249 41.1163 64.7239 41.2542 64.2066 41.6532Z" fill="white"/>
<path d="M67.5058 43.4764C66.7638 43.2361 66.3478 44.985 67.4363 45.1607C68.5249 45.3364 68.4746 43.7909 67.5058 43.4764Z" fill="white"/>
<path d="M60.1405 64.8422C60.437 66.8739 61.6679 72.7551 62.7186 73.8318C63.7723 74.9078 65.0941 75.4037 66.2823 75.0853C67.4706 74.7669 65.4206 73.4498 65.0077 72.5409C64.5948 71.6321 62.8351 67.6053 62.3556 65.1835C61.8768 62.7646 61.5608 62.8493 60.8255 62.9616C60.0902 63.074 59.9378 63.4536 60.1405 64.8422Z" fill="#4564C9"/>
<path d="M69.0056 60.8513C66.5255 61.406 64.7812 62.8333 65.9506 63.7088C67.12 64.5844 69.249 65.8804 69.516 67.509C69.7822 69.1347 70.9964 72.7179 72.1514 71.6431C73.3063 70.5682 72.7892 65.7819 72.3471 63.1838C71.9051 60.5857 70.9262 60.4213 69.0056 60.8513Z" fill="#7594F9"/>
<path d="M49.2339 48.1026C48.7117 48.5656 48.1571 49.4106 48.9903 52.1454C49.8264 54.8795 54.173 70.3403 54.7513 72.1239C55.3325 73.9068 57.8091 82.0139 58.9642 82.52C60.1193 83.0261 59.6178 81.5293 58.9605 79.4625C58.3032 77.3958 51.4541 53.7312 50.7907 51.2552C50.1272 48.7792 49.7248 47.6636 49.2309 48.1033L49.2339 48.1026Z" fill="#5688D1"/>
<path d="M59.6172 51.4279C56.704 52.2744 52.412 53.8291 52.4905 54.3444C52.569 54.8598 52.5713 55.7344 53.7317 55.2886C54.8921 54.8428 59.2324 53.6798 62.4203 52.5589C65.6074 51.4352 70.5119 49.9893 70.4297 49.4718C70.3512 48.9564 70.1851 48.1257 68.9164 48.6005C67.6477 49.0754 59.6142 51.4287 59.6142 51.4287L59.6172 51.4279Z" fill="#E3EAFF"/>
<path d="M53.304 54.0322C53.1408 54.2077 52.8782 54.5039 53.1428 54.7655C53.4074 55.0272 53.7422 55.0472 53.6924 54.7563C53.6427 54.4653 53.4772 53.8478 53.304 54.0322Z" fill="#95A0B5"/>
<path d="M54.0742 53.7224C54.0742 53.7224 53.8406 54.1269 53.9662 54.4666C54.0925 54.8092 54.4883 55.0105 54.4965 54.6664C54.5076 54.3215 54.3524 53.6134 54.0742 53.7224Z" fill="#95A0B5"/>
<path d="M54.8946 53.4712C54.6539 53.5796 54.6375 53.9165 54.7465 54.1947C54.8556 54.4729 55.2193 54.6829 55.3177 54.4181C55.4162 54.1533 55.2586 53.3078 54.8954 53.4741L54.8946 53.4712Z" fill="#95A0B5"/>
<path d="M55.6499 53.2344C55.4706 53.3264 55.5129 53.6131 55.6834 53.8748C55.8539 54.1365 56.197 54.3865 56.2201 53.9694C56.2461 53.5515 55.9165 53.094 55.6469 53.2352L55.6499 53.2344Z" fill="#95A0B5"/>
<path d="M56.5253 52.9309C56.2677 52.9999 56.4801 53.5233 56.6742 53.7442C56.8712 53.9643 57.1551 53.8883 57.0445 53.4756C56.9339 53.0629 56.8092 52.8548 56.5223 52.9317L56.5253 52.9309Z" fill="#95A0B5"/>
<path d="M57.4415 52.6509C57.157 52.8181 57.1653 53.2707 57.5261 53.4814C57.8897 53.6914 58.1357 53.591 58.0008 53.2162C57.8659 52.8414 57.7639 52.461 57.4386 52.6516L57.4415 52.6509Z" fill="#95A0B5"/>
<path d="M58.1212 52.776C58.2699 53.1785 58.3409 53.4669 58.5547 53.3751C58.7685 53.2833 58.7309 52.8856 58.5983 52.6482C58.4657 52.4108 57.9949 52.4334 58.1212 52.776Z" fill="#95A0B5"/>
<path d="M59.1894 52.0445C59.0262 52.2199 58.7637 52.5161 59.0283 52.7777C59.2929 53.0394 59.6276 53.0594 59.5779 52.7685C59.5281 52.4775 59.3627 51.86 59.1894 52.0445Z" fill="#95A0B5"/>
<path d="M59.9604 51.7375C59.9604 51.7375 59.7268 52.1419 59.8523 52.4816C59.9786 52.8242 60.3745 53.0255 60.3827 52.6814C60.3938 52.3365 60.2386 51.6284 59.9604 51.7375Z" fill="#95A0B5"/>
<path d="M69.9039 48.5869C69.6632 48.6953 69.6468 49.0322 69.7559 49.3104C69.8649 49.5886 70.2286 49.7986 70.327 49.5338C70.4255 49.269 70.2679 48.4235 69.9047 48.5898L69.9039 48.5869Z" fill="#95A0B5"/>
<path d="M69.3808 49.0344C69.2482 48.797 68.7774 48.8197 68.9037 49.1623C69.0524 49.5647 69.1234 49.8531 69.3372 49.7613C69.551 49.6695 69.5134 49.2718 69.3808 49.0344Z" fill="#95A0B5"/>
<path d="M65.0069 50.2128C64.7661 50.3212 64.7497 50.6581 64.8588 50.9363C64.9678 51.2145 65.3315 51.4245 65.43 51.1597C65.5284 50.8949 65.3709 50.0494 65.0076 50.2157L65.0069 50.2128Z" fill="#95A0B5"/>
<path d="M65.7629 49.9787C65.5836 50.0706 65.6259 50.3573 65.7965 50.619C65.9699 50.88 66.31 51.1308 66.3331 50.7136C66.3592 50.2957 66.0295 49.8382 65.76 49.9795L65.7629 49.9787Z" fill="#95A0B5"/>
<path d="M66.6383 49.6751C66.3808 49.7441 66.5932 50.2676 66.7872 50.4885C66.9813 50.7094 67.2681 50.6325 67.1576 50.2198C67.047 49.8072 66.9222 49.5991 66.6354 49.6759L66.6383 49.6751Z" fill="#95A0B5"/>
<path d="M67.5516 49.3959C67.267 49.5631 67.2754 50.0157 67.6361 50.2264C67.9998 50.4364 68.2458 50.336 68.1109 49.9612C67.976 49.5864 67.874 49.2059 67.5487 49.3966L67.5516 49.3959Z" fill="#95A0B5"/>
<path d="M68.7113 49.3927C68.5787 49.1553 68.108 49.1779 68.2343 49.5205C68.3829 49.923 68.4539 50.2114 68.6677 50.1196C68.8815 50.0278 68.844 49.6301 68.7113 49.3927Z" fill="#95A0B5"/>
<path d="M60.78 51.4834C60.5393 51.5918 60.5229 51.9287 60.632 52.2069C60.741 52.4851 61.1047 52.6951 61.2032 52.4303C61.3016 52.1655 61.144 51.32 60.7808 51.4863L60.78 51.4834Z" fill="#95A0B5"/>
<path d="M61.5353 51.2465C61.356 51.3385 61.3983 51.6251 61.5688 51.8869C61.7423 52.1478 62.0824 52.3986 62.1055 51.9815C62.1286 51.5643 61.8019 51.1061 61.5323 51.2473L61.5353 51.2465Z" fill="#95A0B5"/>
<path d="M62.4078 50.9437C62.1502 51.0127 62.3626 51.5361 62.5567 51.757C62.7508 51.9779 63.0376 51.9011 62.927 51.4884C62.8164 51.0757 62.6916 50.8676 62.4048 50.9445L62.4078 50.9437Z" fill="#95A0B5"/>
<path d="M63.324 50.6636C63.0394 50.8308 63.0477 51.2834 63.4085 51.4941C63.7722 51.7041 64.0182 51.6037 63.8832 51.2289C63.7483 50.8541 63.6464 50.4736 63.321 50.6643L63.324 50.6636Z" fill="#95A0B5"/>
<path d="M64.4837 50.6603C64.3511 50.4229 63.8804 50.4455 64.0067 50.7881C64.1553 51.1906 64.2263 51.479 64.4401 51.3872C64.6539 51.2954 64.6164 50.8977 64.4837 50.6603Z" fill="#95A0B5"/>
<path d="M73.6779 51.4559C71.2389 49.8226 69.9356 49.7703 70.174 50.9173C70.4144 52.0605 73.436 54.8144 74.2324 54.532C75.0295 54.2525 75.9682 52.9909 73.6779 51.4559ZM73.7146 53.5948C73.2591 53.651 72.6848 52.7603 73.0658 52.4261C73.2838 52.2328 73.6584 52.1324 74.0442 52.5654C74.43 52.9984 74.1701 53.5386 73.7146 53.5948Z" fill="#E3EAFF"/>
<path d="M70.7835 50.6632C70.4196 50.9677 71.3147 52.4469 71.8312 52.8292C72.3478 53.2115 71.9852 52.6311 72.406 52.258C72.8267 51.8849 73.4378 52.0348 72.8449 51.5663C72.2527 51.1008 71.3343 50.2019 70.7798 50.661L70.7835 50.6632Z" fill="#C3CCE2"/>
</svg>
