<svg width="110" height="110" viewBox="0 0 110 110" fill="none" xmlns="http://www.w3.org/2000/svg">
<rect x="0.517259" y="-0.29864" width="90.7339" height="90.3808" rx="11.584" transform="matrix(-0.965926 -0.258819 -0.258819 0.965926 110.94 23.3888)" fill="#212121"/>
<rect x="0.517259" y="-0.29864" width="90.7339" height="90.3808" rx="11.584" transform="matrix(-0.965926 -0.258819 -0.258819 0.965926 110.94 23.3888)" stroke="#333333" stroke-width="0.84468"/>
<path d="M62.7538 35.032C72.5357 38.6299 77.903 50.8304 76.2724 59.0488C74.6418 67.2671 63.4905 79.6028 48.5608 73.7314C33.6335 67.8613 33.5438 54.529 36.5492 47.1044C39.5547 39.6799 46.586 29.0863 62.7538 35.032Z" fill="#FFEB28"/>
<path d="M24.8855 47.4103C27.2269 47.5603 35.2737 48.2623 35.2737 48.2623C37.0647 48.4514 38.7231 48.564 40.1924 48.6924C41.3106 46.6447 42.4643 44.7151 43.1694 43.5361C42.927 43.1582 42.604 42.7033 42.1233 42.2732C40.8831 41.1668 37.2594 44.321 34.9894 44.1847C32.7194 44.0485 28.3129 37.4324 36.1463 37.5688C42.0114 37.6699 44.5777 39.9081 45.4977 41.0248C45.544 41.0028 45.588 40.9794 45.633 40.9596C46.1306 40.7528 46.6901 40.6396 47.2998 40.6561C47.6896 40.6676 48.1031 40.7386 48.5285 40.8683C48.5491 40.8009 48.5792 40.7329 48.6247 40.6646C48.6689 40.5986 48.7196 40.5425 48.7736 40.4913C48.7736 40.4913 48.7762 40.4867 48.7785 40.488C48.8312 40.4391 48.888 40.3987 48.9504 40.3646C49.7742 39.9099 51.3555 40.6948 53.1056 41.7845C54.6445 42.7431 54.3367 43.2182 53.8034 43.7033C54.577 44.1438 55.3725 44.594 56.1314 45.023C56.399 45.1775 56.6647 45.3248 56.9223 45.4704C57.1691 45.3018 57.4237 45.1408 57.6669 44.9944C57.7638 44.9375 57.8571 44.8816 57.9477 44.8302C58.3229 44.6137 58.6513 44.4464 58.8488 44.3683C59.3074 44.1816 60.4478 44.6631 61.5253 45.2639C63.7876 44.3464 66.4524 43.2282 68.2542 42.0937C71.6119 39.9816 76.4952 37.1764 77.7536 39.4768C79.012 41.7773 83.159 49.7992 83.159 49.7992C86.5858 56.7281 89.901 61.1189 86.2419 63.1668C82.5815 65.217 70.7585 71.6685 69.0584 70.9096C68.4764 70.6498 67.6967 69.4432 66.8243 67.7896C65.7645 69.2396 64.9061 70.3302 64.6165 70.6998C63.8424 71.6865 62.9582 73.2074 57.6824 70.1889C57.5132 70.0912 57.337 69.9895 57.1576 69.8828C57.0432 69.8168 56.9279 69.7471 56.808 69.6749C56.7759 69.6564 56.7462 69.6392 56.7142 69.6207C56.6089 69.5599 56.5014 69.4979 56.3916 69.4345C56.3756 69.4252 56.3596 69.416 56.3436 69.4067C56.0668 69.2469 55.7739 69.0779 55.4684 68.9045C52.8316 67.4065 49.2296 65.4459 45.914 63.4279C45.5448 66.2863 45.0694 68.6259 44.4901 69.0112C43.1056 69.9353 34.8449 68.2619 30.2793 68.002C25.7114 67.7409 20.9543 67.6755 20.8917 66.4314C20.8281 65.1838 22.3145 59.3865 22.3228 55.8378C22.3311 52.2891 22.5468 47.2557 24.8882 47.4057L24.8855 47.4103ZM39.7422 39.3338C36.9174 38.8009 33.2687 39.8269 33.7793 40.9818C34.2876 42.1355 35.9253 42.6906 36.8377 42.1986C37.7501 41.7066 40.2722 40.1857 42.0337 41.2027C42.7726 41.6293 43.3137 42.1766 43.6636 42.6959C43.6716 42.6821 43.6808 42.6661 43.6887 42.6524C43.7455 42.554 43.8082 42.456 43.8768 42.3584C44.0967 42.0461 44.3768 41.7564 44.702 41.5049C44.6292 41.4355 44.5555 41.3624 44.4913 41.2887C43.7796 40.4874 42.5708 39.8657 39.7459 39.3328L39.7422 39.3338Z" fill="#FBAE31"/>
<path d="M42.482 61.8705C43.5694 62.5441 41.4302 66.1436 38.3568 67.7793C35.2821 69.4173 33.4759 67.6272 35.4198 65.2692C37.3638 62.9113 39.4615 60.0016 42.482 61.8705Z" fill="#FBAE31"/>
<path d="M66.8609 43.2235C65.7672 41.6099 70.1697 37.9415 71.9454 36.8682C73.7211 35.7948 75.1484 38.5954 73.3582 40.4016C71.0869 42.6925 67.9559 44.8348 66.8622 43.2212L66.8609 43.2235Z" fill="#FBAE31"/>
<path d="M44.7541 42.2917C43.5316 41.6408 41.8124 39.2086 41.8124 39.2086C40.2995 37.0479 39.2975 35.3652 41.6644 34.1238C44.0335 32.8838 46.7008 38.0535 47.3415 40.0186C47.9811 41.9801 45.9766 42.9427 44.7541 42.2917Z" fill="#FBAE31"/>
<path d="M66.5848 66.9685C68.5319 67.0617 71.1112 70.4237 71.7305 72.5473C72.3498 74.6709 70.0381 74.8552 66.9011 70.7686C65.7156 69.224 64.6363 66.8775 66.5848 66.9685Z" fill="#FBAE31"/>
<path d="M70.6495 56.5258C68.8097 55.5917 68.6166 52.677 71.7254 52.7394C74.8364 52.803 78.8192 54.1356 78.278 56.489C78.0969 57.2781 72.4894 57.4599 70.6509 56.5235L70.6495 56.5258Z" fill="#FBAE31"/>
<path d="M35.5158 47.8958C37.7728 48.3082 42.8239 51.1665 38.4727 51.7503C36.0795 52.0706 31.0105 52.2705 30.7815 50.5064C30.5525 48.7423 33.2589 47.4834 35.5135 47.8945L35.5158 47.8958Z" fill="#FBAE31"/>
<path d="M54.8351 35.4446C54.8988 32.3335 56.2313 28.3507 58.5847 28.892C59.3739 29.0731 59.5556 34.6806 58.6192 36.5191C57.6851 38.3589 54.7705 38.552 54.8328 35.4433L54.8351 35.4446Z" fill="#FBAE31"/>
<path d="M53.8465 68.6971C54.1667 71.0904 54.3666 76.1593 52.6025 76.3884C50.8407 76.6187 49.5796 73.911 49.9906 71.6563C50.403 69.3993 53.2613 64.3483 53.8451 68.6994L53.8465 68.6971Z" fill="#FBAE31"/>
<path d="M46.3064 66.4305C47.5699 66.6353 46.9673 70.7803 44.7561 73.469C42.5414 76.1586 40.1873 75.196 41.0823 72.2721C41.976 69.3506 42.8022 65.8592 46.3078 66.4282L46.3064 66.4305Z" fill="#FBAE31"/>
<path d="M61.6938 39.8742C60.0646 38.8024 62.729 33.7279 63.9582 32.0584C65.1875 30.389 67.5787 32.4284 66.6161 34.7825C65.3954 37.7685 63.3217 40.9483 61.6938 39.8742Z" fill="#FBAE31"/>
<path d="M34.9336 41.1118C36.6461 39.0595 41.0907 42.8151 42.4332 44.3833C43.7758 45.9515 42.2918 47.6081 40.9139 47.4745C39.5361 47.3409 37.0161 45.7517 37.0161 45.7517C34.7921 44.3365 33.221 43.1641 34.9336 41.1118Z" fill="#FBAE31"/>
<path d="M70.5261 61.9172C72.3622 61.2569 76.0316 63.3754 77.4144 65.1011C78.7973 66.8267 76.734 67.8804 72.2731 65.3049C70.5871 64.3315 68.6913 62.5751 70.5261 61.9172Z" fill="#FBAE31"/>
<path d="M70.2849 50.7119C68.227 50.5517 66.932 47.9343 69.8309 46.8017C72.7297 45.6692 76.919 45.3762 77.3192 47.7577C77.4536 48.5552 72.3441 50.8698 70.2862 50.7096L70.2849 50.7119Z" fill="#FBAE31"/>
<path d="M34.5247 56.1847C36.7667 55.7039 42.5291 56.4107 38.7317 58.6136C36.6412 59.8254 32.0391 61.9481 31.1505 60.4071C30.2642 58.8675 32.2828 56.6655 34.5247 56.1847Z" fill="#FBAE31"/>
<path d="M47.6096 37.2877C46.477 34.3889 46.1841 30.1996 48.5656 29.7993C49.363 29.6649 51.6777 34.7744 51.5175 36.8323C51.3573 38.8902 48.7398 40.1852 47.6073 37.2864L47.6096 37.2877Z" fill="#FBAE31"/>
<path d="M59.4214 68.387C60.6332 70.4776 62.7558 75.0797 61.2149 75.9683C59.6739 76.8569 57.4733 74.836 56.9925 72.594C56.5116 70.3521 57.2185 64.5896 59.4214 68.387Z" fill="#FBAE31"/>
<path d="M42.482 61.8703C43.5695 62.5439 41.4303 66.1434 38.3569 67.7791C35.2822 69.417 33.4759 67.6269 35.4199 65.269C37.3638 62.911 39.4616 60.0014 42.482 61.8703Z" fill="#F98232"/>
<path d="M66.8609 43.2233C66.8033 43.1382 66.7637 43.0482 66.7363 42.9531C67.2834 42.6711 67.7965 42.3847 68.2529 42.0961C70.0364 40.9724 72.2515 39.6556 74.1246 39.0106C74.0239 39.4862 73.7829 39.9724 73.3583 40.4013C71.087 42.6923 67.956 44.8346 66.8623 43.221L66.8609 43.2233Z" fill="#F98232"/>
<path d="M44.7543 42.2914C44.5869 42.2009 44.4109 42.0779 44.229 41.9333C44.3719 41.7809 44.5308 41.6378 44.7021 41.5049C44.6293 41.4354 44.5556 41.3623 44.4914 41.2887C44.0646 40.8074 43.4564 40.3922 42.4312 40.023C42.0604 39.5557 41.8126 39.2083 41.8126 39.2083C41.6033 38.9105 41.404 38.6216 41.2221 38.3397C43.6239 39.1194 44.902 40.3026 45.4955 41.0235C45.5418 41.0014 45.5858 40.978 45.6308 40.9582C46.1284 40.7514 46.6879 40.6382 47.2975 40.6547C47.3519 40.6556 47.406 40.6624 47.4613 40.6669C47.5194 42.1829 45.8323 42.865 44.7543 42.2914Z" fill="#F98232"/>
<path d="M66.5848 66.9685C68.0163 67.0355 69.7866 68.8719 70.8732 70.6828C70.0073 70.9515 69.3647 71.0502 69.0557 70.9145C68.4736 70.6547 67.694 69.4481 66.8216 67.7945C66.4761 68.2661 66.1531 68.6988 65.8637 69.0838C65.3351 67.9337 65.282 66.9057 66.5848 66.9685Z" fill="#F98232"/>
<path d="M71.7254 52.7391C74.8365 52.8028 78.8193 54.1354 78.278 56.4887C78.0969 57.2779 72.4894 57.4597 70.6509 56.5232C68.8111 55.5891 68.618 52.6745 71.7267 52.7368L71.7254 52.7391Z" fill="#F98232"/>
<path d="M35.2713 48.2611C35.9417 48.3309 36.582 48.3895 37.2118 48.445C39.4918 49.4198 41.9025 51.2935 38.4749 51.7517C36.0817 52.072 31.0127 52.2719 30.7837 50.5078C30.6386 49.3961 31.6613 48.4859 33.0013 48.0669C34.333 48.1799 35.2736 48.2624 35.2736 48.2624L35.2713 48.2611Z" fill="#F98232"/>
<path d="M53.6899 67.9115C53.2709 67.6757 52.8392 67.4356 52.395 67.1852C52.9225 66.8157 53.406 66.924 53.6899 67.9115Z" fill="#F98232"/>
<path d="M45.4473 66.3706C45.1675 67.7799 44.8485 68.7762 44.486 69.0183C44.1137 69.267 43.2402 69.327 42.0763 69.2773C42.7433 67.6889 43.6945 66.4323 45.4473 66.3706Z" fill="#F98232"/>
<path d="M36.8375 42.1989C37.2192 41.9923 37.8887 41.604 38.6633 41.2979C39.1852 41.5931 39.7049 41.945 40.1915 42.3174C38.5872 42.9194 36.4882 44.2727 34.9847 44.1825C34.9588 44.1797 34.933 44.177 34.9048 44.1729C34.2352 43.4783 33.9767 42.7373 34.456 41.8122C35.172 42.3629 36.1882 42.547 36.8366 42.1953L36.8375 42.1989Z" fill="#F98232"/>
<path d="M40.9139 47.4744C40.9139 47.4744 40.8858 47.4704 40.8717 47.4683C41.4797 46.3888 42.0703 45.3817 42.5603 44.5542C43.6623 46.0689 42.2423 47.6039 40.9139 47.4744Z" fill="#F98232"/>
<path d="M70.5261 61.9169C72.3622 61.2567 76.0316 63.3752 77.4145 65.1009C78.7973 66.8265 76.734 67.8802 72.2731 65.3047C70.5871 64.3313 68.6913 62.5748 70.5261 61.9169Z" fill="#F98232"/>
<path d="M77.318 47.7598C77.4524 48.5572 72.3429 50.8719 70.285 50.7117C68.2271 50.5515 66.9321 47.934 69.8309 46.8015C72.7297 45.6689 76.919 45.376 77.3193 47.7575L77.318 47.7598Z" fill="#F98232"/>
<path d="M34.5247 56.1847C36.7666 55.7039 42.5291 56.4107 38.7317 58.6136C36.6411 59.8254 32.0391 61.9481 31.1505 60.4071C30.2641 58.8675 32.2828 56.6655 34.5247 56.1847Z" fill="#F98232"/>
<path d="M59.4212 68.3869C59.9103 69.2305 60.5466 70.4793 61.0311 71.7321C60.1696 71.4757 59.08 70.996 57.6783 70.1959C57.509 70.0982 57.3329 69.9965 57.1535 69.8899C57.0734 69.8436 56.991 69.7961 56.91 69.7462C57.1275 67.6208 57.9324 65.8253 59.4199 68.3892L59.4212 68.3869Z" fill="#F98232"/>
<path d="M83.4301 47.2165C86.8569 54.1454 90.1721 58.5362 86.513 60.5841C82.8539 62.632 73.4047 67.9833 71.7033 67.2268C70.0019 66.4702 66.846 57.4131 64.364 52.9421C61.882 48.4711 56.5234 45.295 57.6653 44.4901C58.8048 43.6839 65.1713 41.6222 68.5289 39.5101C71.8866 37.3979 76.7699 34.5927 78.0283 36.8932C79.2867 39.1936 83.4337 47.2155 83.4337 47.2155L83.4301 47.2165Z" fill="white"/>
<path d="M82.2578 50.4409C84.6303 55.297 86.555 57.4209 84.6384 58.7911C82.7218 60.1613 72.9706 65.5548 72.2621 64.246C71.5537 62.9372 66.2913 53.1489 64.7359 49.9998C63.1782 46.8494 61.6864 45.5397 63.9524 44.1455C66.2193 42.7549 72.841 40.0505 74.2332 39.3933C75.6266 38.7337 77.0706 40.1316 78.7237 43.1114C80.3791 46.0925 82.2556 50.4396 82.2556 50.4396L82.2578 50.4409Z" fill="#86C3F2"/>
<path d="M79.7676 49.4181C80.2929 51.0177 80.0662 53.5131 78.4184 54.1905C76.7706 54.8679 73.6551 54.6218 72.9414 52.1386C72.2277 49.6555 73.7709 47.8806 75.038 47.3555C76.3028 46.829 79.2571 47.8667 79.7662 49.4204L79.7676 49.4181Z" fill="#FFEB28"/>
<path d="M63.951 44.1479C64.8738 43.5796 66.5221 42.7956 68.2444 42.0209C68.5852 43.1846 69.5353 42.6167 70.3497 42.2786C71.3216 41.879 70.4297 43.8042 70.5313 45.9369C70.6342 48.0674 71.9154 45.8484 72.8716 45.217C73.8279 44.5857 73.6674 46.7867 73.5689 49.3927C73.4705 51.9987 73.8885 52.6854 74.9729 51.8321C76.0572 50.9788 76.4216 51.6315 76.3928 53.9848C76.3676 56.3372 75.8342 58.0271 76.8061 57.6275C77.7781 57.2278 78.5879 57.1036 78.1117 58.8266C77.7644 60.078 78.102 61.2947 78.4645 62.294C75.5301 63.7629 72.6321 64.9416 72.2594 64.2506C71.5509 62.9418 66.2886 53.1535 64.7332 50.0044C63.1755 46.854 61.6836 45.5443 63.9496 44.1501L63.951 44.1479Z" fill="#55A0CE"/>
<path d="M77.059 60.1376C77.1203 61.0881 77.308 63.1668 76.7243 61.869C76.1407 60.5712 76.78 59.9765 75.9789 59.4408C75.1779 58.9051 74.3577 57.7636 74.943 58.0283C75.5306 58.2943 76.9973 59.2144 77.0568 60.1363L77.059 60.1376Z" fill="white"/>
<path d="M74.2654 53.5647C73.6974 52.9531 72.6621 53.0081 72.6843 51.6911C72.7056 50.3704 73.2047 49.2524 72.1131 49.7325C71.0215 50.2126 70.9278 49.8625 70.933 48.8285C70.9383 47.7945 70.8762 47.3896 70.4271 48.1674C69.9781 48.9452 69.496 50.2926 70.4336 50.4649C71.3712 50.6371 72.2484 49.8838 72.0369 51.0215C71.8268 52.1568 71.8996 53.3091 72.7323 53.7899C73.565 54.2707 74.8602 54.204 74.2677 53.5661L74.2654 53.5647Z" fill="white"/>
<path d="M69.0912 46.5085C68.6564 45.4918 70.0684 45.0748 68.9174 44.6329C67.7664 44.191 67.3484 43.5044 67.4301 43.1093C67.5109 42.7106 66.7327 42.7799 66.7275 43.8139C66.7222 44.8479 67.7477 44.9947 68.2781 45.2277C68.8085 45.4607 68.7059 45.7706 68.3533 46.3814C68.0006 46.9922 68.616 48.235 69.0624 47.9743C69.5088 47.7135 69.2177 46.8072 69.0922 46.5121L69.0912 46.5085Z" fill="white"/>
<path d="M73.527 58.69C73.2098 57.5065 74.0692 56.3403 73.4133 55.8121C72.7574 55.284 71.5332 55.0957 71.4737 54.1738C71.4143 53.2518 71.2656 52.8701 70.9459 53.4237C70.6263 53.9773 70.6845 54.9016 71.4538 55.4921C72.2217 56.085 72.9865 55.7853 72.7593 56.6912C72.5322 57.5972 72.3975 59.3678 73.1655 59.9607C73.9335 60.5535 73.74 59.478 73.5292 58.6913L73.527 58.69Z" fill="white"/>
<path opacity="0.41" d="M79.6421 42.4611C79.6421 42.4611 67.2195 60.0047 65.5126 59.2419C63.8057 58.479 62.9207 57.4496 68.3035 50.0494C73.6862 42.6492 77.0165 39.3164 78.0528 40.2106C79.0891 41.1048 80.5121 41.3346 79.6398 42.4598L79.6421 42.4611Z" fill="white"/>
<path opacity="0.41" d="M76.8495 39.2202C76.8495 39.2202 67.76 49.0678 66.6181 50.4064C65.4762 51.745 64.1303 54.0761 63.2744 53.5087C62.4185 52.9414 65.525 48.0733 67.3879 45.7448C69.2507 43.4163 75.0547 38.1077 75.6976 37.8871C76.3404 37.6665 77.2607 38.6401 76.8531 39.2192L76.8495 39.2202Z" fill="white"/>
<path d="M35.5452 45.6736C42.4203 46.3975 47.3253 45.9901 47.1264 49.7368C46.9276 53.4836 46.4983 62.8439 45.1115 63.7666C43.727 64.6906 34.6916 63.5033 30.125 63.2398C25.5585 62.9764 21.9782 62.3307 21.9133 61.0853C21.8497 59.8377 22.5834 56.8024 22.5939 53.255C22.6045 49.7076 22.8179 44.6729 25.1593 44.8229C27.5006 44.973 35.5475 45.6749 35.5475 45.6749L35.5452 45.6736Z" fill="white"/>
<path d="M37.5422 48.1688C42.3484 48.6987 44.8742 48.2598 44.9929 50.3628C45.1117 52.4658 44.5261 62.4191 43.1966 62.3287C41.8707 62.2372 31.9517 61.5342 28.8271 61.2034C25.7011 60.875 23.9965 61.3762 24.028 58.997C24.0596 56.6177 25.1856 50.3195 25.3529 48.952C25.5202 47.5845 27.2687 47.1604 30.3128 47.3348C33.3568 47.5093 37.5422 48.1688 37.5422 48.1688Z" fill="#86C3F2"/>
<path d="M41.1651 52.0477C41.6904 53.6474 41.4637 56.1427 39.8159 56.8201C38.1681 57.4976 35.0527 57.2514 34.339 54.7683C33.6253 52.2851 35.1685 50.5103 36.4356 49.9851C37.7003 49.4586 40.6547 50.4964 41.1638 52.05L41.1651 52.0477Z" fill="#FFEB28"/>
<path d="M30.41 48.9468C32.3553 49.0115 30.6909 49.3743 29.9625 50.4087C29.2341 51.4431 31.4387 50.5991 33.1018 50.2385C34.7662 49.8757 34.5472 50.9419 32.8948 51.9705C31.2425 52.9992 33.0019 53.6184 34.5348 53.7104C36.0678 53.8025 37.672 54.4633 35.9923 55.0796C34.3127 55.696 36.1015 55.8045 37.5174 57.0185C38.9333 58.2326 39.6919 60.1255 37.8637 58.9388C36.0355 57.7521 34.2217 57.2326 34.7978 58.7548C35.3739 60.277 33.8869 59.4184 33.0844 57.369C32.2843 55.321 31.5012 55.5308 31.593 57.4322C31.6835 59.3359 30.3603 60.0269 29.9702 57.9502C29.5823 55.8748 28.8992 52.7047 28.652 54.2793C28.4035 55.8561 29.1225 60.1053 27.8697 57.9271C26.6147 55.7475 27.0286 52.2835 26.382 53.6306C25.7355 54.9776 25.9495 58.2734 25.415 56.9063C24.9197 55.6352 25.4094 53.4503 24.6205 53.7177C24.7235 53.0269 24.8295 52.3468 24.9272 51.7231C25.976 50.9316 28.8392 48.8939 30.4077 48.9454L30.41 48.9468Z" fill="#2A9B24"/>
<path opacity="0.41" d="M31.2579 46.7914C31.2579 46.7914 35.764 55.4751 37.7963 58.3688C39.8286 61.2624 40.0886 63.7917 38.34 63.8406C36.5915 63.8895 32.0349 56.8939 30.4596 53.2088C28.8843 49.5236 28.2133 47.0193 29.2687 46.5702C30.3218 46.1198 30.6652 45.525 31.2565 46.7937L31.2579 46.7914Z" fill="white"/>
<path opacity="0.41" d="M25.6472 47.1215C25.8878 47.3915 34.4858 62.2748 33.2445 63.2785C32.0032 64.2821 29.0895 61.5414 26.9883 58.0803C24.8871 54.6192 24.0754 48.465 24.5337 47.6712C24.992 46.8774 25.6436 47.1224 25.6436 47.1224L25.6472 47.1215Z" fill="white"/>
<path d="M46.2001 39.0634C46.2001 39.0634 44.2476 35.1177 36.4164 34.9826C28.583 34.8461 32.9896 41.4622 35.2595 41.5985C37.5295 41.7347 41.1546 38.5783 42.3934 39.687C43.6322 40.7957 43.8283 42.0832 44.2765 41.7137C44.7234 41.3464 44.0676 39.6348 42.3038 38.6165C40.54 37.5982 38.0179 39.119 37.1078 39.6123C36.1977 40.1057 34.56 39.5505 34.0494 38.3956C33.5411 37.242 37.1888 36.2124 40.0124 36.7476C42.8359 37.2827 44.0461 37.9021 44.7578 38.7034C45.4695 39.5048 46.7699 40.1 46.1942 39.063L46.2001 39.0634Z" fill="#424A56"/>
<path d="M38.7219 39.5533C37.8866 39.6689 36.0093 40.7385 35.4061 40.2987C34.8029 39.8589 33.9121 38.6705 33.6783 39.0754C33.4445 39.4803 34.1966 40.909 34.8022 41.0329C35.4078 41.1568 37.132 40.981 38.0362 40.5086C38.939 40.0385 39.1635 39.4911 38.7219 39.5533Z" fill="#67727F"/>
<path d="M39.9334 36.2874C38.6229 36.0372 35.5487 36.1473 34.5017 36.7141C33.4523 37.2795 33.3098 38.2343 32.8548 37.9289C32.401 37.6212 32.7796 36.2628 33.5038 35.8696C34.228 35.4763 36.4456 35.5396 37.5021 35.4267C38.5586 35.3138 40.7104 35.882 41.3928 36.1845C42.0753 36.487 40.8693 36.4679 39.9356 36.2887L39.9334 36.2874Z" fill="#67727F"/>
<path d="M70.6606 53.2101C70.6606 53.2101 73.4241 50.9594 72.0622 49.99C70.6979 49.0194 68.5158 46.2954 67.2903 47.784C66.0635 49.2749 64.78 50.547 65.7882 51.4952C66.7964 52.4433 69.3062 54.4413 70.6606 53.2101Z" fill="#8E96A8"/>
<path d="M65.6286 51.3174C64.9769 50.4439 66.0015 49.3243 67.0852 48.0284C68.1132 48.5883 69.7862 49.6 71.422 51.0355C71.6896 51.2693 71.8898 51.5038 72.0395 51.7306C71.5144 52.5133 70.6633 53.2054 70.6633 53.2054C70.3139 53.5253 69.8843 53.6249 69.4251 53.5855C68.2327 53.0252 66.6941 52.1186 65.6335 51.3141L65.6286 51.3174Z" fill="#4F5963"/>
<path d="M70.0453 48.5542C71.2075 49.4418 71.5487 49.6907 71.0645 49.832C70.5803 49.9734 68.926 48.8658 68.3164 48.5321C67.7068 48.1985 67.6022 47.8514 67.8682 47.7182C68.1365 47.5864 69.3279 48.0058 70.043 48.5529L70.0453 48.5542Z" fill="#A4ADBC"/>
<path d="M53.5549 41.5925C54.2363 40.8879 55.3994 40.4583 53.3801 39.2009C51.3586 37.9423 49.5636 37.089 48.9006 38.0788C48.2377 39.0686 50.2592 40.3272 51.4945 41.0405C52.7299 41.7537 53.5585 41.5916 53.5585 41.5916L53.5549 41.5925Z" fill="#8E96A8"/>
<path d="M53.5771 40.3182C53.8832 40.5224 54.137 40.6903 54.3497 40.8345C54.1546 41.0878 53.8187 41.3209 53.555 41.5927C53.555 41.5927 52.7286 41.7561 51.491 41.0416C50.2534 40.327 48.2341 39.0697 48.8971 38.0799C48.9855 37.9479 49.0967 37.8504 49.2228 37.7799C50.6027 38.4119 52.6359 39.6925 53.5771 40.3182Z" fill="#4F5963"/>
<path d="M52.3684 38.7451C53.2172 39.2351 53.904 40.0953 53.1808 39.7418C52.4586 39.392 50.8142 38.5737 51.0552 38.3834C51.2962 38.1932 51.8217 38.4295 52.3684 38.7451Z" fill="#A4ADBC"/>
<path d="M63.6088 48.1326C64.2243 47.0665 64.7649 44.8622 63.9206 44.1003C63.0787 43.3397 59.9568 41.4457 59.1198 41.7861C58.2828 42.1264 55.0761 44.0298 55.8227 44.6439C56.567 45.2566 61.8851 48.4185 62.6026 48.9243C63.3179 49.4288 63.371 48.5443 63.6088 48.1326Z" fill="#8E96A8"/>
<path d="M58.2207 42.2496C59.7285 42.9981 62.1349 44.5887 63.3681 45.258C63.7705 45.4751 64.0819 45.6701 64.3291 45.8494C64.2572 46.5339 64.0361 47.2603 63.7745 47.8138C63.3557 47.752 62.8399 47.5518 62.2323 47.2254C62.2323 47.2254 57.5821 44.8456 56.0773 43.7908C56.576 43.2704 57.4879 42.6683 58.2207 42.2496Z" fill="#4F5963"/>
<path d="M60.987 42.5989C62.6596 43.4792 63.5361 44.1377 63.0393 44.3114C62.5411 44.4875 60.6081 43.3714 59.9481 42.7921C59.2905 42.2142 59.6677 41.9043 60.9847 42.5975L60.987 42.5989Z" fill="#A4ADBC"/>
<path d="M60.8208 44.9362C68.3225 49.1606 74.2867 51.6523 72.5413 56.1441C70.7936 60.6346 65.6883 67.0999 64.8876 68.117C64.0892 69.1354 63.1725 70.723 57.4287 67.3001C51.6849 63.8771 36.5852 56.3245 37.4544 52.8061C38.3439 49.205 43.0482 41.654 43.9648 40.0664C44.8814 38.4788 47.2148 37.1845 50.0697 38.8328C52.9247 40.4811 60.8244 44.9353 60.8244 44.9353L60.8208 44.9362Z" fill="#7E8596"/>
<path d="M66.8659 48.3023C71.1541 50.7964 73.7751 52.9716 72.5395 56.1472C70.7919 60.6377 65.6865 67.103 64.8858 68.1201C64.0874 69.1384 63.1708 70.7261 57.4269 67.3031C56.9299 67.007 56.3603 66.6781 55.7387 66.3284L66.8668 48.3059L66.8659 48.3023Z" fill="#67727F"/>
<path d="M43.961 40.0676C44.8763 38.4822 47.2109 37.1857 50.0659 38.834C51.4705 39.6449 54.0959 41.1363 56.4023 42.4404L45.0903 60.1738C40.6454 57.3909 37.0125 54.5858 37.4506 52.8073C38.3401 49.2062 43.0443 41.6552 43.961 40.0676Z" fill="#67727F"/>
<path d="M61.5529 49.9497C62.4502 50.7148 64.4865 52.3389 63.1432 57.7613C61.7977 63.1825 58.8069 63.6397 54.4191 63.3361C50.0313 63.0325 46.647 59.7914 45.9533 57.9024C45.2595 56.0133 45.9671 51.264 47.7868 49.1424C49.6065 47.0208 55.4976 46.353 58.124 47.4728C60.7503 48.5926 61.5529 49.9497 61.5529 49.9497Z" fill="#67727F"/>
<path d="M46.2006 58.4358C46.0982 58.2485 46.0141 58.0719 45.9533 57.9026C45.2595 56.0135 45.9671 51.2642 47.7868 49.1426C48.8226 47.9349 51.1781 47.1993 53.4981 46.9954L46.2006 58.4358Z" fill="#4F5963"/>
<path d="M57.5811 63.3377L63.547 53.6754C63.6534 54.7221 63.5666 56.0506 63.1409 57.76C62.1506 61.7575 60.2609 63.0548 57.5798 63.34L57.5811 63.3377Z" fill="#4F5963"/>
<path d="M51.2328 43.5489C50.7943 44.3084 50.1184 44.3697 49.0181 43.7344C47.9177 43.0991 45.8772 42.1955 46.0675 41.3903C46.2579 40.5852 47.0014 39.4558 48.3634 40.4252C49.7277 41.3958 51.0316 42.1487 51.0316 42.1487C51.0316 42.1487 51.7073 42.7218 51.2318 43.5453L51.2328 43.5489Z" fill="#424A56"/>
<path d="M68.0896 62.5021C67.0686 64.2704 64.6158 68.7778 62.5227 68.7101C60.4297 68.6425 56.9427 66.7787 56.9155 65.9699C56.886 65.1599 61.4083 65.4893 62.9577 64.6971C64.5071 63.9048 67.2368 60.7195 68.3059 58.9576C69.3727 57.1943 69.9617 59.27 68.0941 62.5047L68.0896 62.5021Z" fill="#4F5963"/>
<path d="M43.8345 56.3316C44.9352 57.3361 45.2313 58.3764 44.6173 58.6686C44.0033 58.9607 40.8272 56.7274 40.1649 56.2474C39.5016 55.7638 37.8266 53.8573 38.1874 52.9736C38.5481 52.0899 41.9193 54.5823 43.8332 56.3339L43.8345 56.3316Z" fill="#4F5963"/>
<path d="M54.7975 42.5784C54.7937 42.622 54.7971 42.6636 54.7956 42.7085C54.7851 43.3765 54.6952 44.1451 53.728 43.4006C52.6975 42.6074 48.7662 40.1394 47.8848 39.78C47.0011 39.4193 46.3129 39.6655 45.7739 40.3456C45.2325 41.0244 42.8518 45.7503 42.1064 45.6677C41.361 45.5851 43.603 41.871 44.0392 41.0309C44.4754 40.1908 45.9536 38.3173 47.6719 38.5163C49.3924 38.7166 50.2073 39.5348 51.955 40.5439C53.7028 41.5529 54.8473 42.0642 54.7961 42.5807L54.7975 42.5784Z" fill="#7E8596"/>
<path d="M51.1637 44.1494C51.1637 44.1494 50.7452 45.0486 49.7128 44.602C48.6804 44.1554 46.819 42.8306 46.7417 43.1337C46.6666 43.438 48.8689 44.859 49.7836 45.3352C50.6969 45.8137 51.4952 45.0332 51.9456 44.2531C52.396 43.473 51.918 43.0964 51.1637 44.1494Z" fill="#7E8596"/>
<path d="M49.2803 41.5738C50.1164 42.1755 49.0011 43.3465 48.4429 43.0242C47.8847 42.7019 48.9285 41.3219 49.2803 41.5738Z" fill="white"/>
<path d="M48.0729 40.828C48.4722 41.1561 48.45 42.2352 47.7366 42.2717C47.0231 42.3082 46.5451 41.9315 46.5574 41.3926C46.5696 40.8537 47.4683 40.3325 48.0716 40.8302L48.0729 40.828Z" fill="white"/>
<path d="M66.4231 53.1583C67.1167 53.394 67.7263 54.3774 66.8212 55.5965C65.916 56.8155 64.3648 55.4502 64.2605 54.5848C64.1572 53.7229 65.3026 52.7798 66.4231 53.1583Z" fill="#4F5963"/>
<path d="M68.8129 54.001C68.9135 54.3763 68.5428 55.0499 68.0396 54.7593C67.5363 54.4687 67.6634 53.6728 68.0099 53.5374C68.3565 53.402 68.6853 53.5247 68.8129 54.001Z" fill="#4F5963"/>
<path d="M59.1349 47.4709C63.541 49.8348 64.1043 54.0948 62.5662 58.9777C61.0281 63.8607 52.5793 63.7441 49.1991 60.237C45.819 56.7299 46.6071 52.512 48.233 49.6959C49.8589 46.8798 54.6574 45.0719 59.1335 47.4732L59.1349 47.4709Z" fill="#8E96A8"/>
<path d="M61.4345 56.3786C61.5012 57.4359 60.5635 61.1099 56.6963 61.2624C52.8267 61.4135 50.1111 59.6718 49.5836 59.0745C49.0548 58.4794 49.1691 59.5916 50.0524 60.2754C50.9379 60.9605 53.1198 61.8146 55.3551 62.1748C57.5903 62.535 60.2127 61.316 61.3715 59.7157C62.528 58.1141 62.6776 55.6414 62.3325 54.6277C61.9874 53.6141 61.3776 55.4734 61.4368 56.3799L61.4345 56.3786Z" fill="#67727F"/>
<path d="M61.0611 53.1951C61.0611 53.1951 60.7921 50.5387 58.7859 49.3803C56.7796 48.222 56.9884 47.76 57.6377 47.8451C58.2871 47.9302 60.1661 48.6064 61.1152 50.0847C62.0644 51.563 62.5122 53.5082 61.848 53.6494C61.1839 53.7907 61.0634 53.1964 61.0634 53.1964L61.0611 53.1951Z" fill="#67727F"/>
<path d="M53.0724 48.2926C53.0724 48.2926 50.4814 48.9501 49.0896 51.8678C47.6943 54.7865 48.2688 56.5121 48.579 56.984C48.8891 57.4559 48.3868 57.9193 48.0157 57.3573C47.6424 56.7941 47.0508 54.9976 47.7678 52.8524C48.4824 50.7059 49.0188 49.6765 50.2045 48.7323C51.3902 47.788 53.6231 47.0427 54.0968 47.4321C54.5705 47.8215 53.7693 47.9995 53.0733 48.2962L53.0724 48.2926Z" fill="#A4ADBC"/>
<path d="M58.8684 50.1568C60.6435 51.874 61.0295 55.6168 59.393 58.6098C57.7565 61.6027 51.7791 60.5339 49.8438 57.8579C47.9072 55.1842 49.9731 50.972 51.3846 49.9537C52.796 48.9354 56.0487 47.4277 58.8697 50.1545L58.8684 50.1568Z" fill="#424A56"/>
<path d="M59.6541 55.9332C59.549 56.6594 59.6941 59.3877 56.4009 59.7558C53.1055 60.1225 51.1893 58.6074 50.9127 57.5754C50.6362 56.5434 53.3286 57.924 54.2167 57.7962C55.1049 57.6685 57.1882 58.2917 57.6152 56.4428C58.0422 54.5938 58.0013 52.6517 58.6323 52.6682C59.2633 52.6848 59.8096 54.8608 59.6564 55.9345L59.6541 55.9332Z" fill="#67727F"/>
<path d="M57.9688 50.5948C58.3903 50.9846 58.5316 52.1399 57.4924 52.1225C56.4555 52.1064 55.2595 52.8678 55.329 53.9572C55.3998 55.0443 53.2848 57.1967 51.7101 55.5921C50.1367 53.9852 50.664 51.9623 51.6758 50.9177C52.6854 49.8718 55.7662 48.5667 57.9688 50.5948Z" fill="#8E96A8"/>
<path d="M55.5932 50.6784C56.197 51.2862 54.3063 53.3089 53.242 52.2308C52.179 51.1504 53.0824 50.3939 53.9566 50.0843C54.8332 49.7759 55.1881 50.2706 55.5896 50.6793L55.5932 50.6784Z" fill="white"/>
<path d="M52.2566 52.1257C52.8438 52.1811 52.4045 53.782 51.7117 53.6718C51.0189 53.5615 50.9315 52.0012 52.2566 52.1257Z" fill="white"/>
</svg>
