<svg width="112" height="111" viewBox="0 0 112 111" fill="none" xmlns="http://www.w3.org/2000/svg">
<rect x="23.875" y="-0.517259" width="90.8447" height="90.8447" rx="11.584" transform="rotate(15 23.875 -0.517259)" fill="#212121"/>
<rect x="23.875" y="-0.517259" width="90.8447" height="90.8447" rx="11.584" transform="rotate(15 23.875 -0.517259)" stroke="#333333" stroke-width="0.84468"/>
<path d="M59.2001 34.0518C48.9298 32.2767 38.1813 40.1591 35.4843 48.0916C32.7873 56.0242 36.2767 72.2829 52.1419 74.663C68.0044 77.043 74.7482 65.5417 75.8577 57.6091C76.9671 49.6766 76.1747 36.9866 59.2001 34.0518Z" fill="#FFEB28"/>
<path d="M85.8058 63.706C83.7032 62.6652 76.3835 59.2497 76.3835 59.2497C74.7378 58.518 73.2453 57.7863 71.9087 57.1629C71.9641 54.8304 71.9298 52.5824 71.9087 51.2088C72.3075 51.0028 72.8147 50.7703 73.4461 50.6382C75.0732 50.3001 76.6344 54.8436 78.6684 55.8606C80.7024 56.8776 87.8266 53.3511 80.9745 49.5526C75.8446 46.7076 72.503 47.3627 71.1479 47.8699C71.1188 47.8276 71.0924 47.7854 71.0634 47.7457C70.7358 47.3178 70.3079 46.9401 69.7717 46.6495C69.4283 46.4646 69.0347 46.3193 68.6014 46.2189C68.6173 46.1502 68.6252 46.0763 68.6199 45.9944C68.6147 45.9151 68.5988 45.8412 68.5777 45.7699C68.5777 45.7699 68.5777 45.7646 68.575 45.7646C68.5539 45.6959 68.5248 45.6325 68.4879 45.5717C68.0018 44.7661 66.2399 44.6551 64.1795 44.7238C62.3674 44.7846 62.3965 45.3499 62.6157 46.0367C61.7255 46.0314 60.8115 46.0235 59.9398 46.0155C59.6308 46.0155 59.327 46.0102 59.0311 46.0076C58.9017 45.7382 58.7617 45.4714 58.6243 45.2231C58.5689 45.1253 58.516 45.0302 58.4632 44.9404C58.2466 44.5653 58.0458 44.2563 57.9137 44.0898C57.61 43.6989 56.3816 43.5457 55.148 43.5272C53.6476 41.6015 51.8989 39.3007 50.9057 37.4173C49.054 33.9093 46.2275 29.0383 43.9875 30.4013C41.7475 31.7644 34.1451 36.638 34.1451 36.638C27.7129 40.9253 22.6464 43.0702 24.7914 46.6733C26.9363 50.279 33.9496 61.7776 35.8014 61.9705C36.4353 62.0365 37.7138 61.3814 39.2961 60.3856C39.489 62.1712 39.6871 63.5448 39.7531 64.0098C39.9301 65.2513 39.9354 67.0106 46.0136 67.0343C46.2091 67.0343 46.4124 67.0343 46.6211 67.0317C46.7532 67.0317 46.8879 67.029 47.0279 67.0264C47.0649 67.0264 47.0993 67.0264 47.1362 67.0264C47.2577 67.0264 47.3819 67.0264 47.5087 67.0264C47.5272 67.0264 47.5457 67.0264 47.5642 67.0264C47.8838 67.0264 48.2219 67.0264 48.5732 67.029C51.6057 67.0502 55.7054 67.1532 59.5859 67.0634C58.4764 69.7234 57.7183 71.9872 58.0273 72.6106C58.7643 74.1031 66.755 76.7843 70.8388 78.842C74.9253 80.8998 79.0778 83.2217 79.7541 82.1757C80.4329 81.127 82.0443 75.3631 83.8115 72.2857C85.5787 69.2083 87.9085 64.7415 85.8058 63.7007V63.706ZM76.9778 49.2831C79.6907 50.2341 82.3375 52.947 81.3179 53.6919C80.3009 54.4368 78.605 54.0987 78.0608 53.2164C77.5167 52.3341 76.0929 49.756 74.0589 49.756C73.2057 49.756 72.4634 49.9594 71.9007 50.2341C71.9007 50.2182 71.9007 50.1997 71.9007 50.1839C71.9007 50.0703 71.8955 49.9541 71.8849 49.8352C71.8506 49.4548 71.7528 49.0639 71.597 48.6835C71.6947 48.6597 71.7951 48.6333 71.8875 48.6016C72.9045 48.2635 74.2623 48.3295 76.9752 49.2805L76.9778 49.2831Z" fill="#FBAE31"/>
<path d="M63.3368 67.4306C62.0583 67.4703 62.1111 71.6571 63.9549 74.6104C65.7987 77.5662 68.258 76.9191 67.7535 73.9051C67.249 70.8911 66.8871 67.3223 63.3368 67.4306Z" fill="#FBAE31"/>
<path d="M51.5476 39.0923C53.3015 38.2417 51.323 32.8636 50.3219 31.0462C49.3207 29.2288 46.6845 30.9405 47.3316 33.3998C48.1532 36.5195 49.7936 39.9403 51.5476 39.0897V39.0923Z" fill="#FBAE31"/>
<path d="M71.1585 49.3388C72.5426 49.3864 75.2476 48.1396 75.2476 48.1396C77.6382 47.0248 79.3473 46.0686 77.9182 43.8101C76.4865 41.5515 71.5917 44.695 70.0543 46.0765C68.5196 47.4554 69.7743 49.2913 71.1585 49.3388Z" fill="#FBAE31"/>
<path d="M39.9142 59.7941C38.1814 58.9013 34.2666 60.5232 32.6685 62.0527C31.0703 63.5821 32.9802 64.8976 37.7402 62.927C39.5391 62.1821 41.6471 60.6896 39.9142 59.7941Z" fill="#FBAE31"/>
<path d="M41.6153 48.7182C43.6757 48.8292 45.3003 46.4016 42.5769 44.9012C39.8508 43.4008 35.7353 42.5634 35.0273 44.8721C34.7896 45.6461 39.5549 48.6073 41.6153 48.7156V48.7182Z" fill="#FBAE31"/>
<path d="M76.357 58.8112C74.1962 58.0399 68.3928 57.9897 71.869 60.6708C73.7815 62.1448 78.0714 64.8524 79.1518 63.4392C80.2322 62.026 78.5178 59.5825 76.3597 58.8112H76.357Z" fill="#FBAE31"/>
<path d="M65.8516 38.3687C67.352 35.6426 68.1894 31.5271 65.8807 30.8191C65.1067 30.5814 62.1455 35.3467 62.0372 37.4071C61.9263 39.4676 64.3539 41.0921 65.8543 38.3687H65.8516Z" fill="#FBAE31"/>
<path d="M50.0815 67.6605C48.6076 69.573 45.9 73.8629 47.3132 74.9433C48.7238 76.0237 51.1699 74.3093 51.9412 72.1512C52.7125 69.9904 52.7627 64.1869 50.0815 67.6632V67.6605Z" fill="#FBAE31"/>
<path d="M57.7447 69.4675C56.5481 69.0132 54.9975 72.9042 55.5681 76.3382C56.1413 79.7748 58.6613 80.1182 59.3481 77.1386C60.0349 74.1615 61.0651 70.7249 57.7447 69.4649V69.4675Z" fill="#FBAE31"/>
<path d="M57.6971 38.7753C59.6439 38.6617 59.8737 32.9348 59.6439 30.8744C59.4141 28.814 56.3235 29.3846 55.9801 31.9046C55.5442 35.1009 55.7503 38.8915 57.6971 38.7753Z" fill="#FBAE31"/>
<path d="M80.2533 53.2273C79.7963 50.5936 74.0694 51.6238 72.1226 52.3107C70.1758 52.9975 70.6328 55.1741 71.8928 55.7473C73.1528 56.3205 76.1298 56.2043 76.1298 56.2043C78.7635 56.0907 80.7103 55.8609 80.2533 53.2273Z" fill="#FBAE31"/>
<path d="M39.0266 53.4489C37.7666 51.9591 33.5296 51.9591 31.4692 52.7621C29.4088 53.5651 30.6688 55.5093 35.8198 55.5093C37.7666 55.5093 40.2867 54.9361 39.0266 53.4489Z" fill="#FBAE31"/>
<path d="M44.838 43.8655C46.7003 44.7557 49.1306 43.1364 47.1864 40.7062C45.2422 38.276 41.7606 35.9277 40.2233 37.79C39.7082 38.4134 42.9757 42.9727 44.838 43.8629V43.8655Z" fill="#FBAE31"/>
<path d="M73.0709 66.4851C71.3698 64.9478 66.0259 62.6787 68.2131 66.4851C69.4177 68.5799 72.3419 72.7192 73.8819 71.829C75.4193 70.9388 74.7721 68.0225 73.0709 66.4851Z" fill="#FBAE31"/>
<path d="M71.1876 43.5775C73.6178 41.6334 75.9661 38.1518 74.1038 36.6144C73.4804 36.0993 68.9211 39.3669 68.0309 41.2292C67.1407 43.0915 68.76 45.5217 71.1902 43.5775H71.1876Z" fill="#FBAE31"/>
<path d="M45.4086 64.6044C43.3139 65.809 39.1746 68.7332 40.0648 70.2732C40.955 71.8132 43.8712 71.1634 45.4086 69.4622C46.946 67.7611 49.2151 62.4172 45.4086 64.6044Z" fill="#FBAE31"/>
<path d="M63.3368 67.4304C62.0583 67.47 62.1111 71.6569 63.9549 74.6101C65.7987 77.566 68.258 76.9188 67.7535 73.9048C67.249 70.8908 66.8871 67.3221 63.3368 67.4304Z" fill="#F98232"/>
<path d="M51.5476 39.0921C51.6401 39.0472 51.7193 38.9891 51.7906 38.9204C51.4578 38.4027 51.1567 37.8981 50.9057 37.42C49.9231 35.5551 48.663 33.3071 47.3634 31.812C47.2128 32.2743 47.1785 32.8158 47.3317 33.3996C48.1532 36.5192 49.7936 39.9401 51.5476 39.0895V39.0921Z" fill="#F98232"/>
<path d="M71.1584 49.3385C71.3486 49.3438 71.5626 49.3253 71.7924 49.291C71.7449 49.0876 71.6788 48.8842 71.5969 48.6834C71.6947 48.6597 71.7951 48.6332 71.8875 48.6015C72.4977 48.3982 73.2321 48.3427 74.3045 48.5355C74.8593 48.3163 75.2476 48.1393 75.2476 48.1393C75.5778 47.9861 75.8947 47.8355 76.1932 47.6823C73.7234 47.1566 72.0249 47.5423 71.1505 47.8698C71.1215 47.8276 71.095 47.7853 71.066 47.7457C70.7384 47.3178 70.3105 46.94 69.7743 46.6494C69.7267 46.623 69.6765 46.6019 69.6263 46.5781C68.818 47.8619 69.9381 49.2963 71.1584 49.3385Z" fill="#F98232"/>
<path d="M39.9142 59.794C38.6409 59.1363 36.1896 59.8416 34.3431 60.8665C34.9586 61.5322 35.4658 61.939 35.8013 61.976C36.4352 62.042 37.7138 61.3869 39.296 60.391C39.3594 60.9722 39.4228 61.5084 39.4809 61.9865C40.5138 61.2548 41.0738 60.391 39.9142 59.794Z" fill="#F98232"/>
<path d="M42.5769 44.9009C39.8508 43.4005 35.7353 42.5632 35.0273 44.8719C34.7896 45.6458 39.5549 48.607 41.6153 48.7153C43.6757 48.8263 45.3003 46.3987 42.5769 44.8983V44.9009Z" fill="#F98232"/>
<path d="M76.3861 59.2497C75.7706 58.975 75.1868 58.7056 74.6136 58.4388C72.1517 58.1429 69.1271 58.5603 71.8664 60.6709C73.7789 62.1449 78.0688 64.8525 79.1491 63.4392C79.8307 62.549 79.4001 61.2494 78.4491 60.2165C77.2393 59.6486 76.3834 59.2497 76.3834 59.2497H76.3861Z" fill="#F98232"/>
<path d="M50.6099 67.0582C51.0907 67.0635 51.5847 67.0714 52.0945 67.0767C51.8224 66.4929 51.3496 66.345 50.6099 67.0582Z" fill="#F98232"/>
<path d="M58.5186 69.8452C58.0564 71.2056 57.8345 72.2279 58.0273 72.6188C58.2254 73.0204 58.9519 73.509 59.9847 74.0479C60.2013 72.3388 60.0058 70.775 58.5186 69.8452Z" fill="#F98232"/>
<path d="M78.0607 53.2168C77.8336 52.847 77.4479 52.1761 76.9302 51.5236C76.3305 51.5183 75.7045 51.5632 75.0969 51.6425C76.1852 52.9659 77.3264 55.1874 78.6736 55.861C78.6973 55.8716 78.7211 55.8822 78.7475 55.8927C79.6747 55.6259 80.2691 55.1135 80.3166 54.0727C79.4211 54.1916 78.449 53.8429 78.0634 53.2142L78.0607 53.2168Z" fill="#F98232"/>
<path d="M71.8928 55.7471C71.8928 55.7471 71.9192 55.7577 71.9325 55.763C71.9457 54.5241 71.9377 53.3565 71.9272 52.395C70.2154 53.1558 70.6777 55.1951 71.8928 55.7471Z" fill="#F98232"/>
<path d="M39.0266 53.4486C37.7666 51.9588 33.5296 51.9588 31.4692 52.7618C29.4088 53.5649 30.6688 55.509 35.8198 55.509C37.7666 55.509 40.2867 54.9358 39.0266 53.4486Z" fill="#F98232"/>
<path d="M40.2233 37.7924C39.7082 38.4158 42.9757 42.9751 44.838 43.8653C46.7003 44.7555 49.1306 43.1362 47.1864 40.706C45.2422 38.2758 41.7606 35.9274 40.2233 37.7897V37.7924Z" fill="#F98232"/>
<path d="M73.0709 66.4851C71.3698 64.9478 66.0259 62.6787 68.2131 66.4851C69.4177 68.5799 72.3419 72.7192 73.8819 71.829C75.4193 70.9388 74.7721 68.0225 73.0709 66.4851Z" fill="#F98232"/>
<path d="M45.4087 64.6045C44.5634 65.0906 43.3879 65.854 42.3419 66.6966C43.2162 66.9053 44.3996 67.0347 46.0136 67.0427C46.2091 67.0427 46.4125 67.0427 46.6212 67.04C46.7136 67.04 46.8087 67.04 46.9038 67.0374C47.7782 65.0879 47.9789 63.1305 45.4087 64.6072V64.6045Z" fill="#F98232"/>
<path d="M35.2016 34.2659C28.7695 38.5531 23.703 40.6981 25.8479 44.3012C27.9928 47.9042 33.5005 57.2632 35.3522 57.4587C37.2039 57.6542 44.4655 51.3884 48.8505 48.7574C53.2355 46.1265 59.4642 46.0551 58.8778 44.7872C58.294 43.5193 53.8113 38.5505 51.9596 35.0425C50.1079 31.5346 47.2814 26.6635 45.0414 28.0266C42.8014 29.3896 35.199 34.2633 35.199 34.2633L35.2016 34.2659Z" fill="white"/>
<path d="M34.6046 37.6443C30.1219 40.6636 27.3932 41.5406 28.3679 43.6855C29.3427 45.8305 35.0907 55.377 36.3586 54.5978C37.6266 53.8185 47.078 47.9728 49.9996 46.0233C52.9238 44.0738 54.8706 43.6855 53.6053 41.3451C52.3373 39.0073 47.955 33.3544 47.078 32.0891C46.201 30.8212 44.2516 31.3099 41.33 33.0639C38.4058 34.8179 34.6073 37.6443 34.6073 37.6443H34.6046Z" fill="#86C3F2"/>
<path d="M37.2726 38.0039C36.0179 39.1266 34.9665 41.4009 36.0549 42.8115C37.1432 44.2221 39.9643 45.5667 41.824 43.773C43.6836 41.9794 43.2346 39.6707 42.3999 38.5824C41.5678 37.4941 38.4904 36.9156 37.2726 38.0065V38.0039Z" fill="#FFEB28"/>
<path d="M53.6053 41.348C53.0902 40.3944 52.0547 38.8913 50.9505 37.3593C50.0735 38.1966 49.5346 37.2298 48.9984 36.5298C48.3565 35.6977 48.1663 37.811 47.012 39.6072C45.8576 41.4008 45.8576 38.8385 45.3452 37.8136C44.8327 36.7887 43.8712 38.7751 42.6534 41.0812C41.4357 43.3873 40.7304 43.7729 40.2179 42.4918C39.7054 41.2106 39.0636 41.5937 37.9118 43.6461C36.7575 45.696 36.3745 47.4262 35.7326 46.5941C35.0907 45.762 34.4514 45.2496 34.0023 46.9798C33.6774 48.2371 32.7767 49.1221 31.9631 49.8062C33.7699 52.5455 35.6903 55.0154 36.3586 54.6033C37.6265 53.824 47.078 47.9783 49.9996 46.0288C52.9238 44.0793 54.8706 43.691 53.6053 41.3506V41.348Z" fill="#55A0CE"/>
<path d="M34.2586 48.6415C33.7303 49.4339 32.5284 51.1404 33.6827 50.3083C34.8371 49.4762 34.5809 48.6415 35.5424 48.5781C36.5039 48.5147 37.7851 47.9362 37.1458 47.8728C36.5039 47.8094 34.7737 47.8728 34.2612 48.6415H34.2586Z" fill="white"/>
<path d="M39.9643 44.346C40.762 44.1003 41.6311 44.6656 42.2703 43.5139C42.9122 42.3595 43.039 41.1418 43.7443 42.1033C44.4496 43.0648 44.7058 42.8086 45.2183 41.9105C45.7308 41.0123 45.987 40.6927 45.987 41.5908C45.987 42.489 45.7308 43.8969 44.8326 43.5773C43.9345 43.2576 43.5515 42.1667 43.1658 43.2576C42.7802 44.346 42.1409 45.3075 41.1794 45.3075C40.2179 45.3075 39.1295 44.6022 39.9616 44.346H39.9643Z" fill="white"/>
<path d="M47.9734 40.8221C48.8583 40.1591 47.844 39.0919 49.0617 39.2847C50.2795 39.4776 50.9848 39.0919 51.1116 38.7089C51.241 38.3232 51.8803 38.7723 51.3678 39.6704C50.8554 40.5685 49.8938 40.1829 49.318 40.1195C48.7421 40.0561 48.6761 40.3757 48.6761 41.081C48.6761 41.7863 47.5217 42.555 47.2655 42.1059C47.0093 41.6569 47.7146 41.0176 47.9708 40.8248L47.9734 40.8221Z" fill="white"/>
<path d="M38.0412 49.1538C38.9077 48.2873 38.7465 46.8477 39.5786 46.7183C40.4107 46.5888 41.5651 47.0379 42.0775 46.2692C42.59 45.5005 42.9096 45.2443 42.9096 45.8835C42.9096 46.5228 42.3971 47.2941 41.4356 47.4209C40.4741 47.5503 39.9616 46.9084 39.7054 47.8066C39.4492 48.7047 38.6805 50.3055 37.719 50.4349C36.7574 50.5643 37.4627 49.7296 38.0386 49.1538H38.0412Z" fill="white"/>
<path opacity="0.41" d="M40.8598 32.0418C40.8598 32.0418 42.8462 53.4463 44.7059 53.6391C46.5655 53.8319 47.8467 53.3829 46.8852 44.2827C45.9236 35.1826 44.7059 30.6312 43.3613 30.8874C42.0168 31.1437 40.6696 30.6312 40.8624 32.0418H40.8598Z" fill="white"/>
<path opacity="0.41" d="M44.8987 30.631C44.8987 30.631 47.8467 43.7041 48.1663 45.4343C48.4859 47.1645 48.4859 49.8562 49.5108 49.7928C50.5358 49.7294 50.2795 43.9603 49.8305 41.0123C49.3814 38.0644 47.0093 30.565 46.5629 30.0526C46.1165 29.5401 44.8327 29.9231 44.8961 30.6284L44.8987 30.631Z" fill="white"/>
<path d="M77.4426 56.8723C71.1266 54.0616 67.0824 51.2563 65.3813 54.6005C63.6801 57.9447 59.3717 66.2656 60.1114 67.7581C60.8484 69.2505 69.267 72.74 73.3534 74.7952C77.4399 76.8503 80.8634 78.0812 81.5422 77.0352C82.2211 75.9865 83.1034 72.991 84.868 69.9136C86.6325 66.8362 88.965 62.3693 86.8623 61.3285C84.7596 60.2878 77.4399 56.8723 77.4399 56.8723H77.4426Z" fill="white"/>
<path d="M74.4655 58.0345C70.0383 56.0903 68.0704 54.4473 66.916 56.2092C65.7616 57.9711 61.2921 66.8837 62.4888 67.4701C63.6827 68.0539 72.6244 72.4045 75.4957 73.6804C78.3671 74.9589 79.5928 76.2453 80.7551 74.1691C81.9173 72.0928 84.0913 66.0754 84.6302 64.8074C85.1691 63.5395 83.8668 62.2979 81.1434 60.927C78.4199 59.556 74.4655 58.0345 74.4655 58.0345Z" fill="#86C3F2"/>
<path d="M69.3885 59.5825C68.1337 60.7052 67.0824 62.9795 68.1707 64.3901C69.259 65.8007 72.0802 67.1453 73.9398 65.3517C75.7995 63.558 75.3504 61.2493 74.5157 60.161C73.6836 59.0727 70.6062 58.4942 69.3885 59.5852V59.5825Z" fill="#FFEB28"/>
<path d="M80.2532 62.2745C78.5362 61.3578 79.7962 62.5043 79.9098 63.7643C80.0234 65.0243 78.5362 63.1911 77.2762 62.0473C76.0162 60.9009 75.6728 61.9337 76.5894 63.6507C77.506 65.3677 75.6728 65.0243 74.2992 64.3375C72.9256 63.6507 71.2059 63.4209 72.3523 64.7945C73.4988 66.1681 71.8954 65.3677 70.0621 65.7111C68.2289 66.0545 66.6255 67.3145 68.8021 67.2009C70.9787 67.0874 72.8093 67.5444 71.5493 68.5746C70.2893 69.6048 72.0063 69.6048 73.7259 68.2312C75.443 66.8575 76.0162 67.4308 74.986 69.0315C73.9558 70.635 74.7561 71.895 76.1324 70.2916C77.506 68.6881 79.6826 66.2843 79.1094 67.7715C78.5362 69.2614 75.789 72.5818 77.963 71.3218C80.1396 70.0617 81.5132 66.8549 81.3996 68.3447C81.2861 69.8346 79.4528 72.5818 80.5993 71.6652C81.6638 70.8119 82.3321 68.6749 82.8816 69.301C83.1378 68.6512 83.3861 68.0093 83.6133 67.4202C83.1008 66.2104 81.64 63.0141 80.2559 62.2745H80.2532Z" fill="#2A9B24"/>
<path opacity="0.41" d="M80.5966 59.984C80.5966 59.984 72.3523 65.2513 69.1455 66.7411C65.9386 68.2309 64.4488 70.2913 65.9386 71.208C67.4285 72.1246 74.8723 68.3445 78.0792 65.9407C81.286 63.5369 83.1193 61.7037 82.4298 60.7871C81.743 59.8704 81.743 59.1836 80.5966 59.9867V59.984Z" fill="white"/>
<path opacity="0.41" d="M85.2905 63.0752C84.9471 63.1888 70.0594 71.7791 70.6326 73.2689C71.2058 74.7588 75.0994 73.8421 78.6497 71.8953C82.1999 69.9485 85.98 65.0247 85.98 64.108C85.98 63.1914 85.2932 63.0778 85.2932 63.0778L85.2905 63.0752Z" fill="white"/>
<path d="M71.5202 45.8201C71.5202 45.8201 75.1841 43.3793 82.0336 47.1778C88.8858 50.9764 81.7615 54.5028 79.7275 53.4858C77.6935 52.4688 76.1324 47.9227 74.5052 48.2635C72.878 48.6043 72.0644 49.6213 71.861 49.0771C71.6576 48.5356 73.0814 47.3812 75.118 47.3812C77.1547 47.3812 78.5785 49.9594 79.12 50.8416C79.6615 51.7239 81.3574 52.062 82.377 51.3171C83.394 50.5722 80.7498 47.8567 78.0369 46.9084C75.3241 45.9601 73.9663 45.8914 72.9493 46.2295C71.9323 46.5676 70.5085 46.4329 71.5255 45.8227L71.5202 45.8201Z" fill="#424A56"/>
<path d="M77.7516 49.9836C78.4173 50.5014 79.5082 52.3663 80.2505 52.2871C80.9928 52.2078 82.3585 51.624 82.3585 52.0916C82.3585 52.5591 80.9928 53.4203 80.4064 53.2248C79.8199 53.0293 78.4146 52.015 77.8678 51.1538C77.321 50.2953 77.4003 49.7089 77.7516 49.9836Z" fill="#67727F"/>
<path d="M78.3354 46.5496C79.5954 46.9881 82.2026 48.6205 82.8261 49.6349C83.4521 50.6492 83.0981 51.5474 83.6449 51.5104C84.1917 51.4708 84.5431 50.1051 84.1125 49.4024C83.6819 48.6998 81.7298 47.6458 80.8713 47.0198C80.0128 46.3937 77.8652 45.8099 77.1229 45.7307C76.3807 45.6514 77.4347 46.2379 78.3328 46.5496H78.3354Z" fill="#67727F"/>
<path d="M43.2635 45.8413C43.2635 45.8413 41.9956 42.5103 43.6598 42.3518C45.3266 42.1933 48.5783 40.9253 48.8953 42.8272C49.2123 44.7318 49.6878 46.4752 48.3406 46.7922C46.9934 47.1092 43.8209 47.5847 43.2635 45.8413Z" fill="#8E96A8"/>
<path d="M48.5677 46.7181C49.5689 46.2875 49.2413 44.8056 48.9507 43.1414C47.7805 43.1124 45.8258 43.152 43.6914 43.5773C43.3427 43.646 43.0522 43.749 42.8091 43.8705C42.8725 44.8109 43.2635 45.8358 43.2635 45.8358C43.4061 46.2875 43.7284 46.5886 44.1458 46.7841C45.4586 46.8951 47.2443 46.8792 48.5651 46.7128L48.5677 46.7181Z" fill="#4F5963"/>
<path d="M46.1243 42.1168C44.6741 42.3043 44.2541 42.3492 44.6028 42.7137C44.9515 43.0783 46.9379 42.9462 47.6327 42.9621C48.3274 42.9779 48.5915 42.7296 48.4278 42.4813C48.2613 42.233 47.0198 42.0005 46.127 42.1168H46.1243Z" fill="#A4ADBC"/>
<path d="M63.8862 44.333C63.6484 43.382 62.856 42.4284 65.2334 42.3492C67.6134 42.2699 69.5946 42.4284 69.6738 43.6171C69.7531 44.8058 67.373 44.8851 65.9466 44.8851C64.5202 44.8851 63.8835 44.3303 63.8835 44.3303L63.8862 44.333Z" fill="#8E96A8"/>
<path d="M64.5042 43.2183C64.137 43.2421 63.8333 43.2605 63.577 43.279C63.6193 43.596 63.7936 43.9658 63.8861 44.333C63.8861 44.333 64.5201 44.8877 65.9491 44.8877C67.3782 44.8877 69.7556 44.8085 69.6764 43.6198C69.6658 43.4613 69.6182 43.3213 69.5443 43.1971C68.0333 43.0545 65.6322 43.147 64.5042 43.2183Z" fill="#4F5963"/>
<path d="M66.3375 42.4602C65.3575 42.4602 64.3325 42.8617 65.1356 42.9172C65.9359 42.9753 67.7692 43.0889 67.6556 42.8036C67.542 42.5183 66.9688 42.4602 66.3375 42.4602Z" fill="#A4ADBC"/>
<path d="M51.9094 44.9699C51.9094 43.7389 52.5434 41.5596 53.6555 41.3219C54.7649 41.0841 58.4156 41.0049 58.9703 41.7181C59.525 42.4313 61.3503 45.6831 60.3967 45.8416C59.4458 46.0001 53.2593 46.0793 52.3849 46.1585C51.5132 46.2378 51.9094 45.4453 51.9094 44.9699Z" fill="#8E96A8"/>
<path d="M59.5171 42.5689C57.8371 42.4632 54.9578 42.6376 53.5551 42.6006C53.0981 42.5874 52.731 42.6006 52.4272 42.6323C52.1472 43.261 51.9755 44.0006 51.9253 44.6108C52.3189 44.7667 52.8657 44.8512 53.5551 44.8723C53.5551 44.8723 58.7722 45.1365 60.6028 44.9754C60.4311 44.2753 59.9424 43.298 59.5171 42.5689Z" fill="#4F5963"/>
<path d="M56.9468 41.4883C55.0581 41.4144 53.9698 41.5464 54.3132 41.9453C54.6566 42.3468 56.8887 42.3468 57.7499 42.1751C58.6084 42.0034 58.4367 41.5464 56.9495 41.4883H56.9468Z" fill="#A4ADBC"/>
<path d="M55.9219 43.596C47.3131 43.5035 40.9021 42.6793 40.1677 47.442C39.436 52.2048 40.6247 60.3566 40.8096 61.6377C40.9919 62.9189 40.9919 64.7521 47.6776 64.6597C54.3634 64.5672 71.2165 65.5763 72.2229 62.0947C73.2531 58.5313 72.9546 49.6398 72.9546 47.8066C72.9546 45.9733 71.581 43.6858 68.2843 43.6858C64.9877 43.6858 55.9193 43.5933 55.9193 43.5933L55.9219 43.596Z" fill="#7E8596"/>
<path d="M49.0037 43.4885C44.0429 43.5044 40.6854 44.0776 40.1677 47.4456C39.436 52.2083 40.6247 60.3601 40.8096 61.6412C40.9919 62.9224 40.9919 64.7556 47.6776 64.6632C48.2561 64.6552 48.9139 64.6552 49.6271 64.6632L49.001 43.4912L49.0037 43.4885Z" fill="#67727F"/>
<path d="M72.9572 47.8095C72.9572 45.9789 71.5836 43.6887 68.2869 43.6887C66.665 43.6887 63.6457 43.6676 60.9963 43.6438L61.9261 64.6573C67.1669 64.4698 71.7157 63.8569 72.2255 62.0977C73.2557 58.5342 72.9572 49.6428 72.9572 47.8095Z" fill="#67727F"/>
<path d="M52.7811 47.5717C51.6215 47.7856 49.046 48.1739 47.498 53.5416C45.9527 58.9092 48.3143 60.8005 52.266 62.7315C56.2178 64.6625 60.7692 63.5477 62.3145 62.2587C63.8598 60.9696 65.6217 56.5027 65.1066 53.7555C64.5915 51.0083 59.8235 47.4845 56.9891 47.1411C54.1547 46.7977 52.7811 47.5717 52.7811 47.5717Z" fill="#67727F"/>
<path d="M61.8336 62.5969C62.0159 62.486 62.177 62.3751 62.3144 62.2588C63.8597 60.9698 65.6216 56.5029 65.1065 53.7557C64.8133 52.1919 63.1412 50.3772 61.234 49.0405L61.8336 62.5969Z" fill="#4F5963"/>
<path d="M49.5267 61.152L49.1913 49.8013C48.5758 50.6545 47.9867 51.8485 47.5007 53.5417C46.3595 57.4987 47.3475 59.5671 49.5267 61.1546V61.152Z" fill="#4F5963"/>
<path d="M64.9189 47.1887C64.9189 48.0657 65.4737 48.4566 66.7442 48.4566C68.0148 48.4566 70.2337 48.6943 70.4715 47.9019C70.7092 47.1094 70.63 45.7596 68.9658 45.9181C67.299 46.0766 65.7933 46.0766 65.7933 46.0766C65.7933 46.0766 64.9216 46.2351 64.9216 47.186L64.9189 47.1887Z" fill="#424A56"/>
<path d="M40.844 55.174C40.844 57.2159 40.7145 62.3458 42.561 63.3338C44.4074 64.3217 48.3592 64.4511 48.7871 63.7643C49.2177 63.0775 45.1365 61.1016 44.1908 59.6409C43.2451 58.1801 42.4738 54.0566 42.4289 51.9962C42.3866 49.9358 40.8387 51.4389 40.8387 55.174H40.844Z" fill="#4F5963"/>
<path d="M64.9348 61.9576C63.4793 62.2773 62.7027 63.0301 63.0884 63.5901C63.474 64.1501 67.3413 63.8041 68.1549 63.7196C68.9711 63.6324 71.3749 62.8188 71.5043 61.8731C71.6338 60.9274 67.4681 61.4003 64.9348 61.9603V61.9576Z" fill="#4F5963"/>
<path d="M62.3171 44.5657C62.2986 44.6053 62.2748 44.6396 62.2537 44.6793C61.9288 45.263 61.6224 45.9736 62.8322 45.8125C64.1213 45.6408 68.7598 45.4691 69.7029 45.5985C70.6485 45.728 71.1214 46.2853 71.2482 47.1438C71.3776 48.0023 71.0765 53.2854 71.7633 53.5866C72.4501 53.8877 72.3656 49.5503 72.4078 48.6046C72.4501 47.6589 72.1067 45.2974 70.5191 44.6106C68.9289 43.9238 67.8142 44.2249 65.796 44.2249C63.7779 44.2249 62.5311 44.0955 62.3171 44.5683V44.5657Z" fill="#7E8596"/>
<path d="M64.6786 47.7433C64.6786 47.7433 64.5914 48.7312 65.7088 48.8606C66.8262 48.9901 69.1005 48.7735 69.016 49.0746C68.9288 49.3757 66.3111 49.5052 65.2809 49.4603C64.2507 49.418 63.9495 48.3429 63.9495 47.4421C63.9495 46.5414 64.5518 46.4542 64.6786 47.7433Z" fill="#7E8596"/>
<path d="M67.5976 46.4541C66.5727 46.5572 66.9531 48.1289 67.5976 48.1289C68.2421 48.1289 68.0282 46.4119 67.5976 46.4541Z" fill="white"/>
<path d="M69.016 46.412C68.5062 46.4966 67.9858 47.4422 68.5855 47.8306C69.1851 48.2189 69.7874 48.1317 70.0462 47.6589C70.3051 47.186 69.7874 46.2852 69.016 46.4147V46.412Z" fill="white"/>
<path d="M46.9591 47.9154C46.2406 47.7728 45.221 48.3196 45.3953 49.8279C45.5697 51.3362 47.5957 50.9294 48.1188 50.232C48.6391 49.5373 48.1188 48.1479 46.9591 47.9154Z" fill="#4F5963"/>
<path d="M44.4682 47.4502C44.1934 47.7249 44.1776 48.4936 44.7587 48.4936C45.3399 48.4936 45.6278 47.7407 45.3954 47.4502C45.1629 47.1596 44.8169 47.1015 44.4682 47.4502Z" fill="#4F5963"/>
<path d="M56.1147 46.6338C51.1169 46.4779 48.4991 49.8855 47.3897 54.8834C46.2802 59.8812 53.6554 64.0046 58.3362 62.6574C63.0171 61.3102 64.4435 57.2634 64.4435 54.0116C64.4435 50.7599 61.1918 46.7949 56.1147 46.6364V46.6338Z" fill="#8E96A8"/>
<path d="M49.6693 53.1982C49.0829 54.0804 48.058 57.7311 51.3309 59.7968C54.6064 61.8624 57.8291 61.7119 58.5845 61.4583C59.34 61.2073 58.6849 62.1134 57.5781 62.264C56.4687 62.4145 54.152 62.0632 52.0361 61.2575C49.9203 60.4519 48.2587 58.085 48.0553 56.1197C47.8546 54.1544 48.9614 51.9382 49.7671 51.2329C50.5727 50.5276 50.1712 52.4427 49.6667 53.1982H49.6693Z" fill="#67727F"/>
<path d="M51.5845 50.6279C51.5845 50.6279 53.1456 48.4618 55.4622 48.4618C57.7789 48.4618 57.8291 47.9573 57.2242 47.7063C56.6193 47.4554 54.6539 47.1014 53.0928 47.9071C51.5316 48.7128 50.1712 50.1735 50.6758 50.6279C51.1803 51.0822 51.5818 50.6279 51.5818 50.6279H51.5845Z" fill="#67727F"/>
<path d="M60.9541 50.3767C60.9541 50.3767 62.8692 52.2416 62.6156 55.4643C62.3647 58.6897 61.0043 59.8968 60.4997 60.1504C59.9952 60.404 60.1986 61.0565 60.8009 60.7554C61.4058 60.4542 62.8164 59.1942 63.2681 56.9779C63.7224 54.7617 63.7726 53.602 63.2179 52.1915C62.6632 50.7809 61.102 49.019 60.4971 49.1193C59.8922 49.2197 60.4971 49.7744 60.9514 50.3794L60.9541 50.3767Z" fill="#A4ADBC"/>
<path d="M55.0026 49.0929C52.6067 49.6925 50.401 52.7409 50.3217 56.1511C50.2425 59.5613 55.9535 61.6244 58.9675 60.2745C61.9815 58.9274 62.2985 54.2465 61.5853 52.659C60.8721 51.0714 58.809 48.1393 55.0026 49.0902V49.0929Z" fill="#424A56"/>
<path d="M51.4338 53.7027C51.1617 54.3842 49.6719 56.6744 52.3399 58.6397C55.0105 60.605 57.4275 60.2511 58.183 59.4956C58.9385 58.7401 55.9165 58.5895 55.2112 58.0348C54.5059 57.4801 52.3901 56.9782 52.9448 55.1634C53.4995 53.3487 54.5059 51.6872 53.9512 51.386C53.3965 51.0849 51.8353 52.6962 51.4312 53.7027H51.4338Z" fill="#67727F"/>
<path d="M55.5626 49.9222C55.0026 50.049 54.3026 50.9789 55.2113 51.4834C56.1173 51.9879 56.7724 53.2453 56.1675 54.154C55.5626 55.0601 56.3181 57.9816 58.4842 57.3793C60.6502 56.7744 61.205 54.7589 60.851 53.3483C60.4997 51.9377 58.4842 49.2671 55.5626 49.9222Z" fill="#8E96A8"/>
<path d="M57.5781 51.1822C56.7513 51.4067 57.3774 54.1037 58.8382 53.7022C60.2989 53.2981 59.8948 52.1913 59.2925 51.486C58.6876 50.7807 58.1329 51.0316 57.5808 51.1848L57.5781 51.1822Z" fill="white"/>
<path d="M59.7441 54.1038C59.2079 53.8582 58.7879 55.4642 59.443 55.7152C60.0981 55.9661 60.9539 54.6586 59.7441 54.1038Z" fill="white"/>
</svg>
