<svg width="111" height="111" viewBox="0 0 111 111" fill="none" xmlns="http://www.w3.org/2000/svg">
<rect x="23.1567" y="-0.504349" width="91.4194" height="91.4194" rx="11.2949" transform="rotate(15 23.1567 -0.504349)" fill="#212121"/>
<rect x="23.1567" y="-0.504349" width="91.4194" height="91.4194" rx="11.2949" transform="rotate(15 23.1567 -0.504349)" stroke="#333333" stroke-width="0.823598"/>
<path d="M52.1757 36.2444C45.6734 36.2881 34.9761 38.0545 28.7894 50.1056C22.6028 62.1567 26.8482 80.0381 45.3323 86.0289C63.8164 92.0198 75.0669 78.4278 78.174 67.3373C81.2811 56.2468 76.0319 36.0837 52.1769 36.2413L52.1757 36.2444Z" fill="#2A9B24"/>
<path d="M70.1522 82.4995C70.2287 79.1885 68.4284 56.1649 69.288 46.1738C69.9593 38.3604 67.7379 35.8289 65.6695 35.04C64.9468 34.5295 63.8402 33.9585 62.1532 33.3827C57.1051 31.6675 40.5425 33.7225 37.6105 35.3767C34.6798 37.0278 32.4056 48.7218 33.9324 67.6189C35.2895 84.4132 38.002 89.4873 42.9125 90.3092C43.7808 90.7122 44.6098 90.8497 45.3216 90.8843C48.0026 91.0188 62.7053 89.9214 65.0413 89.7677C67.3761 89.6172 70.0757 85.8106 70.1522 82.4995Z" fill="#1B6815"/>
<path d="M61.9077 65.6095C63.48 63.1356 62.7723 60.4334 61.6407 59.3131C60.509 58.1929 60.6651 55.7954 63.1696 56.9688C63.8617 57.2923 66.3302 59.813 65.127 65.1607C63.925 70.5054 57.5831 72.309 55.7954 69.5179C54.0088 66.7236 60.3329 68.0896 61.9095 65.6138L61.9077 65.6095Z" fill="#5AC652"/>
<path d="M60.4038 72.58C63.3292 72.1703 65.9259 68.9024 66.7963 66.3226C69.5879 58.0748 63.1217 54.3523 64.376 52.7762C65.6303 51.2002 68.9863 55.8428 70.1113 58.5469C71.2362 61.2511 71.1386 68.5737 66.0005 73.255C60.8624 77.9364 55.9774 75.6381 55.7367 73.9649C55.496 72.2916 57.4741 72.9917 60.4007 72.5788L60.4038 72.58Z" fill="#5AC652"/>
<path d="M57.0732 78.0413C58.4472 78.0913 60.9088 77.8079 64.4809 76.7571C68.0518 75.7094 70.8715 70.4954 71.7277 68.4925C75.0458 60.718 70.4521 55.6391 69.4134 54.2621C68.3748 52.8851 65.1807 49.742 67.9517 48.9861C70.7226 48.2303 75.3752 56.4837 75.9001 58.7108C76.8949 62.9578 76.1327 70.1891 71.1707 75.9396C66.2087 81.6901 59.9393 82.5108 57.8702 82.0718C55.801 81.6328 55.7065 77.9907 57.0763 78.0425L57.0732 78.0413Z" fill="#5AC652"/>
<path d="M41.4542 57.632C41.9721 54.7468 44.3224 53.2373 45.9137 53.1791C47.505 53.1208 49.0133 51.2508 46.3758 50.4186C45.6474 50.1881 42.1241 50.3718 39.3889 55.1221C36.6548 59.8692 40.1008 65.4903 43.3062 64.6466C46.5129 63.7999 40.9339 60.5234 41.4499 57.6339L41.4542 57.632Z" fill="#5AC652"/>
<path d="M37.8415 63.78C35.966 61.4978 36.2676 57.3348 37.3737 54.8469C40.9035 46.887 48.1825 48.5255 48.3265 46.5164C48.4705 44.5073 42.8574 45.6517 40.1987 46.8801C37.54 48.1085 32.6539 53.5635 33.2657 60.4874C33.8775 67.4114 39.0285 69.0274 40.3385 67.959C41.6485 66.8906 39.7188 66.0665 37.8446 63.7812L37.8415 63.78Z" fill="#5AC652"/>
<path d="M36.5919 70.053C35.5468 69.1595 33.9271 67.2843 32.0098 64.0925C30.0912 60.9037 31.5463 55.1575 32.2723 53.1038C35.0941 45.1358 41.9135 44.5082 43.6102 44.1981C45.3069 43.888 49.7856 43.7374 48.2581 41.3051C46.7306 38.8727 37.7186 41.7966 35.8244 43.0802C32.2168 45.5322 27.8818 51.37 27.6401 58.9615C27.3983 66.5531 31.4565 71.4017 33.2765 72.4796C35.0964 73.5574 37.6319 70.941 36.5888 70.0518L36.5919 70.053Z" fill="#5AC652"/>
<path d="M65.1251 65.1564C66.3271 59.8117 63.8598 57.2879 63.1677 56.9644C60.662 55.7942 60.5059 58.1916 61.6388 59.3088C62.7705 60.4291 63.4781 63.1312 61.9058 65.6052C60.3334 68.0791 54.0051 66.715 55.7916 69.5092C57.5782 72.3034 63.92 70.4999 65.1232 65.1521L65.1251 65.1564Z" fill="#2A9B24"/>
<path d="M66.0036 73.2562C67.6315 71.7758 68.7502 70.0254 69.4877 68.2442C69.3091 64.4513 69.1465 60.361 69.0815 56.5517C67.6007 54.0911 65.3546 51.5499 64.376 52.7762C63.1217 54.3523 69.5848 58.0736 66.7963 66.3226C65.9228 68.9012 63.3293 72.1703 60.4038 72.58C57.4784 72.9898 55.4992 72.2928 55.7398 73.966C55.9805 75.6392 60.8655 77.9375 66.0036 73.2562Z" fill="#2A9B24"/>
<path d="M69.0523 53.8138C69.0465 52.1429 69.0638 50.5596 69.1138 49.1213C68.703 48.9468 68.3075 48.889 67.9474 48.9879C65.4477 49.6709 67.8034 52.2977 69.0523 53.8138Z" fill="#2A9B24"/>
<path d="M69.6849 72.1908C68.3574 74.1564 66.5466 76.1514 64.484 76.7584C60.9131 77.8061 58.4503 78.0925 57.0763 78.0426C55.7022 77.9926 55.801 81.6329 57.8702 82.0718C59.7702 82.477 65.2243 81.8137 69.9485 77.2317C69.8702 75.7469 69.7788 74.039 69.6849 72.1908Z" fill="#2A9B24"/>
<path d="M41.4542 57.632C41.9721 54.7468 44.3224 53.2373 45.9137 53.1791C47.505 53.1208 49.0133 51.2508 46.3758 50.4186C45.6474 50.1881 42.1241 50.3718 39.3888 55.1221C36.6548 59.8692 40.1008 65.4903 43.3062 64.6466C46.5129 63.7999 40.9339 60.5234 41.4499 57.6339L41.4542 57.632Z" fill="#2A9B24"/>
<path d="M37.8415 63.7801C35.966 61.4979 36.2676 57.3349 37.3737 54.847C40.9035 46.8871 48.1825 48.5256 48.3265 46.5165C48.4705 44.5074 42.8574 45.6518 40.1987 46.8802C38.0363 47.8806 34.4013 51.6761 33.4495 56.7824C33.457 58.5862 33.5061 60.4849 33.6038 62.4882C34.9205 67.7147 39.1703 68.9113 40.3397 67.956C41.6497 66.8876 39.72 66.0635 37.8458 63.7782L37.8415 63.7801Z" fill="#2A9B24"/>
<path d="M36.5918 70.0531C35.9086 69.4686 34.9769 68.4585 33.8758 66.9392C33.8939 67.1678 33.9081 67.3877 33.9262 67.6163C34.075 69.4609 34.2398 71.1546 34.4246 72.7238C35.9719 72.5769 37.4257 70.7642 36.5887 70.0519L36.5918 70.0531Z" fill="#2A9B24"/>
<path d="M43.6133 44.1993C45.31 43.8891 49.7887 43.7386 48.2612 41.3062C46.7337 38.8739 37.7217 41.7978 35.8275 43.0814C35.2928 43.4445 34.7384 43.8858 34.1858 44.3956C33.93 46.1324 33.7313 48.0987 33.6017 50.2814C36.8317 44.9773 42.14 44.4679 43.6102 44.198L43.6133 44.1993Z" fill="#2A9B24"/>
<path d="M70.9365 35.1038C70.9365 35.1038 71.0985 33.3876 66.0473 31.6712C60.9993 29.956 44.4367 32.0109 41.5047 33.6651C38.5739 35.3163 36.2997 47.0103 37.8265 65.9074C39.3532 84.8045 42.5973 88.8639 48.7513 88.7236C54.9054 88.5834 69.7308 86.7406 69.7308 86.7406C69.7308 86.7406 72.8879 85.8102 73.0844 80.4235C73.2808 75.0368 71.5584 36.111 70.9353 35.1069L70.9365 35.1038Z" fill="#616670"/>
<path d="M58.945 32.685C48.6975 32.4829 42.6666 33.9289 40.9767 39.0405C39.2868 44.152 38.9305 63.7546 40.5288 75.6155C42.1271 87.4764 46.5304 89.0401 49.2113 89.1746C51.8923 89.3091 66.595 88.2117 68.9311 88.058C71.2659 87.9075 73.9654 84.1009 74.0419 80.7898C74.1185 77.4788 72.3181 54.4552 73.1777 44.4641C74.0373 34.473 70.1644 33.1162 67.9293 33.0019C65.6973 32.8889 58.9419 32.6838 58.9419 32.6838L58.945 32.685Z" fill="#7E8596"/>
<path d="M51.7537 34.8255C51.3792 34.4114 50.3432 34.7041 50.3506 35.5646C50.358 36.425 51.7268 36.8731 52.195 36.1124C52.6632 35.3517 51.9933 35.0905 51.7537 34.8255Z" fill="#616670"/>
<path d="M59.4275 34.7279C54.3798 34.7708 53.2144 35.4775 54.6154 35.8524C56.0132 36.2261 59.5742 35.8999 61.7254 35.8813C63.8765 35.8628 64.7042 35.4996 64.597 35.1147C64.4898 34.7299 61.1515 34.7142 59.4275 34.7279Z" fill="#616670"/>
<path d="M58.0231 81.8814C55.9816 81.9213 55.2206 83.7898 55.8272 85.3127C56.4338 86.8356 59.0643 87.347 60.376 85.972C61.6845 84.5958 60.9633 81.8276 58.0262 81.8826L58.0231 81.8814Z" fill="#616670"/>
<path d="M66.0883 36.0642C67.2096 36.3407 70.8436 37.8153 70.8339 40.9916C70.8242 44.1679 70.563 60.8883 71.3071 61.0785C72.0511 61.2686 72.5012 43.2855 72.3813 41.495C72.2582 39.7034 71.5074 34.794 69.1766 34.1922C66.8458 33.5905 63.9342 35.5313 66.0883 36.0642Z" fill="#A0A7B5"/>
<path d="M71.1383 78.3497C71.1343 79.6059 69.4071 81.4691 66.4094 81.5327C63.4087 81.5951 59.9421 80.754 61.1606 81.8438C62.3761 82.9325 63.4894 84.2921 62.3109 85.4725C61.1323 86.6529 59.6832 87.2168 61.4565 87.3975C63.234 87.5763 69.7959 87.0591 71.2878 85.0755C72.7797 83.0918 73.0115 79.0803 72.8195 77.4654C72.6276 75.8505 71.1472 77.0168 71.1414 78.3509L71.1383 78.3497Z" fill="#A0A7B5"/>
<path d="M54.9203 82.59C54.9203 82.59 53.5911 84.9444 55.0764 86.1383C56.5586 87.331 54.9353 88.3415 53.4946 88.0868C52.0539 87.8322 47.4285 88.3865 46.2412 86.6942C45.0539 85.002 44.532 83.9766 45.8138 84.3729C47.0956 84.7692 49.0347 85.3219 50.4602 84.0305C51.8857 82.7392 55.4965 81.3783 54.9203 82.59Z" fill="#A0A7B5"/>
<path d="M46.9494 37.0107C45.8286 37.5026 42.4344 38.3262 42.544 42.7817C42.6547 47.2342 42.59 52.1363 41.7868 51.823C40.9835 51.5098 40.9718 41.554 42.3783 38.2043C43.788 34.8558 44.8198 35.3618 46.2369 34.8891C47.654 34.4163 48.4324 36.3599 46.9482 37.0138L46.9494 37.0107Z" fill="#A0A7B5"/>
<path d="M56.9217 83.4135C56.5151 84.2911 56.086 85.0706 57.1694 85.6825C58.2527 86.2945 59.5072 85.744 59.6142 84.7459C59.7212 83.7479 59.0125 85.0794 58.4714 84.7718C57.9291 84.4674 57.5197 84.3078 58.0212 83.7458C58.5226 83.1839 57.5183 82.1311 56.9229 83.4104L56.9217 83.4135Z" fill="#474C54"/>
<path d="M41.1238 37.1792C40.7745 38.1756 38.1023 50.7435 38.6917 54.5643C39.281 58.3852 40.064 78.9145 41.1453 81.2265C42.2267 83.5384 44.2628 86.3157 43.3753 85.6872C42.4877 85.0588 39.7394 83.1364 38.9065 71.9421C38.0737 60.7478 37.0882 50.9161 38.1167 44.8892C39.1441 38.8654 40.149 36.0415 41.19 35.3148C42.2309 34.5881 41.9395 34.8496 41.1238 37.1792Z" fill="#474C54"/>
<path d="M58.0264 31.3942C54.6881 31.525 46.6394 32.2448 44.9083 32.7988C43.1803 33.354 41.8991 34.4586 43.0092 34.5164C44.1193 34.5742 47.3103 32.6958 53.4049 32.3323C59.4995 31.9688 62.1615 31.6849 63.9303 31.9961C65.6991 32.3072 65.5088 31.1003 58.0233 31.393L58.0264 31.3942Z" fill="#7E8596"/>
<path d="M53.9687 37.2721C48.5559 37.1334 45.1206 37.7695 44.0476 41.2993C42.9746 44.8291 43.757 68.5204 45.2825 74.7324C46.808 80.9443 48.0741 81.5918 54.1904 81.0902C60.3055 80.5917 66.2641 79.7249 68.3873 79.3382C70.5106 78.9514 70.6104 75.1957 70.6727 73.094C70.7349 70.9922 70.1455 51.4781 70.1276 46.458C70.1115 41.4422 69.8431 37.843 66.241 37.3492C62.6389 36.8555 53.973 37.2702 53.973 37.2702L53.9687 37.2721Z" fill="white"/>
<path d="M69.7567 68.9565C69.0338 69.0783 67.2261 71.707 65.7753 73.796C64.8095 72.9834 61.5421 70.2297 58.5921 67.725C60.1677 65.1236 61.3875 63.0589 61.3875 63.0589C61.3875 63.0589 67.5572 54.0562 68.669 52.0851C69.7796 50.1171 68.2038 49.7598 66.8409 51.7151C65.6734 53.3894 60.0037 62.7407 57.4376 66.7458C56.7563 66.1657 56.1123 65.6179 55.5487 65.1301C53.0407 62.9764 50.6171 61.22 49.1564 60.586C49.4697 60.0757 49.8002 59.54 50.1366 58.9888C52.4789 55.1822 54.7454 51.3497 54.7454 51.3497C54.7454 51.3497 58.5006 45.8717 60.6793 42.5302C61.6096 43.4432 64.3248 46.0458 64.7001 45.6241C65.0552 45.2266 62.526 42.5501 61.4052 41.4019C61.6754 40.9749 61.8912 40.6231 62.0288 40.3802C63.1394 38.4122 61.5637 38.0549 60.2008 40.0102C59.7556 40.6477 58.6635 42.3942 57.3356 44.5347C56.7505 43.717 55.105 42.4392 52.0327 40.9443C49.3279 39.625 46.803 38.7331 47.257 39.7677C47.711 40.8023 49.1997 41.3829 52.6758 43.2532C54.9029 44.4506 56.111 45.1826 56.7942 45.4098C55.2321 47.9306 53.4465 50.8323 52.0361 53.0836C51.3578 52.5689 47.8289 49.8812 46.3988 48.7839C44.8157 47.5661 43.6865 47.383 43.7974 48.198C43.897 48.9229 49.9232 53.3064 51.2811 54.2863C50.6231 55.3231 50.1009 56.1306 49.8059 56.548C48.2814 58.6975 44.1461 64.4632 45.072 65.1673C45.7696 65.6967 46.9624 64.0859 48.5095 61.6307C50.177 63.3102 54.3779 66.2814 56.5505 68.1042C56.512 68.1571 56.4766 68.2112 56.4448 68.256C54.9204 70.4055 50.785 76.1712 51.7109 76.8753C52.6369 77.5795 54.4353 74.5077 56.7775 70.7011C57.1 70.1766 57.4225 69.652 57.7339 69.1375C60.0209 71.18 63.2302 74.229 64.7279 75.2812C64.72 75.2924 64.712 75.3036 64.7041 75.3148C63.2377 77.3156 61.1456 79.1616 61.9353 79.5554C62.7251 79.9491 64.2369 78.0518 66.7317 74.7335C69.2252 71.4183 71.132 68.7283 69.7542 68.9627L69.7567 68.9565Z" fill="#B7CCED"/>
<path d="M55.0668 45.4687C54.3188 44.7482 50.2636 42.8235 50.2636 42.8235C48.0269 41.5224 48.0358 40.8398 46.7563 42.1416C45.4768 43.4434 43.5209 45.5998 44.3724 46.275C45.2239 46.9501 48.9798 50.3016 50.1581 51.0184C51.3364 51.7353 52.3546 51.1034 53.527 49.4167C54.6993 47.7301 55.8136 46.1923 55.0668 45.4687Z" fill="#7FCC83"/>
<path d="M60.7106 73.2319C58.3263 71.5123 57.6969 71.2847 56.1724 73.4343C54.648 75.5839 51.2474 78.8061 52.2023 79.4359C53.1573 80.0656 56.3467 80.0232 57.9509 79.8771C59.552 79.7298 60.5739 79.5281 61.8207 77.8705C63.0675 76.2129 62.7877 74.7316 60.7125 73.2362L60.7106 73.2319Z" fill="#7FCC83"/>
<path d="M44.6582 50.1597C43.6489 50.109 44.8443 61.5555 45.3684 61.7599C45.8926 61.9644 49.5127 55.3118 49.9519 54.6255C50.3911 53.9392 44.6582 50.1597 44.6582 50.1597Z" fill="#93A8C6"/>
<path d="M67.2278 49.6971C67.1132 48.4518 64.8311 47.0472 64.8311 47.0472C62.351 45.0509 61.0298 43.5922 59.1078 46.1013C57.1859 48.6104 52.7359 57.6014 52.1188 58.304C51.5018 59.0067 50.7232 59.9036 53.3975 62.0614C56.0718 64.2193 56.491 66.0121 59.4692 62.1141C62.4485 58.213 67.3424 50.9424 67.2278 49.6971Z" fill="#93A8C6"/>
<path d="M68.7001 53.1872C68.025 54.0387 66.4197 57.2752 66.4197 57.2752C66.4197 57.2752 61.7491 64.6329 61.0777 65.9146C60.4063 67.1964 60.0088 67.5559 61.8807 69.5723C63.7527 71.5887 65.3226 72.6298 67.2318 70.373C69.1411 68.1163 69.9299 66.5337 69.7587 63.8943C69.5876 61.2549 69.3752 52.3357 68.7001 53.1872Z" fill="#93A8C6"/>
<path d="M49.5694 63.7413C47.9989 62.2712 46.6761 65.4428 46.1662 66.5302C46.1662 66.5302 46.9529 70.01 47.3045 73.0664C47.6572 76.1196 50.2259 76.3497 50.7685 75.618C51.3111 74.8864 54.6024 69.306 55.0126 68.6942C55.4227 68.0824 51.1368 65.2102 49.5663 63.7401L49.5694 63.7413Z" fill="#93A8C6"/>
<path d="M50.3802 39.0065C50.8142 39.433 56.093 42.1779 56.9282 42.6752C57.7633 43.1724 59.6716 38.9393 59.6716 38.9393C60.3303 37.9099 58.1628 37.7506 55.8212 38.0378C53.4795 38.3251 49.9475 38.5769 50.3814 39.0034L50.3802 39.0065Z" fill="#93A8C6"/>
<path d="M69.3933 76.7043C70.0446 74.8145 69.5732 71.6256 68.5321 73.1955C67.6473 74.5298 63.9048 78.6835 66.0559 78.665C68.207 78.6464 68.7407 78.5973 69.392 76.7074L69.3933 76.7043Z" fill="#93A8C6"/>
<path d="M63.5366 39.5926C63.4917 40.4863 62.1409 41.1922 63.3809 42.1904C64.621 43.1885 66.9195 47.8583 67.9124 47.731C68.9054 47.6037 69.3967 44.3652 69.0109 42.496C68.6239 40.63 66.4833 38.423 65.6487 38.3547C64.8142 38.2865 63.5504 39.3372 63.5378 39.5895L63.5366 39.5926Z" fill="#71ACF4"/>
<path d="M66.0242 49.4849C65.3052 48.6899 61.6475 46.4058 61.259 46.0827C60.8704 45.7597 60.5146 45.7924 60.1045 46.4042C59.4221 47.4209 57.4911 49.5869 58.5974 50.7081C59.7049 51.8261 63.2629 54.5859 63.88 53.8832C64.4971 53.1806 66.7432 50.2798 66.0242 49.4849Z" fill="#A1B5D1"/>
<path d="M57.4541 55.4077C58.4508 55.7107 59.1296 55.2894 59.536 54.2473C59.9425 53.2053 59.8353 52.8204 59.0746 52.3522C57.7117 51.5134 57.4825 51.817 56.6912 52.9663C55.9 54.1155 56.4575 55.1047 57.4541 55.4077Z" fill="#A1B5D1"/>
<path d="M58.6144 57.4895C57.4187 56.4693 57.4905 56.1936 55.946 57.7351C54.4015 59.2766 53.2872 60.8143 54.8691 62.0352C56.4523 63.253 57.3418 63.1711 58.4561 61.6333C59.5704 60.0956 60.0929 58.7558 58.6132 57.4926L58.6144 57.4895Z" fill="#A1B5D1"/>
<path d="M68.9264 65.7993C68.4887 64.9426 65.4935 62.0593 65.2828 61.7198C65.0722 61.3804 64.0323 62.9472 64.0323 62.9472C62.7692 64.4269 60.7552 66.7322 62.1188 68.2931C63.4824 69.854 65.1981 70.9519 66.1576 70.0399C67.1141 69.1266 69.364 66.6561 68.9264 65.7993Z" fill="#A1B5D1"/>
<path d="M53.6759 68.1729C52.7209 67.5432 49.0558 64.3986 48.4223 64.9233C47.482 65.7036 46.0084 67.1548 48.1744 68.8571C50.3404 70.5595 51.4421 72.3613 52.5147 71.1503C53.5873 69.9392 54.6309 68.8027 53.6759 68.1729Z" fill="#A1B5D1"/>
<path d="M67.6039 61.5497C67.9158 59.8705 66.6758 58.8723 65.2616 58.3207C62.8022 57.3615 61.2191 59.2309 60.9097 61.3434C60.7503 62.439 61.487 63.491 62.4297 64.1338C62.1802 65.6622 61.3039 68.422 61.9191 68.4296C62.4026 68.436 63.5769 66.1213 64.22 64.7749C64.5254 64.7796 64.8086 64.7222 65.0504 64.5878C66.4825 63.7743 67.2939 63.2332 67.6058 61.554L67.6039 61.5497Z" fill="#EA1548"/>
<path d="M62.9231 59.5524C62.5119 59.8279 61.3909 61.7311 62.5116 62.9436C63.6323 64.156 65.3698 63.5581 65.8309 63.1912C66.292 62.8244 66.9279 61.4323 66.5665 60.6089C66.2052 59.7855 64.6503 58.4037 62.9262 59.5536L62.9231 59.5524Z" fill="white"/>
<path d="M65.8322 60.8336C65.7582 60.7118 65.1571 60.7596 64.633 60.8482C64.5947 60.7082 64.5614 60.5738 64.5326 60.4553C64.3767 59.8014 63.8493 59.6421 63.6666 59.7531C63.5351 59.834 63.6023 60.532 63.7022 61.0819C62.8955 61.364 62.1252 61.7996 62.7383 61.9959C63.0805 62.1079 63.5197 62.072 63.9487 61.9891C64.2285 62.7557 64.6362 63.4328 64.8258 62.8458C64.9246 62.5377 64.9046 62.1583 64.8407 61.7725C64.9443 61.745 65.0393 61.7213 65.13 61.6995C65.7839 61.5437 65.9432 61.0162 65.8322 60.8336Z" fill="#EA1548"/>
<path d="M47.5342 39.3684C46.9264 39.1313 46.7058 38.8631 46.7028 39.1549C46.6997 39.4467 47.379 39.8581 47.7548 39.9297C48.1295 40.0043 48.1049 39.591 47.5342 39.3684Z" fill="#EA1548"/>
<path d="M49.0382 40.2121C48.6037 40.0069 48.2033 39.815 48.3097 40.1102C48.4118 40.4073 48.9669 40.7703 49.3118 40.8298C49.6523 40.8912 49.5037 40.4294 49.0413 40.2133L49.0382 40.2121Z" fill="#EA1548"/>
<path d="M50.7535 41.0635C50.162 40.7935 49.7484 40.6357 49.8327 40.8866C49.9171 41.1374 50.8227 41.6372 51.0771 41.7363C51.3314 41.8355 51.3121 41.317 50.7547 41.0604L50.7535 41.0635Z" fill="#EA1548"/>
<path d="M52.1613 41.8699C51.6567 41.7803 51.4393 41.6597 51.7337 42.0318C52.028 42.4039 53.1414 42.8382 53.1513 42.6205C53.163 42.4071 52.5061 41.9294 52.1613 41.8699Z" fill="#EA1548"/>
<path d="M54.5712 43.5419C54.9458 43.6166 54.9213 43.2033 54.3506 42.9807C53.7427 42.7436 53.5222 42.4754 53.5192 42.7672C53.5161 43.059 54.1953 43.4704 54.5712 43.5419Z" fill="#EA1548"/>
<path d="M56.125 44.4414C56.4655 44.5027 56.3168 44.041 55.8544 43.8249C55.4199 43.6197 55.0195 43.4278 55.126 43.723C55.228 44.0201 55.7832 44.3831 56.1281 44.4426L56.125 44.4414Z" fill="#EA1548"/>
<path d="M57.7296 45.2744C57.4449 45.3814 57.0705 45.9107 56.9775 46.2317C56.8706 46.5973 57.2818 46.6148 57.5571 46.0647C57.748 45.6854 57.9347 45.4723 57.9615 45.3578C58.1394 45.3414 58.0738 44.9049 57.5742 44.6743C56.9827 44.4043 56.569 44.2465 56.6534 44.4974C56.7239 44.7107 57.3738 45.0964 57.7308 45.2713L57.7296 45.2744Z" fill="#EA1548"/>
<path d="M56.7441 46.7657C56.4388 46.8431 56.026 47.361 55.9343 47.6969C55.8426 48.0327 56.3159 47.9279 56.5741 47.4855C56.8172 47.0729 57.0482 46.6914 56.7429 46.7688L56.7441 46.7657Z" fill="#EA1548"/>
<path d="M55.8262 48.2121C55.5671 48.2718 54.9866 49.1281 54.8638 49.3696C54.7398 49.6142 55.2599 49.6456 55.565 49.1107C55.8896 48.5441 56.0865 48.1493 55.8262 48.2121Z" fill="#EA1548"/>
<path d="M53.7935 51.3536C54.007 51.3833 54.5414 50.7735 54.6331 50.4376C54.7686 49.9438 54.9065 49.7367 54.5131 49.9942C54.1154 50.2535 53.5812 51.3208 53.7947 51.3505L53.7935 51.3536Z" fill="#EA1548"/>
<path d="M52.7436 52.6805C52.6367 53.0461 53.0479 53.0636 53.3232 52.5135C53.6149 51.9305 53.905 51.7364 53.6136 51.7049C53.3252 51.6746 52.8504 52.3148 52.7436 52.6805Z" fill="#EA1548"/>
<path d="M52.5145 53.213C52.2091 53.2904 51.7963 53.8083 51.7046 54.1441C51.613 54.48 52.0862 54.3751 52.3445 53.9328C52.5876 53.5202 52.8186 53.1386 52.5133 53.2161L52.5145 53.213Z" fill="#EA1548"/>
<path d="M51.5954 54.6623C51.3363 54.722 50.7558 55.5783 50.633 55.8198C50.509 56.0644 51.0292 56.0958 51.3343 55.5609C51.6589 54.9943 51.8558 54.5995 51.5954 54.6623Z" fill="#EA1548"/>
<path d="M49.5627 57.8036C49.7762 57.8332 50.3106 57.2234 50.4023 56.8876C50.5378 56.3937 50.6757 56.1867 50.2823 56.4441C49.8845 56.7035 49.3504 57.7708 49.5639 57.8004L49.5627 57.8036Z" fill="#EA1548"/>
<path d="M48.9338 59.077C49.2584 58.5104 49.4553 58.1156 49.195 58.1784C48.9358 58.2381 48.3553 59.0944 48.2325 59.3359C48.1085 59.5805 48.6287 59.6119 48.9338 59.077Z" fill="#EA1548"/>
<path d="M48.5697 60.5787C48.0202 60.2286 47.8543 59.9209 47.7956 60.2089C47.735 60.4925 48.3257 61.0302 48.6768 61.1743C49.0311 61.3196 49.0875 60.9092 48.5685 60.5818L48.5697 60.5787Z" fill="#EA1548"/>
<path d="M49.8819 61.6941C49.4955 61.4113 49.1433 61.1417 49.1856 61.4547C49.229 61.7647 49.7053 62.2292 50.0279 62.355C50.3535 62.482 50.2956 61.9984 49.8807 61.6972L49.8819 61.6941Z" fill="#EA1548"/>
<path d="M51.4009 62.8656C50.8697 62.4869 50.4968 62.2521 50.533 62.5164C50.5662 62.7794 51.3571 63.4452 51.5889 63.5928C51.8177 63.7392 51.9035 63.226 51.404 62.8668L51.4009 62.8656Z" fill="#EA1548"/>
<path d="M52.6273 63.9262C52.1497 63.7399 51.9573 63.5827 52.1754 64.0037C52.3936 64.4246 53.4006 65.0675 53.4513 64.855C53.5039 64.6469 52.9498 64.052 52.6273 63.9262Z" fill="#EA1548"/>
<path d="M54.5592 65.4407C54.0097 65.0906 53.8439 64.783 53.7851 65.0709C53.7245 65.3546 54.3152 65.8922 54.6663 66.0363C55.0175 66.1804 55.077 65.7713 54.558 65.4438L54.5592 65.4407Z" fill="#EA1548"/>
<path d="M55.8713 66.5566C55.485 66.2737 55.1297 66.0029 55.1751 66.3172C55.2185 66.6271 55.6948 67.0916 56.0174 67.2174C56.343 67.3444 56.2851 66.8609 55.8713 66.5566Z" fill="#EA1548"/>
<path d="M57.3916 67.7247C56.8604 67.346 56.4875 67.1112 56.5238 67.3755C56.557 67.6386 57.3478 68.3043 57.5797 68.4519C57.8084 68.5983 57.8942 68.0851 57.3947 67.7259L57.3916 67.7247Z" fill="#EA1548"/>
<path d="M58.6168 68.7885C58.1392 68.6022 57.9468 68.445 58.1649 68.866C58.3831 69.287 59.3901 69.9298 59.4408 69.7174C59.4915 69.5049 58.9393 68.9143 58.6168 68.7885Z" fill="#EA1548"/>
<path d="M60.6565 69.7521C60.1676 69.4756 59.9212 69.576 59.8943 70.1122C59.8661 70.6515 60.0867 71.2128 60.6049 71.0111C61.123 70.8095 61.4982 70.2233 60.6577 69.749L60.6565 69.7521Z" fill="#EA1548"/>
<path d="M68.9752 27.3541C68.1413 29.363 67.5938 30.8958 68.491 31.0251C69.3881 31.1543 71.591 26.6256 71.7848 25.7536C71.9786 24.8816 70.1721 24.4697 68.9752 27.3541Z" fill="#EA1548"/>
<path d="M78.3521 24.5992C77.4219 23.4352 74.7028 26.6735 73.7778 27.5505C72.7347 28.5398 69.7268 31.2145 70.3267 32.1057C70.9275 32.995 75.3539 29.1128 76.5085 28.3973C77.6611 27.6809 79.2843 25.764 78.3542 24.6L78.3521 24.5992Z" fill="#EA1548"/>
<path d="M78.3704 31.0906C78.0503 30.6011 76.5648 30.6766 75.4459 31.1158C73.1461 32.018 71.554 32.8771 72.0148 33.5654C72.4748 34.2558 76.323 33.3506 77.3141 32.8639C78.3051 32.3773 78.6883 31.5792 78.3704 31.0906Z" fill="#EA1548"/>
</svg>
