<svg width="100" height="100" viewBox="0 0 100 100" fill="none" xmlns="http://www.w3.org/2000/svg">
<rect x="-0.163408" y="9.91889" width="90.8236" height="90.8236" rx="11.2949" transform="rotate(-6.30707 -0.163408 9.91889)" fill="#212121"/>
<rect x="-0.163408" y="9.91889" width="90.8236" height="90.8236" rx="11.2949" transform="rotate(-6.30707 -0.163408 9.91889)" stroke="#333333" stroke-width="0.823598"/>
<path d="M39.8965 33.3481C33.8545 35.7515 24.5303 41.2842 23.1455 54.7596C21.7606 68.2349 32.2134 83.3515 51.6109 82.2163C71.0084 81.0812 76.551 64.3301 75.4159 52.8687C74.2807 41.4073 62.0636 24.5298 39.8965 33.3447V33.3481Z" fill="#2A9B24"/>
<path d="M73.4518 69.9095C72.32 66.797 62.2767 46.0014 59.4471 36.3808C57.2334 28.8575 54.244 27.3062 52.0303 27.3229C51.1715 27.1098 49.9331 26.98 48.1521 27.0566C42.8259 27.2929 28.1421 35.2257 26.0116 37.8322C23.8811 40.4354 26.0116 52.1565 34.3006 69.2071C41.6674 84.3603 46.0383 88.102 50.9118 87.0833C51.8672 87.1432 52.6894 86.9701 53.3652 86.7438C55.9118 85.8949 69.2108 79.53 71.3313 78.538C73.4518 77.5493 74.5836 73.022 73.4518 69.9095Z" fill="#1B6815"/>
<path d="M59.6335 57.1697C60.1994 54.2935 58.5583 52.0332 57.0969 51.4007C55.6355 50.7682 54.9098 48.4779 57.6695 48.661C58.4318 48.711 61.6475 50.1624 62.4697 55.5818C63.292 60.9979 58.039 64.9826 55.3592 63.0319C52.6795 61.0778 59.0676 60.0525 59.6369 57.173L59.6335 57.1697Z" fill="#5AC652"/>
<path d="M60.7653 64.2101C63.3419 62.7654 64.5736 58.7773 64.4471 56.0576C64.051 47.3592 56.6741 46.2407 57.27 44.3166C57.8659 42.3925 62.6795 45.4984 64.7101 47.6089C66.7407 49.7194 69.3106 56.5769 66.2247 62.8053C63.1389 69.0337 57.7527 68.6675 56.9205 67.1961C56.0882 65.7248 58.1854 65.6582 60.762 64.2101H60.7653Z" fill="#5AC652"/>
<path d="M59.6468 70.5084C60.9451 70.0556 63.1355 68.8972 66.0816 66.6202C69.0277 64.3466 69.76 58.4644 69.8299 56.2873C70.0962 47.8385 63.9711 44.7759 62.503 43.8705C61.035 42.965 56.9171 41.1974 59.224 39.4863C61.531 37.7753 68.8645 43.774 70.1628 45.6581C72.6329 49.2533 74.5503 56.2673 72.017 63.4278C69.4837 70.5882 63.9411 73.6309 61.8539 73.9737C59.7666 74.3166 58.3552 70.9578 59.6501 70.5084H59.6468Z" fill="#5AC652"/>
<path d="M37.6794 57.1697C37.1135 54.2935 38.7547 52.0332 40.216 51.4007C41.6774 50.7682 42.4031 48.4779 39.6435 48.661C38.8811 48.711 35.6654 50.1624 34.8432 55.5818C34.021 60.9979 39.274 64.9826 41.9537 63.0319C44.6335 61.0778 38.2453 60.0525 37.6761 57.173L37.6794 57.1697Z" fill="#5AC652"/>
<path d="M36.5476 64.2101C33.971 62.7654 32.7393 58.7773 32.8658 56.0576C33.262 47.3592 40.6388 46.2407 40.043 44.3166C39.4471 42.3925 34.6335 45.4984 32.6029 47.6089C30.5722 49.7194 28.0023 56.5769 31.0882 62.8053C34.1741 69.0337 39.5603 68.6675 40.3925 67.1961C41.2247 65.7248 39.1275 65.6582 36.5509 64.2101H36.5476Z" fill="#5AC652"/>
<path d="M37.6628 70.5084C36.3645 70.0556 34.1741 68.8972 31.228 66.6202C28.282 64.3466 27.5496 58.4644 27.4797 56.2873C27.2134 47.8385 33.3386 44.7759 34.8066 43.8705C36.2746 42.965 40.3925 41.1974 38.0856 39.4863C35.7786 37.7753 28.4451 43.774 27.1468 45.6581C24.6768 49.2533 22.7593 56.2673 25.2926 63.4278C27.8259 70.5882 33.3685 73.6309 35.4557 73.9737C37.543 74.3166 38.9544 70.9578 37.6595 70.5084H37.6628Z" fill="#5AC652"/>
<path d="M62.4664 55.5785C61.6442 50.1624 58.4285 48.7077 57.6662 48.6577C54.9065 48.478 55.6322 50.7683 57.0936 51.3974C58.555 52.0299 60.1961 54.2902 59.6302 57.1664C59.0643 60.0426 52.6728 61.0712 55.3526 63.0253C58.0323 64.9793 63.2853 60.9946 62.4631 55.5752L62.4664 55.5785Z" fill="#2A9B24"/>
<path d="M66.2281 62.8053C67.2068 60.8346 67.6129 58.7973 67.6529 56.8698C66.1083 53.4011 64.4704 49.6495 63.0257 46.1242C60.7521 44.3698 57.7361 42.8186 57.27 44.3166C56.6742 46.2407 64.0477 47.3592 64.4471 56.0576C64.5703 58.7773 63.3419 62.7653 60.7654 64.2101C58.1888 65.6548 56.0916 65.7247 56.9238 67.1961C57.756 68.6675 63.1422 69.0336 66.2281 62.8053Z" fill="#2A9B24"/>
<path d="M62.0037 43.5842C61.3912 42.0296 60.8319 40.5482 60.3559 39.19C59.9098 39.1767 59.5203 39.2666 59.2207 39.4896C57.1402 41.0342 60.2893 42.6254 62.0037 43.5842Z" fill="#2A9B24"/>
<path d="M69.2707 60.4751C68.748 62.7887 67.786 65.3053 66.0849 66.6203C63.1388 68.8939 60.9484 70.0557 59.6501 70.5084C58.3519 70.9611 59.7667 74.3167 61.8539 73.9738C63.7713 73.6609 68.6115 71.061 71.3479 65.0756C70.7354 63.7208 70.0297 62.1629 69.2707 60.4751Z" fill="#2A9B24"/>
<path d="M37.6795 57.1697C37.1136 54.2935 38.7547 52.0332 40.2161 51.4007C41.6775 50.7682 42.4032 48.4779 39.6435 48.661C38.8812 48.711 35.6655 50.1624 34.8433 55.5818C34.021 60.9979 39.274 64.9826 41.9538 63.0319C44.6336 61.0778 38.2454 60.0525 37.6761 57.173L37.6795 57.1697Z" fill="#2A9B24"/>
<path d="M36.5476 64.2101C33.9711 62.7654 32.7394 58.7773 32.8659 56.0576C33.262 47.3592 40.6388 46.2407 40.043 44.3166C39.4471 42.3925 34.6335 45.4984 32.6029 47.6089C30.9517 49.3266 28.9444 54.1835 29.9131 59.2867C30.5756 60.9644 31.3113 62.7154 32.1302 64.5463C35.256 68.9372 39.6502 68.5077 40.3925 67.1928C41.2247 65.7214 39.1275 65.6549 36.551 64.2068L36.5476 64.2101Z" fill="#2A9B24"/>
<path d="M37.6628 70.5086C36.8139 70.2123 35.5789 69.6098 34.001 68.5945C34.1008 68.8009 34.1941 69.0006 34.2939 69.207C35.1028 70.8714 35.8718 72.3894 36.6142 73.7842C38.0023 73.0852 38.6981 70.8681 37.6594 70.5086H37.6628Z" fill="#2A9B24"/>
<path d="M34.8099 43.8705C36.278 42.965 40.3958 41.1974 38.0889 39.4863C35.782 37.7753 28.4484 43.774 27.1501 45.6581C26.784 46.1907 26.4278 46.8033 26.0982 47.479C26.491 49.1901 27.0203 51.0942 27.6927 53.1748C28.7746 47.0596 33.535 44.6561 34.8066 43.8705H34.8099Z" fill="#2A9B24"/>
<path d="M56.9604 25.4682C56.9604 25.4682 56.4877 23.8104 51.1581 24.0467C45.8319 24.2831 31.1481 32.2159 29.0176 34.8224C26.8871 37.4256 29.0176 49.1467 37.3066 66.1973C45.5955 83.2479 50.0929 85.8511 55.7753 83.4843C61.4577 81.1174 74.6002 74.0135 74.6002 74.0135C74.6002 74.0135 77.2034 71.9996 75.4291 66.9097C73.6548 61.8198 57.9058 26.1806 56.9604 25.4715V25.4682Z" fill="#616670"/>
<path d="M44.9097 27.5719C35.2892 31.1072 30.196 34.6459 30.479 40.022C30.7619 45.3982 37.5529 63.7904 43.3518 74.2598C49.1508 84.7292 53.8212 84.586 56.3678 83.7372C58.9144 82.8883 72.2134 76.5234 74.3339 75.5314C76.4544 74.5427 77.5862 70.0154 76.4544 66.9029C75.3226 63.7904 65.2793 42.9947 62.4497 33.3742C59.6202 23.7537 55.5189 23.8968 53.3951 24.6026C51.2746 25.3083 44.9064 27.5719 44.9064 27.5719H44.9097Z" fill="#7E8596"/>
<path d="M38.9877 32.1792C38.4883 31.9296 37.6295 32.5787 37.949 33.3776C38.2686 34.1766 39.7067 34.0967 39.8665 33.2178C40.0263 32.339 39.3072 32.339 38.9877 32.1792Z" fill="#616670"/>
<path d="M46.1015 29.2997C41.4144 31.1739 40.5855 32.2557 42.0269 32.096C43.465 31.9362 46.6641 30.3383 48.6614 29.5394C50.6588 28.7404 51.2979 28.1013 51.0582 27.7817C50.8186 27.4621 47.7027 28.6605 46.1015 29.2997Z" fill="#616670"/>
<path d="M61.9272 73.7407C60.0397 74.5196 60.0097 76.5369 61.1282 77.7354C62.2467 78.9338 64.8832 78.4544 65.6056 76.6967C66.3246 74.9391 64.6469 72.6222 61.9305 73.7407H61.9272Z" fill="#616670"/>
<path d="M52.7926 28.1247C53.9377 27.9749 57.8591 28.0281 59.0043 30.9909C60.1494 33.9536 65.9817 49.626 66.744 49.5328C67.5063 49.4396 61.3911 32.5222 60.6288 30.8977C59.8631 29.2732 57.3798 24.9722 54.9896 25.2585C52.5995 25.5448 50.5922 28.411 52.7926 28.1247Z" fill="#A0A7B5"/>
<path d="M72.8625 65.6847C73.3153 66.8564 72.3832 69.2199 69.6135 70.3684C66.8405 71.5169 63.3053 71.9929 64.8365 72.5655C66.3645 73.1381 67.8958 74.0002 67.2267 75.5282C66.5576 77.0562 65.4124 78.1081 67.1302 77.6321C68.8512 77.1527 74.7766 74.2865 75.4458 71.8964C76.1149 69.5062 74.8732 65.6846 74.1075 64.2499C73.3419 62.8151 72.3865 64.4396 72.8659 65.6847H72.8625Z" fill="#A0A7B5"/>
<path d="M59.2939 75.5281C59.2939 75.5281 58.9111 78.2045 60.7287 78.7771C62.5429 79.3497 61.3978 80.8809 59.963 81.1672C58.5283 81.4535 54.4204 83.6506 52.6994 82.5055C50.9783 81.3603 50.1195 80.5947 51.4577 80.4981C52.7959 80.4016 54.8032 80.2118 55.6621 78.4908C56.5209 76.7698 59.3905 74.1899 59.2939 75.5281Z" fill="#A0A7B5"/>
<path d="M35.3059 35.9608C34.4403 36.8263 31.5775 38.827 33.2985 42.9382C35.0196 47.046 36.7406 51.6366 35.8784 51.6366C35.0162 51.6366 31.3877 42.3656 31.481 38.7338C31.5775 35.1019 32.7226 35.1985 33.8711 34.2431C35.0196 33.2877 36.451 34.8157 35.3059 35.9641V35.9608Z" fill="#A0A7B5"/>
<path d="M61.4577 75.5681C61.3978 76.5335 61.2812 77.4156 62.5129 77.5921C63.7446 77.7685 64.7133 76.7998 64.4504 75.8311C64.1874 74.8624 64.0109 76.3604 63.3951 76.2705C62.7792 76.1839 62.3398 76.1839 62.6028 75.4782C62.8658 74.7725 61.5476 74.1566 61.4577 75.5648V75.5681Z" fill="#474C54"/>
<path d="M29.9397 38.2344C29.9763 39.2897 32.0535 51.9695 33.991 55.315C35.9284 58.6605 44.1175 77.5021 45.965 79.2631C47.8125 81.0241 50.7187 82.8716 49.6634 82.6087C48.6082 82.3457 45.3492 81.5534 40.5056 71.4269C35.6621 61.3004 31.1714 52.4988 29.9397 46.5101C28.708 40.5247 28.6181 37.5287 29.3238 36.4734C30.0296 35.4182 29.8531 35.7677 29.9397 38.2344Z" fill="#474C54"/>
<path d="M43.5849 26.7032C40.5223 28.0381 33.2852 31.6333 31.8738 32.7785C30.4657 33.9236 29.6734 35.4183 30.7286 35.0688C31.7839 34.7192 34.0742 31.8098 39.6201 29.2565C45.1661 26.7032 47.5429 25.4715 49.3039 25.1187C51.0649 24.7658 50.4491 23.7105 43.5815 26.7032H43.5849Z" fill="#7E8596"/>
<path d="M41.9404 33.6539C36.8472 35.4915 33.8778 37.3323 34.1608 41.0108C34.4437 44.6892 43.7813 66.4768 47.4597 71.7099C51.1382 76.9429 52.5529 77.0861 58.0689 74.3963C63.5849 71.7099 68.8213 68.7372 70.6588 67.6054C72.4964 66.4735 71.2247 62.9382 70.519 60.9575C69.8133 58.9768 62.1735 41.0108 60.3326 36.3403C58.495 31.6732 56.9371 28.4175 53.4018 29.2664C49.8665 30.1153 41.9437 33.6506 41.9437 33.6506L41.9404 33.6539Z" fill="white"/>
<path d="M68.1622 57.4357C67.533 57.8119 66.804 60.9178 66.2115 63.3911C65.0164 62.985 60.9718 61.6068 57.3133 60.3452C57.8359 57.3492 58.2221 54.9823 58.2221 54.9823C58.2221 54.9823 60.6988 44.3531 61.0184 42.1128C61.3379 39.8758 59.7401 40.1155 59.1808 42.4324C58.7015 44.4164 56.8173 55.1887 55.8819 59.8525C55.0363 59.5596 54.2374 59.2833 53.535 59.0336C50.4158 57.9384 47.5197 57.1827 45.9285 57.1228C46.035 56.5336 46.1482 55.9144 46.2614 55.2786C47.0603 50.8811 47.7793 46.487 47.7793 46.487C47.7793 46.487 49.2873 40.0189 50.1029 36.1141C51.3013 36.6268 54.7767 38.0648 54.9731 37.5356C55.1595 37.0362 51.8306 35.4616 50.3692 34.7992C50.4658 34.3032 50.539 33.8971 50.5789 33.6208C50.8985 31.3838 49.3006 31.6234 48.7414 33.9403C48.5583 34.696 48.1755 36.72 47.7161 39.1967C46.8739 38.6474 44.8765 38.0549 41.4711 37.7786C38.4717 37.5322 35.7953 37.6188 36.5942 38.4177C37.3932 39.2167 38.991 39.2167 42.9092 39.696C45.4191 40.0023 46.8106 40.2453 47.5297 40.2087C46.9904 43.1248 46.3812 46.477 45.8852 49.0868C45.0663 48.8538 40.802 47.6321 39.0709 47.1294C37.1535 46.5702 36.035 46.8099 36.4344 47.5289C36.7906 48.1681 43.9977 50.0622 45.6189 50.4817C45.3825 51.6867 45.1895 52.6288 45.0663 53.1248C44.4271 55.6814 42.6695 62.5556 43.788 62.8752C44.6302 63.1148 45.1562 61.1807 45.7054 58.3312C47.8692 59.2899 52.8626 60.5316 55.549 61.4404C55.5323 61.5036 55.519 61.5669 55.5057 61.6201C54.8666 64.1767 53.1089 71.0509 54.2274 71.3705C55.3459 71.6901 55.9052 68.1748 56.7041 63.7773C56.814 63.1714 56.9238 62.5656 57.027 61.973C59.8999 63.0449 63.9977 64.7194 65.7754 65.1554C65.772 65.1688 65.7687 65.1821 65.7654 65.1954C65.1262 67.5922 63.8479 70.0722 64.7268 70.1521C65.6056 70.232 66.3246 67.9151 67.4432 63.9171C68.5617 59.9224 69.3606 56.7233 68.1622 57.4424V57.4357Z" fill="#B7CCED"/>
<path d="M45.9417 40.8911C44.983 40.4916 40.5057 40.172 40.5057 40.172C37.9491 39.7726 37.7094 39.1334 36.9903 40.8112C36.2713 42.489 35.2327 45.2087 36.2713 45.5282C37.3099 45.8478 42.027 47.6055 43.3852 47.8451C44.7433 48.0848 45.4624 47.1261 45.9417 45.1288C46.4211 43.1314 46.9005 41.2939 45.9417 40.8911Z" fill="#7FCC83"/>
<path d="M61.2881 64.7058C58.4419 63.9701 57.7728 63.9867 57.1336 66.5433C56.4945 69.0999 54.4971 73.3376 55.6156 73.5773C56.7341 73.817 59.6902 72.6186 61.1316 71.8995C62.5697 71.1805 63.4485 70.6212 64.0078 68.6239C64.567 66.6265 63.7681 65.3482 61.2914 64.7091L61.2881 64.7058Z" fill="#7FCC83"/>
<path d="M37.9491 49.0435C36.9904 49.363 42.2633 59.5927 42.8259 59.5927C43.3885 59.5927 44.3439 52.0794 44.5037 51.2805C44.6635 50.4815 37.9491 49.0435 37.9491 49.0435Z" fill="#93A8C6"/>
<path d="M58.8079 40.4117C58.2487 39.2932 55.6122 38.8138 55.6122 38.8138C52.5762 37.8551 50.8152 36.9763 49.9364 40.0122C49.0576 43.0482 48.1788 53.0415 47.8592 53.9204C47.5396 54.7992 47.1401 55.9177 50.4158 56.9563C53.6914 57.995 54.7334 59.5129 56.0915 54.7992C57.4497 50.0822 59.3672 41.5302 58.8079 40.4117Z" fill="#93A8C6"/>
<path d="M61.4478 43.1282C61.1282 44.1668 60.8086 47.7654 60.8086 47.7654C60.8086 47.7654 59.1309 56.3173 58.9711 57.7554C58.8113 59.1935 58.5716 59.6728 61.0483 60.8712C63.525 62.0696 65.3659 62.4691 66.3246 59.6728C67.2833 56.8766 67.4431 55.1156 66.3246 52.7188C65.2061 50.322 61.7673 42.0896 61.4478 43.1282Z" fill="#93A8C6"/>
<path d="M47.4597 59.9124C45.4624 59.1135 45.3825 62.5489 45.3026 63.7473C45.3026 63.7473 47.3 66.7034 48.738 69.4231C50.1761 72.1394 52.6528 71.4204 52.8925 70.5416C53.1322 69.6628 54.1708 63.2679 54.3306 62.5489C54.4904 61.8298 49.4538 60.7113 47.4564 59.9124H47.4597Z" fill="#93A8C6"/>
<path d="M39.2274 36.5737C39.7866 36.8134 45.7021 37.4525 46.6608 37.6123C47.6195 37.7721 47.8592 33.1349 47.8592 33.1349C48.0989 31.9365 46.0217 32.5757 43.9444 33.6942C41.8672 34.8127 38.6681 36.3307 39.2274 36.5703V36.5737Z" fill="#93A8C6"/>
<path d="M70.6389 64.7858C70.559 62.7885 68.9611 59.9888 68.5616 61.8297C68.2221 63.3943 66.2447 68.624 68.2421 67.8251C70.2394 67.0261 70.7188 66.7865 70.6389 64.7891V64.7858Z" fill="#93A8C6"/>
<path d="M51.6974 32.3392C51.9804 33.188 50.9784 34.3365 52.4964 34.8159C54.0143 35.2952 57.8526 38.8106 58.7314 38.3312C59.6102 37.8518 58.8912 34.6561 57.8526 33.0549C56.814 31.457 54.0177 30.1787 53.2154 30.4184C52.4131 30.6581 51.6175 32.0962 51.6974 32.3358V32.3392Z" fill="#71ACF4"/>
<path d="M57.6095 40.6514C56.6508 40.1721 52.4131 39.3731 51.9338 39.2134C51.4544 39.0536 51.1348 39.2134 50.975 39.9324C50.7087 41.1275 49.6967 43.8472 51.1348 44.4897C52.5729 45.1288 56.8905 46.4071 57.2101 45.5283C57.5296 44.6495 58.5683 41.1308 57.6095 40.6514Z" fill="#A1B5D1"/>
<path d="M51.7773 49.2834C52.8159 49.2035 53.2953 48.5644 53.2953 47.4459C53.2953 46.3273 53.0556 46.0078 52.1768 45.848C50.6022 45.5617 50.499 45.9279 50.1794 47.2861C49.8598 48.6443 50.7387 49.3633 51.7773 49.2834Z" fill="#A1B5D1"/>
<path d="M53.6148 50.8013C52.1302 50.2854 52.0969 50.0024 51.218 51.9998C50.3392 53.9971 49.8599 55.8346 51.7773 56.3972C53.6947 56.9565 54.4937 56.557 54.973 54.7195C55.4524 52.8819 55.4524 51.4438 53.6148 50.8047V50.8013Z" fill="#A1B5D1"/>
<path d="M66.2414 54.7961C65.5223 54.157 61.6841 52.5591 61.3645 52.3194C61.045 52.0797 60.6455 53.9173 60.6455 53.9173C60.0063 55.7548 58.9677 58.6343 60.8053 59.5931C62.6428 60.5518 64.6402 60.9513 65.2028 59.7529C65.762 58.5545 66.9604 55.4353 66.2414 54.7961Z" fill="#A1B5D1"/>
<path d="M52.8958 62.5489C51.7773 62.3092 47.22 60.7113 46.8206 61.4304C46.228 62.4989 45.3825 64.3864 48.019 65.1854C50.6555 65.9843 52.3366 67.2626 52.8958 65.7446C53.4551 64.2267 54.0143 62.7886 52.8958 62.5489Z" fill="#A1B5D1"/>
<path d="M63.4651 51.3173C63.1455 49.6395 61.6276 49.1602 60.1096 49.1602C57.4698 49.1602 56.6742 51.4771 57.1535 53.5576C57.4032 54.6362 58.4718 55.3486 59.5836 55.6049C59.9065 57.1196 60.0929 60.009 60.6688 59.7927C61.1216 59.6229 61.3746 57.0397 61.4844 55.5516C61.7707 55.4451 62.0137 55.2887 62.1901 55.0756C63.2288 53.7973 63.788 52.9984 63.4684 51.3206L63.4651 51.3173Z" fill="#EA1548"/>
<path d="M58.3786 51.1573C58.0956 51.5634 57.7427 53.7438 59.2274 54.4662C60.7121 55.1886 62.1136 54.0002 62.4099 53.4908C62.7061 52.9815 62.7927 51.4535 62.1569 50.8177C61.5211 50.1819 59.5703 49.4595 58.3819 51.1573H58.3786Z" fill="white"/>
<path d="M61.5543 51.294C61.4411 51.2074 60.8985 51.4704 60.4424 51.7434C60.3559 51.6269 60.276 51.5137 60.2061 51.4138C59.8233 50.8612 59.274 50.9045 59.1442 51.0743C59.051 51.1974 59.3672 51.8233 59.6602 52.2993C59.011 52.8552 58.4518 53.541 59.0942 53.501C59.4538 53.4811 59.8499 53.288 60.2194 53.055C60.7587 53.6675 61.3845 54.1502 61.3479 53.5343C61.3279 53.2114 61.1715 52.8652 60.9717 52.529C61.0583 52.4657 61.1382 52.4091 61.2148 52.3559C61.7673 51.9731 61.7241 51.4238 61.5543 51.294Z" fill="#EA1548"/>
<path d="M36.7074 37.945C36.055 37.945 35.752 37.7752 35.8552 38.0482C35.9584 38.3212 36.7407 38.4577 37.1169 38.3877C37.4931 38.3212 37.3199 37.945 36.7074 37.945Z" fill="#EA1548"/>
<path d="M38.4152 38.1845C37.9358 38.1512 37.4931 38.118 37.6995 38.3543C37.9025 38.594 38.5517 38.7305 38.8945 38.6606C39.2341 38.594 38.9278 38.2178 38.4185 38.1845H38.4152Z" fill="#EA1548"/>
<path d="M40.3226 38.3543C39.6734 38.3177 39.2307 38.321 39.4005 38.5241C39.5702 38.7271 40.5955 38.8636 40.8685 38.8636C41.1415 38.8636 40.9351 38.3876 40.3226 38.351V38.3543Z" fill="#EA1548"/>
<path d="M41.9271 38.5942C41.4245 38.6941 41.1781 38.6608 41.5876 38.9005C41.997 39.1402 43.1921 39.1402 43.1222 38.9338C43.0556 38.7307 42.27 38.5243 41.9271 38.5942Z" fill="#EA1548"/>
<path d="M44.78 39.2764C45.1561 39.2098 44.983 38.8337 44.3705 38.8337C43.7181 38.8337 43.4151 38.6639 43.5183 38.9369C43.6215 39.2098 44.4038 39.3463 44.78 39.2764Z" fill="#EA1548"/>
<path d="M46.5543 39.5497C46.8938 39.4831 46.5876 39.107 46.0783 39.0737C45.5989 39.0404 45.1562 39.0071 45.3626 39.2435C45.5656 39.4831 46.2147 39.6196 46.5576 39.5497H46.5543Z" fill="#EA1548"/>
<path d="M48.3519 39.7427C48.1256 39.9458 47.9691 40.5749 47.9991 40.9078C48.0324 41.2873 48.4218 41.1542 48.4784 40.5416C48.5184 40.1189 48.6149 39.8526 48.5983 39.7361C48.7581 39.6562 48.5383 39.2733 47.9891 39.2401C47.3399 39.2034 46.8972 39.2068 47.067 39.4098C47.2101 39.5829 47.9558 39.7061 48.3519 39.7394V39.7427Z" fill="#EA1548"/>
<path d="M47.9758 41.4901C47.7194 41.6732 47.523 42.3057 47.5596 42.6519C47.5963 42.9981 47.9991 42.7284 48.079 42.2224C48.1555 41.7497 48.2321 41.3103 47.9758 41.4934V41.4901Z" fill="#EA1548"/>
<path d="M47.6461 43.1712C47.4264 43.321 47.1967 44.3296 47.1701 44.5993C47.1435 44.8723 47.6395 44.7125 47.7294 44.1033C47.8259 43.4575 47.8658 43.0181 47.6461 43.1712Z" fill="#EA1548"/>
<path d="M46.8939 46.8364C47.1036 46.7865 47.3799 46.0241 47.3433 45.6779C47.29 45.1686 47.3433 44.9256 47.0703 45.3084C46.794 45.6946 46.6842 46.883 46.8939 46.8331V46.8364Z" fill="#EA1548"/>
<path d="M46.3978 48.4542C46.4311 48.8337 46.8206 48.7005 46.8772 48.088C46.9371 47.4389 47.1368 47.1526 46.8539 47.2292C46.5743 47.3057 46.3645 48.0747 46.3978 48.4542Z" fill="#EA1548"/>
<path d="M46.3779 49.0335C46.1215 49.2166 45.9251 49.8491 45.9617 50.1953C45.9984 50.5415 46.4012 50.2719 46.481 49.7659C46.5576 49.2932 46.6342 48.8538 46.3779 49.0369V49.0335Z" fill="#EA1548"/>
<path d="M46.0483 50.7178C45.8286 50.8676 45.5989 51.8763 45.5723 52.1459C45.5456 52.4189 46.0416 52.2591 46.1315 51.6499C46.2281 51.0041 46.268 50.5647 46.0483 50.7178Z" fill="#EA1548"/>
<path d="M45.296 54.383C45.5057 54.3331 45.782 53.5708 45.7454 53.2246C45.6921 52.7152 45.7454 52.4722 45.4724 52.8551C45.1961 53.2412 45.0863 54.4296 45.296 54.3797V54.383Z" fill="#EA1548"/>
<path d="M45.1728 55.7979C45.2693 55.1521 45.3093 54.7126 45.0896 54.8658C44.8698 55.0156 44.6402 56.0242 44.6135 56.2939C44.5869 56.5668 45.0829 56.4071 45.1728 55.7979Z" fill="#EA1548"/>
<path d="M45.3792 57.3292C44.74 57.2027 44.4737 56.9763 44.5236 57.2659C44.5703 57.5522 45.3159 57.8385 45.6954 57.8451C46.0782 57.8518 45.9817 57.449 45.3792 57.3325V57.3292Z" fill="#EA1548"/>
<path d="M47.0071 57.8917C46.5443 57.7685 46.1182 57.6453 46.2714 57.9216C46.4245 58.1946 47.037 58.4543 47.3832 58.4543C47.7328 58.4543 47.5031 58.0248 47.0071 57.895V57.8917Z" fill="#EA1548"/>
<path d="M48.8479 58.4309C48.2154 58.2711 47.7826 58.1879 47.9125 58.4209C48.039 58.654 49.0177 58.9869 49.2873 59.0401C49.5536 59.0934 49.4471 58.5841 48.8512 58.4309H48.8479Z" fill="#EA1548"/>
<path d="M50.3758 58.9736C49.8632 58.9736 49.6268 58.897 49.983 59.2099C50.3392 59.5229 51.511 59.7559 51.481 59.5395C51.4544 59.3265 50.722 58.9736 50.3758 58.9736Z" fill="#EA1548"/>
<path d="M52.726 59.6827C52.0869 59.5562 51.8206 59.3298 51.8705 59.6194C51.9171 59.9057 52.6628 60.192 53.0423 60.1987C53.4218 60.2053 53.3286 59.8025 52.726 59.686V59.6827Z" fill="#EA1548"/>
<path d="M54.3539 60.2452C53.8912 60.122 53.4618 59.9988 53.6182 60.2751C53.7714 60.5481 54.3839 60.8078 54.7301 60.8078C55.0796 60.8078 54.8499 60.3783 54.3539 60.2452Z" fill="#EA1548"/>
<path d="M56.1947 60.7813C55.5623 60.6215 55.1295 60.5383 55.2593 60.7713C55.3858 61.0043 56.3645 61.3372 56.6342 61.3905C56.9005 61.4437 56.794 60.9344 56.1981 60.7813H56.1947Z" fill="#EA1548"/>
<path d="M57.7228 61.3271C57.2101 61.3271 56.9738 61.2506 57.33 61.5635C57.6861 61.8764 58.8579 62.1094 58.828 61.893C58.798 61.6767 58.069 61.3271 57.7228 61.3271Z" fill="#EA1548"/>
<path d="M59.9731 61.4836C59.4172 61.4037 59.2241 61.5868 59.3939 62.0961C59.5636 62.6087 59.9731 63.0515 60.3825 62.6753C60.792 62.2992 60.9285 61.6167 59.9731 61.4802V61.4836Z" fill="#EA1548"/>
<path d="M52.3173 18.9609C52.2704 21.1355 52.3173 22.7625 53.2001 22.5569C54.0829 22.3513 54.4896 17.3317 54.3533 16.4489C54.217 15.5661 52.3843 15.8388 52.3173 18.9609Z" fill="#EA1548"/>
<path d="M60.0523 12.9873C58.7627 12.2408 57.4062 16.2458 56.8631 17.399C56.2507 18.6997 54.4203 22.2845 55.3031 22.8969C56.1859 23.507 58.8991 18.2818 59.7148 17.1956C60.5283 16.1095 61.3441 13.7338 60.0545 12.9873H60.0523Z" fill="#EA1548"/>
<path d="M62.428 19.0283C61.952 18.6886 60.5954 19.2987 59.7126 20.1144C57.8979 21.7906 56.7268 23.1696 57.4062 23.6434C58.0856 24.1194 61.3419 21.8778 62.0883 21.0643C62.8348 20.2508 62.9018 19.368 62.428 19.0283Z" fill="#EA1548"/>
</svg>
