<svg width="127" height="129" viewBox="0 0 127 129" fill="none" xmlns="http://www.w3.org/2000/svg">
<rect x="47.2798" y="-0.0194385" width="92.7179" height="95.5718" rx="13.7141" transform="rotate(30 47.2798 -0.0194385)" fill="#212121"/>
<rect x="47.2798" y="-0.0194385" width="92.7179" height="95.5718" rx="13.7141" transform="rotate(30 47.2798 -0.0194385)" stroke="#333333"/>
<path d="M78.4265 42.4351C69.9272 37.5281 52.3352 33.8684 40.7455 48.1066C29.1542 62.3474 37.7198 82.9321 53.7683 89.3077C69.8152 95.686 81.098 86.5607 88.1205 76.9001C95.1431 67.2395 94.6683 51.8088 78.428 42.4325L78.4265 42.4351Z" fill="#EA1548"/>
<path d="M62.5566 84.4242C56.9694 81.6603 50.5256 78.1743 46.8416 75.9319C43.1575 73.6894 36.7884 70.4741 35.2878 69.2613C33.7873 68.0486 32.9336 67.3213 32.4271 68.9987C31.9205 70.676 34.8593 73.4153 40.1707 76.251C45.4847 79.0881 52.1151 82.4508 55.626 84.5933C58.795 86.5279 64.0044 89.546 66.6101 91.0504C69.2158 92.5548 71.4483 94.3056 72.6271 92.67C73.8058 91.0344 68.1479 87.187 62.5592 84.4257L62.5566 84.4242Z" fill="#EA3F70"/>
<path d="M78.6202 86.6347C76.9855 85.5754 67.8085 80.8544 63.8313 78.7925C59.8582 76.7296 55.7256 73.1855 51.9364 70.9979C48.1473 68.8102 44.2216 66.6591 41.1023 64.2809C37.9845 61.9 35.44 60.6654 34.587 62.1427C33.7341 63.6201 32.8807 64.5164 34.6153 65.4024C36.35 66.2885 44.9751 71.3836 47.2841 72.8322C49.5932 74.2808 50.152 75.646 54.6315 78.0014C59.294 80.4519 62.7662 82.5825 67.6182 85.2684C72.4703 87.9542 75.8919 90.9723 78.4291 89.8866C80.9663 88.8009 80.2533 87.6965 78.6213 86.6388L78.6202 86.6347Z" fill="#EA3F70"/>
<path d="M81.1422 79.5152C75.9623 77.4518 71.9659 75.1444 67.1973 72.9686C62.4271 70.7953 59.7007 68.2941 54.3528 65.3219C49.0022 62.3482 47.6882 61.0123 43.432 58.5549C39.1758 56.0976 37.8143 54.038 36.0428 55.1005C34.2713 56.163 32.5915 56.4667 34.2652 57.7794C35.939 59.0921 39.8756 60.9031 43.2267 62.7223C46.5777 64.5416 54.9428 69.7176 58.1939 71.71C61.4449 73.7025 68.2312 78.2013 70.8518 79.4799C77.0698 82.5206 78.858 83.8714 81.6003 85.3392C84.3426 86.807 85.4029 86.3765 86.1558 85.0724C86.9088 83.7682 86.3195 81.5771 81.1396 79.5137L81.1422 79.5152Z" fill="#EA3F70"/>
<path d="M63.4894 39.6191C65.0482 41.3308 69.8132 44.3128 72.6081 45.6955C75.4004 47.0767 80.3546 49.937 83.0603 51.2682C85.766 52.5994 89.2892 55.3263 89.67 53.4609C90.0508 51.5955 89.0956 51.044 84.1306 48.4084C79.1656 45.7728 72.7367 42.061 72.7367 42.061C70.8398 40.7349 67.318 38.0054 65.1902 37.4731C63.0649 36.9424 61.9279 37.9059 63.4894 39.6191Z" fill="#EA3F70"/>
<path d="M63.6352 46.1899C69.2224 48.9538 75.6663 52.4398 79.3503 54.6822C83.037 56.9262 89.4035 60.14 90.904 61.3528C92.4046 62.5655 93.2582 63.2928 93.7648 61.6154C94.2714 59.9381 91.3325 57.1988 86.0212 54.3632C80.7072 51.526 74.0767 48.1633 70.5659 46.0208C67.3969 44.0862 62.1874 41.0681 59.5817 39.5637C56.976 38.0593 54.7435 36.3085 53.5648 37.9441C52.3887 39.5813 58.0439 43.4271 63.6326 46.1884L63.6352 46.1899Z" fill="#EA3F70"/>
<path d="M47.6293 44.0129C49.3165 45.1024 58.7769 49.9871 62.8748 52.1186C66.9713 54.2528 71.2482 57.8801 75.1581 60.1375C79.0679 62.3948 83.1143 64.6156 86.3386 67.0544C89.5614 69.4959 92.182 70.7745 93.0349 69.2971C93.8879 67.8198 94.7491 66.928 92.962 66.0117C91.1749 65.0953 82.2768 59.8426 79.8943 58.3516C77.5118 56.8606 76.9215 55.4772 72.3029 53.0415C67.4987 50.5092 63.9137 48.3135 58.9095 45.5397C53.9079 42.7675 50.3629 39.6782 47.7811 40.7382C45.2008 41.7956 45.9411 42.9192 47.6309 44.0103L47.6293 44.0129Z" fill="#EA3F70"/>
<path d="M45.047 51.0975C50.2269 53.1609 54.2233 55.4683 58.9919 57.6441C63.762 59.8174 66.4884 62.3186 71.8364 65.2908C77.1843 68.263 78.5009 69.6004 82.7572 72.0577C87.0134 74.5151 88.3749 76.5747 90.1464 75.5122C91.9179 74.4497 93.5977 74.146 91.9239 72.8333C90.2502 71.5206 86.3136 69.7096 82.9625 67.8903C79.6115 66.0711 71.2464 60.8951 67.9953 58.9026C64.7442 56.9102 57.958 52.4114 55.3374 51.1328C49.1193 48.0921 47.3311 46.7413 44.5888 45.2735C41.8466 43.8057 40.7863 44.2362 40.0334 45.5403C39.2804 46.8445 39.8697 49.0355 45.0496 51.099L45.047 51.0975Z" fill="#EA3F70"/>
<path d="M88.1191 76.9027C86.7584 75.7568 81.4002 74.4021 77.4904 72.1448C73.5805 69.8874 62.3659 62.0236 59.637 60.3326C56.9081 58.6417 55.0184 57.897 55.0184 57.897C49.9044 54.7135 45.0884 52.6258 41.759 51.1689C38.4312 49.7094 38.2982 48.9398 37.1303 51.1625C35.9625 53.3853 40.8265 57.0017 48.1033 60.0449C55.3801 63.0881 56.2611 64.174 62.6802 67.3028C69.1009 70.429 71.2587 71.9092 76.9923 75.2195C82.7258 78.5297 84.6569 80.8027 86.4542 80.1015C88.2489 79.3988 89.4824 78.0502 88.1217 76.9043L88.1191 76.9027Z" fill="#EA3F70"/>
<path d="M62.6999 90.9935C61.1411 89.2818 56.3761 86.2998 53.5812 84.917C50.7889 83.5358 45.8347 80.6755 43.129 79.3443C40.9468 78.2699 38.2365 76.2922 37.0677 76.5411C36.809 77.3224 36.6881 78.0713 36.7498 78.8067C37.3409 79.6797 38.875 80.513 42.0576 82.2C47.0226 84.8356 53.4515 88.5473 53.4515 88.5473C55.3484 89.8735 58.8702 92.603 60.998 93.1352C63.1232 93.666 64.2603 92.7025 62.6988 90.9893L62.6999 90.9935Z" fill="#EA3F70"/>
<path d="M57.4953 42.3897C57.7626 42.3691 57.9463 42.1358 57.8799 41.863C57.7946 41.5199 57.2762 41.3815 57.0981 41.702C56.9227 42.0241 57.2306 42.4118 57.4953 42.3897Z" fill="#A51B42"/>
<path d="M49.1947 43.1498C49.3909 42.9797 49.3937 42.6839 49.1766 42.5026C49.0485 42.3972 48.8757 42.3814 48.7315 42.4311C47.8576 42.1994 45.7013 42.3225 45.2951 42.6443C44.789 43.0483 40.1904 46.838 39.356 47.5983C38.5217 48.3587 39.2325 49 40.152 50.3041C41.2003 51.791 42.0286 51.8774 42.5017 51.6397C42.9764 51.3994 48.3226 47.2542 48.6372 46.5576C48.8908 45.9973 49.0752 44.1689 49.1088 43.2017C49.1434 43.1902 49.1743 43.1731 49.1974 43.1514L49.1947 43.1498Z" fill="#A51B42"/>
<path d="M50.5657 42.563C50.8323 42.1921 50.7014 42.134 50.5452 41.9319C50.3688 41.7041 49.5556 42.1128 49.7188 42.6058C49.8782 43.0932 50.3006 42.9312 50.5657 42.563Z" fill="#A51B42"/>
<path d="M51.395 41.6841C51.1218 41.6664 50.6829 41.9903 50.9711 42.2546C51.2567 42.5175 51.6275 42.4691 51.7688 42.2183C51.9112 41.9717 51.7696 41.708 51.395 41.6841Z" fill="#A51B42"/>
<path d="M52.6845 41.4141C52.4464 41.3781 51.9999 41.6241 52.2219 41.9063C52.4398 42.1895 52.4652 42.3091 52.8229 42.1622C53.1817 42.0195 53.1404 41.4849 52.6845 41.4141Z" fill="#A51B42"/>
<path d="M53.9916 41.4164C53.6636 41.2271 53.2438 41.3906 53.3728 41.7065C53.4977 42.0235 53.6493 42.076 53.9137 41.9453C54.1781 41.8145 54.2252 41.5513 53.9916 41.4164Z" fill="#A51B42"/>
<path d="M55.3303 41.1644C55.0622 41.0167 54.5646 41.1877 54.5914 41.5776C54.6157 41.9659 55.0675 42.1043 55.296 41.9389C55.526 41.7708 55.6115 41.3198 55.3303 41.1644Z" fill="#A51B42"/>
<path d="M56.2971 41.2957C56.1318 41.2002 55.7291 41.2371 55.7481 41.5315C55.767 41.8259 56.0835 42.1625 56.3635 42.0653C56.6436 41.9681 56.8256 41.6043 56.2997 41.2972L56.2971 41.2957Z" fill="#A51B42"/>
<path d="M76.0126 73.2196C77.1855 71.2062 78.1823 69.504 78.8539 68.4013C82.0519 63.1592 86.2109 55.3616 82.5264 53.0595C81.6078 52.4871 80.5241 51.8614 79.4166 51.2465C79.7471 50.7166 80.0987 50.1499 80.435 49.5918C80.4471 49.5708 80.4592 49.5498 80.4713 49.5288C80.5304 49.4264 80.5921 49.3256 80.6523 49.2274C80.6553 49.2222 80.6584 49.2169 80.6614 49.2117C80.722 49.1067 80.7811 49.0044 80.8443 48.9009C80.8534 48.8852 80.861 48.8721 80.8701 48.8563C81.1161 48.9634 81.3597 49.0445 81.591 49.0801C82.4752 49.2092 82.7536 48.8906 83.5713 47.6379C84.3891 46.3851 85.4733 43.18 82.6734 41.5635C79.8736 39.947 76.8859 38.3165 76.8859 38.3165C72.8507 36.1792 69.5137 34.8264 68.0755 36.4872C66.6374 38.148 65.7253 39.7276 65.8849 40.7784C65.9469 41.1921 66.3305 41.564 66.8102 41.8724L66.5685 42.3032L65.6892 43.8808C63.2361 42.7059 61.1697 42.0552 59.3665 42.2211C59.3695 42.2159 59.3658 42.2102 59.3647 42.2061C59.3641 41.9223 58.4312 41.7686 58.2633 42.2594C58.2385 42.3326 58.2307 42.3946 58.2312 42.4544C56.748 42.9206 55.4433 44.0531 54.2313 46.0614C50.2092 52.731 38.5504 72.6217 37.1974 76.165C36.2601 78.6188 36.6002 80.7324 39.4343 83.0895C38.7841 84.0156 37.8784 85.6269 38.7992 86.365C39.7459 87.125 40.8177 86.4807 41.5541 85.4294C41.5708 85.4006 41.5927 85.3747 41.6135 85.3448C41.6971 85.2181 41.7796 85.0873 41.8543 84.952C41.877 84.9126 41.8945 84.8702 41.9172 84.8309C42.75 85.3397 43.6944 85.8674 44.7679 86.4138C48.3561 88.2405 52.033 90.5802 55.1712 92.3257C55.1652 92.3361 55.1591 92.3466 55.1546 92.3545C55.0876 92.4523 55.0259 92.5531 54.9668 92.6555C54.9668 92.6555 54.9653 92.6581 54.9638 92.6607C54.2381 93.9176 54.0695 95.4157 55.3271 95.9039C56.1562 96.2251 56.8939 95.402 57.4115 94.5357C57.5819 94.2527 57.7282 93.9629 57.8451 93.712C60.1044 94.768 61.8741 95.2054 62.8018 94.4045C64.5754 92.8779 70.7241 82.3069 75.1124 74.7606C75.5746 74.6146 75.9839 74.1722 76.0085 73.2207L76.0126 73.2196ZM73.1325 40.8483C75.1659 41.6409 78.451 43.2472 79.0257 43.579C79.6004 43.9108 80.0709 44.7562 79.6558 45.4752C79.2407 46.1942 78.5771 47.3435 79.1109 47.7462C79.142 47.7711 79.1798 47.7965 79.2135 47.8229C78.809 48.4326 78.1912 49.3634 77.6463 50.2769C74.9344 48.8231 72.5246 47.6278 72.5246 47.6278C70.5933 46.5127 68.8457 45.5038 67.2506 44.6668C67.5176 44.2226 67.7816 43.7593 68.0302 43.3045C68.1613 43.0653 68.2867 42.8299 68.4091 42.5997C68.6118 42.6607 68.7845 42.7009 68.8991 42.7146C69.5271 42.7903 70.2692 42.1656 70.7551 41.4875C71.2411 40.8094 71.1001 40.0598 73.1351 40.8498L73.1325 40.8483Z" fill="#A51B42"/>
<path d="M62.6998 90.9937C61.141 89.282 56.376 86.3 53.5811 84.9172C50.7888 83.536 45.8346 80.6757 43.1289 79.3445C40.4232 78.0133 36.8999 75.2864 36.5192 77.1518C36.1384 79.0172 37.0936 79.5687 42.0586 82.2043C47.0236 84.8399 53.4525 88.5517 53.4525 88.5517C55.3495 89.8778 58.8712 92.6073 60.999 93.1396C63.1242 93.6703 64.2613 92.7069 62.6998 90.9937Z" fill="#EA1548"/>
<path d="M62.5565 84.4242C56.9693 81.6603 50.5255 78.1744 46.8415 75.9319C44.7657 74.667 41.8409 73.0973 39.4104 71.7501C38.7385 72.9926 38.1817 74.0601 37.7792 74.8844C38.5097 75.3341 39.309 75.792 40.1679 76.2495C45.4819 79.0866 52.1124 82.4494 55.6232 84.5918C58.4504 86.3185 62.8985 88.9041 65.6758 90.5112C66.301 89.5496 66.9812 88.4623 67.699 87.2918C66.1257 86.296 64.3363 85.3048 62.5539 84.4227L62.5565 84.4242Z" fill="#EA1548"/>
<path d="M51.9379 70.9952C48.8284 69.1999 45.6361 67.4268 42.8623 65.5349C42.1774 66.7454 41.5224 67.9102 40.9151 69.0045C43.5218 70.5375 46.1594 72.1198 47.2872 72.8269C49.5962 74.2755 50.155 75.6407 54.6345 77.9961C59.2971 80.4466 62.7692 82.5772 67.6213 85.2631C67.9549 85.4487 68.2792 85.6324 68.6004 85.8214C69.2785 84.7014 69.9787 83.5312 70.6811 82.3448C68.1104 81.0041 65.5126 79.6617 63.8354 78.7913C59.8623 76.7284 55.7297 73.1843 51.9406 70.9967L51.9379 70.9952Z" fill="#EA1548"/>
<path d="M54.3538 65.326C50.2261 63.0339 48.5013 61.7127 45.9754 60.1004C45.3664 61.1553 44.7588 62.2075 44.1657 63.247C47.9374 65.3862 55.2122 69.8872 58.1922 71.7127C61.4433 73.7051 68.2296 78.204 70.8502 79.4825C71.2589 79.6836 71.6493 79.874 72.0209 80.0605C72.756 78.8055 73.485 77.561 74.1785 76.366C71.8789 75.2342 69.6388 74.0844 67.1956 72.9712C62.4255 70.798 59.6991 68.2967 54.3512 65.3245L54.3538 65.326Z" fill="#EA1548"/>
<path d="M66.814 41.8779L66.6586 42.1591C67.1307 42.4807 67.6216 42.8061 68.1238 43.124C68.2201 42.9451 68.3148 42.7689 68.408 42.5953C68.6107 42.6564 68.7834 42.6966 68.898 42.7103C69.526 42.786 70.2681 42.1613 70.754 41.4832C70.9008 41.2775 70.9949 41.066 71.1032 40.8905C69.7744 39.9379 68.2 38.847 66.8227 38.1358C66.1488 39.1637 65.7865 40.0882 65.8902 40.7813C65.9522 41.195 66.3358 41.5669 66.8155 41.8753L66.814 41.8779Z" fill="#EA1548"/>
<path d="M79.1108 47.7462C79.1419 47.7711 79.1798 47.7965 79.2135 47.8229C79.0239 48.1088 78.7852 48.4678 78.5309 48.8598C79.1341 49.1906 79.7257 49.5112 80.2964 49.8196C80.3418 49.7409 80.391 49.6678 80.4364 49.5891C80.4486 49.5681 80.4607 49.5471 80.4728 49.5261C80.5319 49.4238 80.5936 49.323 80.6538 49.2248C80.6568 49.2195 80.6598 49.2143 80.6629 49.209C80.7235 49.1041 80.7826 49.0017 80.8458 48.8983C80.8549 48.8825 80.8625 48.8694 80.8715 48.8537C81.1176 48.9608 81.3612 49.0419 81.5925 49.0775C82.388 49.1904 82.6947 48.9441 83.3442 47.9826C82.0672 47.2978 80.7254 46.5616 79.438 45.8463C79.0557 46.5388 78.6591 47.4014 79.1071 47.7405L79.1108 47.7462Z" fill="#EA1548"/>
<path d="M63.6351 46.19C69.2223 48.954 75.6662 52.4399 79.3502 54.6824C80.6362 55.4668 82.2505 56.3673 83.872 57.2615C84.1572 55.4039 83.8442 53.8797 82.5264 53.0594C81.6078 52.487 80.5241 51.8613 79.4166 51.2464C79.4708 51.1587 79.5294 51.0632 79.5851 50.9728C78.981 50.6556 78.3838 50.3387 77.7943 50.0264C77.7459 50.1104 77.6906 50.194 77.6421 50.2779C74.9302 48.8242 72.5205 47.6288 72.5205 47.6288C70.5892 46.5138 68.8416 45.5048 67.2465 44.6679C67.34 44.5119 67.4283 44.353 67.5218 44.197C67.0289 43.9055 66.5229 43.6063 66.0153 43.3098L65.6929 43.8864C63.2399 42.7115 61.1734 42.0608 59.3702 42.2267C59.3733 42.2215 59.3695 42.2158 59.3684 42.2117C59.3678 41.9279 58.4349 41.7742 58.267 42.265C58.2422 42.3382 58.2344 42.4002 58.2349 42.4599C58.008 42.5319 57.7881 42.6218 57.57 42.7268C59.342 43.9178 61.4939 45.1357 63.6336 46.1927L63.6351 46.19Z" fill="#EA1548"/>
<path d="M75.1564 60.1403C77.2661 61.3583 79.4158 62.5679 81.4536 63.8075C82.061 62.6222 82.6109 61.4212 83.0426 60.2675C81.6902 59.4587 80.5466 58.7669 79.8938 58.3585C77.5113 56.8675 76.921 55.4841 72.3024 53.0484C67.4981 50.5161 63.9131 48.3204 58.9089 45.5466C57.8723 44.9726 56.9015 44.3877 55.9877 43.8251C55.379 44.4008 54.7973 45.1356 54.2365 46.0644C54.0196 46.422 53.7841 46.8178 53.5262 47.2462C56.8198 48.9833 60.6418 50.9625 62.8743 52.1255C66.9707 54.2597 71.2477 57.8871 75.1575 60.1444L75.1564 60.1403Z" fill="#EA1548"/>
<path d="M71.8379 65.2881C74.8765 66.9759 76.6122 68.139 78.3277 69.2764C78.5208 68.954 78.6972 68.6605 78.8555 68.3985C79.2666 67.7227 79.6953 67.0045 80.1199 66.263C76.1679 63.9394 70.529 60.4529 67.9942 58.8984C64.7432 56.906 57.9569 52.4071 55.3363 51.1285C54.1217 50.5357 53.0796 50.0075 52.1636 49.5277C51.4914 50.6616 50.7466 51.9214 49.9634 53.2536C53.011 54.7017 55.8343 56.1988 58.9908 57.6399C63.761 59.8131 66.4874 62.3144 71.8353 65.2866L71.8379 65.2881Z" fill="#EA1548"/>
<path d="M76.0126 73.2195C76.305 72.7131 76.5879 72.2292 76.8586 71.7662C72.4927 69.1231 62.2338 61.9371 59.6383 60.3301C56.9095 58.6391 55.0197 57.8945 55.0197 57.8945C52.9966 56.6355 51.0242 55.5492 49.168 54.607C48.2804 56.1202 47.3555 57.71 46.4272 59.3118C46.9703 59.5589 47.5258 59.8026 48.1005 60.0435C55.3773 63.0866 56.2583 64.1726 62.6774 67.3014C68.5599 70.1658 70.8669 71.6482 75.6227 74.422C75.8415 74.1704 75.992 73.7885 76.0084 73.2207L76.0126 73.2195Z" fill="#EA1548"/>
<path d="M62.2392 93.1488C62.2392 93.1488 60.9079 90.6553 59.6922 91.9792C58.4806 93.3019 57.7931 95.5291 59.385 96.1472C60.9769 96.7654 62.2392 93.1488 62.2392 93.1488Z" fill="#E3EAFF"/>
<path d="M44.0308 82.6364C44.0308 82.6364 41.5299 85.5379 42.8612 86.6075C44.1925 87.677 45.7775 85.968 46.3172 84.2574C46.857 82.5468 44.0308 82.6364 44.0308 82.6364Z" fill="#E3EAFF"/>
<path d="M44.0464 83.4396C44.0464 83.4396 42.2684 85.5374 42.936 86.0173C43.6062 86.4987 45.2645 83.9539 45.2645 83.9539L44.0464 83.4396Z" fill="#C3CCE2"/>
<path d="M59.9906 92.0746C59.9906 92.0746 58.5025 94.8156 59.1727 95.297C59.8429 95.7784 61.3423 92.1937 61.3423 92.1937L59.9906 92.0746Z" fill="#C3CCE2"/>
<path d="M44.0309 82.6365C44.0309 82.6365 43.4238 83.3426 42.9672 84.1881C43.4926 84.7748 44.3153 85.5437 45.3451 86.0263C45.7698 85.5333 46.1176 84.8944 46.3189 84.2549C46.8587 82.5443 44.0325 82.6339 44.0325 82.6339L44.0309 82.6365Z" fill="#95A0B5"/>
<path d="M59.6922 91.9792C59.3538 92.3471 59.0629 92.7844 58.8444 93.2356C59.4722 93.6995 60.4442 94.3552 61.4694 94.7791C61.9477 93.9811 62.2392 93.1488 62.2392 93.1488C62.2392 93.1488 60.9079 90.6553 59.6922 91.9792Z" fill="#95A0B5"/>
<path d="M76.5783 47.8725C67.3731 42.5579 62.3139 39.637 58.2918 46.3066C54.2696 52.9761 42.6108 72.8669 41.2578 76.4102C39.9064 79.9508 41.2122 82.7795 48.8258 86.6574C56.4419 90.5368 64.4549 96.7165 66.8596 94.6481C69.2644 92.5798 79.7111 73.8856 82.9091 68.6434C86.1071 63.4013 90.2661 55.6037 86.5816 53.3015C82.8956 51.002 76.5783 47.8725 76.5783 47.8725Z" fill="#5775F2"/>
<path d="M71.5659 46.3432C69.2901 44.7703 63.8572 43.1451 63.7517 44.9035C63.6461 46.6619 72.6262 50.0272 75.6124 51.7513C78.5986 53.4754 84.593 57.2792 85.3355 58.1627C86.0779 59.0462 87.1994 56.5098 86.4994 54.965C85.7978 53.4229 74.5768 48.4244 71.5685 46.3447L71.5659 46.3432Z" fill="#7594F9"/>
<path d="M61.4412 47.3237C60.4973 48.6191 51.0247 64.9717 48.7582 68.8973C46.4918 72.8229 43.6133 82.5354 42.9338 81.3489C42.2559 80.1597 39.2685 81.3949 46.6589 67.8006C54.0518 54.2079 59.0949 46.6547 60.2738 45.4006C61.4527 44.1464 62.5697 43.1994 62.7479 43.8726C62.9287 44.5473 63.0728 45.0853 61.437 47.3248L61.4412 47.3237Z" fill="#4564C9"/>
<path d="M85.098 54.3623C84.4 53.9593 83.0934 54.0167 83.559 55.2161C84.0287 56.4145 86.3012 57.2052 86.3456 56.4192C86.3927 55.6346 85.7934 54.7638 85.0954 54.3608L85.098 54.3623Z" fill="white"/>
<path d="M86.3388 57.3459C85.9781 57.1587 85.2108 57.3909 85.5992 58.021C85.9903 58.6527 87.2778 57.8286 86.3388 57.3459Z" fill="white"/>
<path d="M44.2084 50.5503C43.2915 49.2477 42.5795 48.6022 43.4124 47.8445C44.2467 47.0841 48.8453 43.2945 49.3515 42.8905C49.8577 42.4864 53.0966 42.3971 53.1578 42.9153C53.219 43.4335 53.0045 46.1016 52.6925 46.7997C52.3778 47.4962 47.0316 51.6415 46.557 51.8817C46.0824 52.122 45.2541 52.0357 44.2073 50.5461L44.2084 50.5503Z" fill="#5775F2"/>
<path d="M48.3466 44.8855C47.1107 45.7778 44.131 47.6542 44.3372 48.291C44.5433 48.9279 45.4733 50.9833 46.1736 50.8733C46.8739 50.7633 49.8527 48.2461 50.4576 47.7801C51.0625 47.3141 50.9382 46.6931 50.4865 46.009C50.0363 45.3222 49.4419 44.0973 48.3477 44.8896L48.3466 44.8855Z" fill="#E3EAFF"/>
<path d="M51.6543 43.1319C50.5882 43.2756 48.8879 43.3541 49.6526 43.981C50.4161 44.6038 51.3055 45.6631 51.3163 46.3655C51.3271 47.068 49.962 48.687 49.1431 49.2569C48.3258 49.8241 48.8209 49.9665 49.4891 49.4636C50.1573 48.9607 52.1732 47.3781 52.3275 46.729C52.4819 46.0798 52.6306 44.3254 52.7508 43.7475C52.871 43.1697 52.0525 43.0784 51.6543 43.1319Z" fill="#4564C9"/>
<path d="M47.5434 46.416C47.06 46.7807 44.7658 48.6575 44.8708 48.7181C44.9758 48.7787 45.4746 48.3389 45.9484 47.9303C46.4208 47.5242 47.6966 46.6234 48.3694 46.1792C49.0449 45.7364 49.4869 45.3829 49.3271 45.3081C49.1659 45.236 47.5434 46.416 47.5434 46.416Z" fill="#95A0B5"/>
<path d="M48.4679 47.6145C47.9845 47.9792 45.6903 49.856 45.7953 49.9166C45.9003 49.9772 46.3991 49.5374 46.8729 49.1288C47.3453 48.7227 48.6211 47.8219 49.2939 47.3777C49.9667 46.9334 50.4114 46.5814 50.2516 46.5066C50.0904 46.4345 48.4679 47.6145 48.4679 47.6145Z" fill="#95A0B5"/>
<path d="M47.9499 47.0391C47.4665 47.4037 45.1723 49.2805 45.2773 49.3411C45.3822 49.4017 45.881 48.962 46.3549 48.5533C46.8273 48.1473 48.1031 47.2465 48.7759 46.8022C49.4487 46.358 49.8934 46.0059 49.7336 45.9312C49.5724 45.859 47.9499 47.0391 47.9499 47.0391Z" fill="#95A0B5"/>
<path d="M61.156 41.9456C60.9805 42.2676 61.2885 42.6553 61.5532 42.6332C61.8205 42.6126 62.0042 42.3793 61.9377 42.1065C61.8525 41.7634 61.334 41.625 61.156 41.9456Z" fill="#E3EAFF"/>
<path d="M62.3264 42.5059C62.1589 42.99 62.6105 43.1108 63.0561 42.9692C63.5044 42.8291 63.4316 42.7067 63.4279 42.4526C63.4273 42.1688 62.4944 42.0151 62.3264 42.5059Z" fill="#E3EAFF"/>
<path d="M64.2853 42.7551C64.0704 42.582 63.5059 42.578 63.5835 42.9587C63.6585 43.3379 63.9967 43.5156 64.2671 43.3988C64.5359 43.2846 64.5819 42.9928 64.2853 42.7551Z" fill="#E3EAFF"/>
<path d="M65.5153 43.2972C65.3435 43.1281 64.8222 43.0615 64.8307 43.4163C64.8367 43.7696 64.784 43.8791 65.168 43.9714C65.5506 44.0663 65.8434 43.6196 65.5153 43.2972Z" fill="#E3EAFF"/>
<path d="M65.898 43.9311C65.8052 44.2554 65.8978 44.3859 66.1949 44.4349C66.4919 44.484 66.6901 44.3045 66.5825 44.0604C66.4292 43.72 65.9855 43.6038 65.8953 43.9296L65.898 43.9311Z" fill="#E3EAFF"/>
<path d="M66.9758 44.5428C66.7583 44.8651 67.0426 45.2392 67.329 45.2401C67.6169 45.2383 67.9663 44.9362 67.8315 44.6485C67.7053 44.3762 67.1934 44.2206 66.9717 44.5439L66.9758 44.5428Z" fill="#E3EAFF"/>
<path d="M68.5371 45.3112C68.463 45.1425 68.1118 44.9327 67.9439 45.1751C67.7759 45.4175 67.8303 45.8688 68.117 45.9539C68.4012 46.0374 68.7744 45.8576 68.5371 45.3112Z" fill="#E3EAFF"/>
<path d="M52.5326 43.065C52.5911 43.4241 53.0565 43.5634 53.2527 43.3933C53.4489 43.2231 53.4517 42.9274 53.2346 42.746C52.9605 42.5178 52.4756 42.7032 52.5341 43.0623L52.5326 43.065Z" fill="#E3EAFF"/>
<path d="M53.7767 42.8492C53.9362 43.3366 54.3586 43.1747 54.6237 42.8064C54.8903 42.4355 54.7594 42.3774 54.6032 42.1753C54.4268 41.9475 53.6136 42.3562 53.7767 42.8492Z" fill="#E3EAFF"/>
<path d="M55.4529 41.9277C55.1797 41.9099 54.7408 42.2338 55.029 42.4982C55.3146 42.761 55.6854 42.7127 55.8267 42.4619C55.9691 42.2152 55.8275 41.9515 55.4529 41.9277Z" fill="#E3EAFF"/>
<path d="M56.7424 41.6576C56.5043 41.6216 56.0578 41.8677 56.2798 42.1498C56.4977 42.433 56.5231 42.5526 56.8808 42.4058C57.2396 42.2631 57.1984 41.7284 56.7424 41.6576Z" fill="#E3EAFF"/>
<path d="M58.0496 41.66C57.7216 41.4706 57.3018 41.6341 57.4308 41.95C57.5557 42.267 57.7073 42.3195 57.9717 42.1888C58.2361 42.0581 58.2831 41.7948 58.0496 41.66Z" fill="#E3EAFF"/>
<path d="M59.3883 41.4077C59.1202 41.26 58.6226 41.431 58.6494 41.8209C58.6736 42.2092 59.1255 42.3476 59.354 42.1822C59.584 42.0141 59.6694 41.5631 59.3883 41.4077Z" fill="#E3EAFF"/>
<path d="M60.3551 41.539C60.1898 41.4435 59.7871 41.4804 59.8061 41.7748C59.8251 42.0692 60.1415 42.4058 60.4216 42.3086C60.7016 42.2114 60.8836 41.8476 60.3577 41.5405L60.3551 41.539Z" fill="#E3EAFF"/>
<path d="M71.5519 40.9013L68.72 45.9699C68.72 45.9699 67.778 47.4378 68.9171 47.6161C70.0588 47.796 73.1005 41.6974 73.6197 40.4647C74.139 39.2321 72.6627 38.4742 71.5508 40.8971L71.5519 40.9013Z" fill="#E3EAFF"/>
<path d="M83.6422 47.4967C83.1574 48.2699 80.1016 52.6355 80.5805 53.2968C81.0593 53.9582 81.709 54.3297 83.0646 52.1454C84.4216 49.9585 86.4733 46.7382 86.2081 46.2037C85.9444 45.6666 84.8736 45.5276 83.6407 47.4994L83.6422 47.4967Z" fill="#E3EAFF"/>
<path d="M71.4219 41.8234C71.3444 42.1636 68.4276 46.3854 68.6566 46.9585C68.8855 47.5315 69.9063 45.8362 70.5869 44.5847C71.2701 43.3347 72.244 41.8538 72.3147 41.1738C72.3854 40.4939 71.5258 41.3586 71.4207 41.8193L71.4219 41.8234Z" fill="#C3CCE2"/>
<path d="M83.4885 48.2722C83.0885 48.9649 80.9878 52.1186 80.8828 52.5792C80.7778 53.0399 80.7045 53.7183 81.2585 53.0375C81.8125 52.3568 84.1065 48.3106 84.4079 47.7219C84.7093 47.1332 83.8869 47.5821 83.4885 48.2722Z" fill="#C3CCE2"/>
<path d="M71.7047 43.2181C71.3779 43.3478 69.3897 46.7309 69.6074 46.7901C69.8252 46.8493 70.817 45.5676 71.1558 44.8536C71.4946 44.1395 71.937 43.1248 71.7047 43.2181Z" fill="white"/>
<path d="M82.8101 51.0469C82.3667 51.5361 81.29 53.0557 81.5603 53.2118C81.8305 53.3678 83.1829 51.3041 83.4817 50.7139C83.7831 50.1252 83.3582 50.4431 82.8101 51.0469Z" fill="white"/>
<path d="M72.0812 43.5476C72.4901 42.797 72.8635 42.0714 73.1453 41.4924C72.6871 41.0984 72.2405 40.7811 71.9071 40.7041C71.8241 40.6841 71.743 40.6793 71.6641 40.6827C71.6258 40.755 71.5905 40.8222 71.5518 40.9013L70.6301 42.5523C70.9346 42.8611 71.4248 43.2666 72.0812 43.5476Z" fill="#95A0B5"/>
<path d="M83.6422 47.4969C83.5056 47.7154 83.1587 48.2253 82.7488 48.8564C83.1292 49.2824 83.6759 49.808 84.2986 50.1535C84.8676 49.2225 85.4164 48.2903 85.7834 47.5575L84.619 46.308C84.3157 46.5667 83.9848 46.9459 83.6437 47.4942L83.6422 47.4969Z" fill="#95A0B5"/>
<path d="M80.9475 38.5657C76.9123 36.4284 73.5753 35.0756 72.1372 36.7364C70.699 38.3972 69.787 39.9769 69.9465 41.0276C70.1061 42.0784 72.3237 42.8794 72.9517 42.9551C73.5798 43.0308 74.3218 42.4061 74.8078 41.728C75.2937 41.0499 75.1527 40.3003 77.1877 41.0903C79.2212 41.883 82.5063 43.4892 83.081 43.821C83.6556 44.1528 84.1262 44.9983 83.711 45.7173C83.2959 46.4363 82.6324 47.5856 83.1661 47.9882C83.6999 48.3909 84.7659 49.1988 85.65 49.3278C86.5342 49.4569 86.8126 49.1383 87.6303 47.8856C88.4481 46.6328 89.5323 43.4277 86.7324 41.8112C83.9326 40.1947 80.9449 38.5642 80.9449 38.5642L80.9475 38.5657Z" fill="#5775F2"/>
<path d="M84.3706 43.187C82.8435 42.1234 80.4201 40.9516 79.4255 40.4684C78.431 39.9852 75.6151 39.1781 76.692 40.0763C77.4019 40.6646 81.0691 41.9666 82.4021 42.7363C83.7352 43.5059 84.7847 44.2938 84.4431 44.9642C84.103 45.6321 83.1273 47.1645 83.4905 47.5596C83.8552 47.9521 84.2777 48.0141 84.8701 46.9881C85.4624 45.9621 85.9015 44.2563 84.3743 43.1926L84.3706 43.187Z" fill="#4564C9"/>
<path d="M73.6947 36.9777C73.3785 36.6587 72.5058 36.7461 72.2377 37.3681C71.9252 38.0973 70.2666 40.467 70.7034 41.1285C71.1401 41.7901 71.7166 40.7129 72.2105 39.8574C72.7044 39.002 74.0082 37.2951 73.692 36.9762L73.6947 36.9777Z" fill="#4564C9"/>
<path d="M87.8642 45.9774C88.4633 44.5459 88.0047 43.0495 87.0154 42.4784C86.0262 41.9072 83.0269 39.9937 82.1491 39.6233C81.2713 39.253 77.7825 37.5571 77.7825 37.5571C76.0978 36.7664 75.3104 36.9486 75.419 37.4696C75.529 37.9879 80.986 40.4563 82.773 41.3061C84.5601 42.1559 86.9177 43.8354 86.9043 44.6464C86.8909 45.4574 85.2508 47.7468 85.6837 48.1787C86.1166 48.6105 87.2693 47.4078 87.8658 45.9747L87.8642 45.9774Z" fill="#7594F9"/>
<path d="M75.4616 39.0441C74.837 38.8654 73.8288 39.4239 73.4099 40.2282C72.9895 41.0351 72.2752 42.3511 72.9195 42.4956C73.5638 42.6402 74.2441 41.6195 74.3622 41.4148C74.4804 41.2101 75.0697 40.0319 75.338 39.8824C75.7396 39.6594 76.085 39.2186 75.459 39.0426L75.4616 39.0441Z" fill="#7594F9"/>
<path d="M82.9585 40.1851C82.4468 39.8897 81.9258 39.9982 82.1408 40.5772C82.3532 41.1547 83.9971 42.3312 84.4566 41.7778C84.9134 41.2228 83.4728 40.482 82.9611 40.1866L82.9585 40.1851Z" fill="white"/>
<path d="M86.3329 42.3153C85.7022 41.8322 84.4133 41.6164 84.9865 42.3567C85.5597 43.097 87.458 44.7843 87.7482 44.3605C88.0383 43.9367 87.3131 43.0597 86.3344 42.3127L86.3329 42.3153Z" fill="white"/>
<path d="M74.2837 53.1498C66.7701 49.0078 64.7265 49.4933 62.6252 52.7935C60.5254 56.091 49.7847 76.5608 48.3917 79.4827C46.9986 82.4046 45.6738 84.1903 49.4236 86.3552C53.1733 88.5201 62.4619 96.0416 65.0661 93.2277C67.6689 90.4165 72.7942 79.8424 76.9513 73.3208C81.1085 66.7991 85.4398 59.2969 82.699 57.4206C79.9582 55.5443 74.281 53.1483 74.281 53.1483L74.2837 53.1498Z" fill="#6CA1F4"/>
<path d="M60.8195 70.8891C60.8195 70.8891 57.3297 76.4246 56.2563 78.4534C55.183 80.4822 54.583 82.8789 59.0701 85.4695C63.5573 88.0602 64.9843 88.982 68.1188 84.9104C71.2548 80.8361 74.0644 76.4788 73.341 75.8652C72.6177 75.2517 65.5843 71.9747 63.7475 70.9142C61.9106 69.8537 61.2664 69.7757 60.8195 70.8891Z" fill="#5775F2"/>
<path d="M78.1936 55.7465C72.8169 52.6423 68.8487 51.8312 67.6929 51.2759C66.5329 50.7216 65.4713 50.7909 65.8936 51.829C66.317 52.8712 72.8097 55.0243 76.3194 56.8232C79.8318 58.6236 82.0684 61.0521 82.4768 60.1508C82.8826 59.248 83.4012 58.7496 78.1951 55.7439L78.1936 55.7465Z" fill="#8BB7F7"/>
<path d="M80.1958 58.7324C79.5411 58.6483 78.504 59.5539 79.5146 60.7182C80.5253 61.8825 82.2673 61.3803 81.9223 60.3659C81.5784 59.3556 80.8438 58.816 80.1958 58.7324Z" fill="white"/>
<path d="M81.2395 62.3543C80.8848 61.6597 79.354 62.6023 79.9994 63.4962C80.6449 64.3902 81.7022 63.2618 81.2395 62.3543Z" fill="white"/>
<path d="M60.9236 72.2542C59.6967 73.9006 56.4084 78.9295 56.39 80.4339C56.3743 81.9398 56.9582 83.2251 58.0236 83.8402C59.089 84.4553 58.5708 82.0743 58.9215 81.1397C59.2721 80.2051 60.8752 76.1134 62.2486 74.0619C63.6205 72.0129 63.3371 71.8493 62.7377 71.4088C62.1384 70.9683 61.7622 71.129 60.9236 72.2542Z" fill="#4564C9"/>
<path d="M70.0143 75.7007C67.8683 74.3393 65.6256 74.1151 65.8334 75.5611C66.0412 77.0071 66.6302 79.4289 65.6674 80.7693C64.7061 82.1071 63.0309 85.4994 64.6077 85.556C66.1844 85.6127 69.2032 81.8626 70.7278 79.7128C72.2523 77.5631 71.6764 76.7548 70.0143 75.7007Z" fill="#7594F9"/>
<path d="M65.0482 52.7054C64.3516 52.6636 63.3619 52.8689 62.0172 55.3918C60.6752 57.9163 52.8162 71.9223 51.9639 73.5925C51.1143 75.2641 47.1328 82.7479 47.5918 83.9226C48.0507 85.0972 48.7545 83.6842 49.7511 81.758C50.7478 79.8318 62.6381 58.2554 63.9198 56.0355C65.2015 53.8155 65.7057 52.7421 65.0456 52.7039L65.0482 52.7054Z" fill="#5688D1"/>
<path d="M70.0389 62.3988C67.3804 60.9374 63.2463 59.0019 62.9373 59.4218C62.6284 59.8418 62.0115 60.4618 63.1473 60.9671C64.2831 61.4723 68.1745 63.7191 71.2213 65.1807C74.2695 66.6397 78.7599 69.0853 79.0677 68.6613C79.3767 68.2413 79.8466 67.5365 78.6137 66.9751C77.3809 66.4138 70.0363 62.3973 70.0363 62.3973L70.0389 62.3988Z" fill="#E3EAFF"/>
<path d="M63.7332 59.7763C63.4938 59.785 63.0987 59.8088 63.1008 60.1809C63.1029 60.553 63.3254 60.8039 63.4959 60.563C63.6665 60.3221 63.9862 59.7684 63.7332 59.7763Z" fill="#95A0B5"/>
<path d="M64.4969 60.1019C64.4969 60.1019 64.0458 60.2228 63.8944 60.5517C63.7414 60.8833 63.879 61.3056 64.1281 61.068C64.3798 60.832 64.7708 60.2215 64.4969 60.1019Z" fill="#95A0B5"/>
<path d="M65.2548 60.5043C65.0079 60.4108 64.7581 60.6374 64.6385 60.9112C64.5189 61.185 64.6275 61.5907 64.8844 61.4731C65.1412 61.3554 65.6277 60.6462 65.2532 60.5069L65.2548 60.5043Z" fill="#95A0B5"/>
<path d="M65.9562 60.8708C65.7644 60.8091 65.5917 61.0417 65.5272 61.3474C65.4627 61.653 65.5284 62.0723 65.8397 61.7937C66.1537 61.5166 66.2441 60.9601 65.9536 60.8693L65.9562 60.8708Z" fill="#95A0B5"/>
<path d="M66.7899 61.2753C66.5589 61.142 66.339 61.6623 66.32 61.9557C66.3037 62.2507 66.5582 62.3976 66.7718 62.0276C66.9855 61.6576 67.0444 61.4222 66.7872 61.2738L66.7899 61.2753Z" fill="#95A0B5"/>
<path d="M67.6358 61.7251C67.3163 61.6421 67.0022 61.9681 67.1083 62.3722C67.2169 62.7778 67.4619 62.8807 67.6315 62.5203C67.8011 62.1599 67.998 61.8188 67.6332 61.7236L67.6358 61.7251Z" fill="#95A0B5"/>
<path d="M68.0279 62.2943C67.8484 62.684 67.6946 62.9382 67.9107 63.0244C68.1268 63.1107 68.3815 62.8029 68.4556 62.5413C68.5297 62.2797 68.1808 61.9628 68.0279 62.2943Z" fill="#95A0B5"/>
<path d="M69.3005 62.5323C69.061 62.541 68.6659 62.5648 68.668 62.9369C68.6701 63.3089 68.8926 63.5598 69.0632 63.3189C69.2338 63.078 69.5534 62.5244 69.3005 62.5323Z" fill="#95A0B5"/>
<path d="M70.0627 62.8603C70.0627 62.8603 69.6116 62.9812 69.4601 63.3101C69.3072 63.6417 69.4448 64.064 69.6939 63.8265C69.9456 63.5904 70.3366 62.9799 70.0627 62.8603Z" fill="#95A0B5"/>
<path d="M79.3217 67.6637C79.0748 67.5702 78.825 67.7968 78.7054 68.0706C78.5858 68.3445 78.6944 68.7501 78.9513 68.6325C79.2081 68.5149 79.6946 67.8056 79.3201 67.6664L79.3217 67.6637Z" fill="#95A0B5"/>
<path d="M78.6353 67.6104C78.7094 67.3487 78.3605 67.0319 78.2076 67.3634C78.0281 67.7531 77.8743 68.0072 78.0904 68.0935C78.3065 68.1798 78.5612 67.872 78.6353 67.6104Z" fill="#95A0B5"/>
<path d="M74.7093 65.3506C74.4624 65.2571 74.2126 65.4837 74.093 65.7575C73.9734 66.0314 74.0821 66.437 74.3389 66.3194C74.5958 66.2018 75.0822 65.4925 74.7078 65.3532L74.7093 65.3506Z" fill="#95A0B5"/>
<path d="M75.4093 65.7197C75.2176 65.658 75.0448 65.8906 74.9803 66.1962C74.9184 66.5034 74.9816 66.9212 75.2929 66.6426C75.6068 66.3655 75.6972 65.8089 75.4067 65.7182L75.4093 65.7197Z" fill="#95A0B5"/>
<path d="M76.243 66.1242C76.0121 65.9909 75.7922 66.5111 75.7732 66.8046C75.7543 67.098 76.0114 67.2465 76.225 66.8765C76.4386 66.5065 76.4976 66.2711 76.2404 66.1227L76.243 66.1242Z" fill="#95A0B5"/>
<path d="M77.0862 66.5725C76.7668 66.4895 76.4526 66.8155 76.5587 67.2196C76.6674 67.6252 76.9123 67.7281 77.0819 67.3677C77.2515 67.0073 77.4485 66.6662 77.0836 66.571L77.0862 66.5725Z" fill="#95A0B5"/>
<path d="M77.9086 67.3903C77.9827 67.1287 77.6338 66.8118 77.4809 67.1433C77.3014 67.533 77.1477 67.7872 77.3637 67.8734C77.5798 67.9597 77.8345 67.6519 77.9086 67.3903Z" fill="#95A0B5"/>
<path d="M70.822 63.2603C70.5751 63.1667 70.3253 63.3934 70.2057 63.6672C70.0861 63.941 70.1947 64.3467 70.4516 64.229C70.7084 64.1114 71.1949 63.4021 70.8204 63.2629L70.822 63.2603Z" fill="#95A0B5"/>
<path d="M71.5235 63.6268C71.3318 63.5651 71.159 63.7977 71.0945 64.1033C71.0326 64.4105 71.0958 64.8283 71.4071 64.5497C71.7184 64.2711 71.8114 63.716 71.5209 63.6253L71.5235 63.6268Z" fill="#95A0B5"/>
<path d="M72.3546 64.0297C72.1236 63.8964 71.9037 64.4167 71.8847 64.7101C71.8658 65.0035 72.1229 65.152 72.3365 64.782C72.5502 64.412 72.6091 64.1766 72.3519 64.0282L72.3546 64.0297Z" fill="#95A0B5"/>
<path d="M73.2005 64.4795C72.881 64.3965 72.5669 64.7225 72.6729 65.1266C72.7816 65.5322 73.0266 65.6351 73.1962 65.2747C73.3658 64.9143 73.5627 64.5732 73.1979 64.478L73.2005 64.4795Z" fill="#95A0B5"/>
<path d="M74.0229 65.2973C74.097 65.0356 73.7481 64.7188 73.5952 65.0503C73.4157 65.44 73.262 65.6941 73.4781 65.7804C73.6942 65.8667 73.9488 65.5589 74.0229 65.2973Z" fill="#95A0B5"/>
<path d="M79.9615 72.3611C79.3918 69.4816 78.5073 68.5231 77.8647 69.5026C77.2264 70.4811 77.4156 74.5649 78.1785 74.9283C78.9398 75.2944 80.4956 75.0661 79.9615 72.3611ZM78.4751 73.8995C78.1133 73.6172 78.337 72.5812 78.8427 72.6143C79.1335 72.6318 79.4694 72.8257 79.436 73.4047C79.4026 73.9837 78.8368 74.1819 78.4751 73.8995Z" fill="#E3EAFF"/>
<path d="M78.4754 69.7539C78.0028 69.7119 77.5898 71.3908 77.6847 72.0264C77.7796 72.6619 77.9337 71.9952 78.495 72.0289C79.0563 72.0625 79.3824 72.6007 79.2944 71.8501C79.2049 71.1022 79.1911 69.8172 78.4743 69.7497L78.4754 69.7539Z" fill="#C3CCE2"/>
</svg>
